{"glyphs":{"0":{"ha":747,"x_min":64,"x_max":700,"o":"m 64 450 q 80 294 64 374 q 135 149 96 214 q 238 41 174 83 q 400 -1 302 -1 q 496 20 453 -1 q 572 75 538 41 q 629 153 605 109 q 669 245 654 198 q 692 340 685 293 q 700 427 700 388 q 675 609 700 522 q 599 762 650 696 q 471 867 548 829 q 289 906 393 906 q 203 882 239 906 q 142 818 167 857 q 101 729 117 779 q 77 629 85 680 q 66 532 69 579 q 64 450 64 484 m 136 487 q 150 676 121 601 q 231 787 179 751 q 349 820 283 823 q 475 772 415 817 q 578 644 534 728 q 629 433 621 559 q 616 303 629 363 q 570 198 602 243 q 488 127 538 153 q 365 102 438 102 q 235 136 281 102 q 166 224 189 170 q 140 348 144 279 q 136 487 136 416 "},"1":{"ha":703,"x_min":43,"x_max":671,"o":"m 52 66 q 69 20 64 42 q 94 -1 75 -1 q 237 5 165 -1 q 379 21 308 12 q 523 37 450 30 q 669 43 595 43 l 671 118 q 610 121 646 123 q 540 118 575 119 q 473 119 505 117 q 425 138 442 122 l 425 1047 q 361 1029 399 1042 q 282 1002 324 1017 q 198 969 240 986 q 122 938 156 952 q 66 913 88 924 q 43 903 45 903 l 52 836 q 126 852 91 836 q 196 887 161 868 q 265 922 231 906 q 339 939 300 939 q 347 938 340 939 q 355 937 353 937 q 344 808 347 879 q 338 661 340 736 q 334 507 336 585 q 326 355 331 429 q 311 218 320 282 q 286 104 302 153 q 216 91 241 95 q 177 85 191 87 q 154 83 163 83 q 134 81 145 83 q 104 77 122 80 q 52 66 85 75 "},"2":{"ha":876,"x_min":22,"x_max":829,"o":"m 339 104 q 434 64 389 83 q 522 30 479 45 q 610 6 566 15 q 703 -3 654 -3 q 738 -2 716 -3 q 780 4 760 -1 q 814 21 800 9 q 829 53 829 33 q 827 60 829 54 q 825 69 826 66 q 722 73 777 69 q 611 88 667 77 q 502 119 555 99 q 408 174 449 140 q 486 271 449 218 q 553 382 524 324 q 601 501 583 439 q 618 625 618 563 q 597 759 618 690 q 534 883 575 827 q 435 975 494 939 q 304 1010 377 1010 q 212 993 258 1010 q 128 943 165 975 q 68 869 91 911 q 45 777 45 826 q 100 789 77 777 q 142 819 123 802 q 178 859 161 837 q 212 898 194 880 q 251 928 229 916 q 301 940 273 940 q 410 909 368 940 q 476 830 453 878 q 508 726 499 783 q 517 617 517 669 q 480 416 517 494 q 389 294 444 339 q 269 230 334 250 q 150 200 205 210 q 58 183 95 190 q 22 157 22 176 q 35 110 22 127 q 70 83 49 92 q 115 70 91 73 q 160 66 140 66 q 250 72 210 66 q 339 104 290 77 m 235 138 q 221 127 231 130 q 201 123 212 123 q 180 127 190 123 q 165 138 170 130 q 174 151 161 146 q 201 155 186 155 q 227 151 216 155 q 235 138 239 146 "},"3":{"ha":747,"x_min":42,"x_max":713,"o":"m 88 109 l 88 109 l 88 69 q 123 28 88 42 q 205 6 159 14 q 296 -3 251 -1 q 361 -4 340 -4 q 502 24 437 -4 q 614 102 567 53 q 687 220 661 152 q 713 365 713 288 q 688 469 713 422 q 622 554 662 517 q 532 618 582 591 q 435 659 483 644 q 471 707 453 680 q 505 764 490 734 q 530 826 519 795 q 540 886 540 857 q 528 938 540 910 q 496 989 515 966 q 452 1029 476 1013 q 404 1044 429 1044 q 288 1027 351 1044 q 170 976 225 1009 q 79 895 115 943 q 42 789 42 848 q 101 822 64 798 q 182 875 138 846 q 271 927 225 903 q 357 957 317 951 q 427 945 397 963 q 469 868 457 926 q 461 850 469 864 q 441 821 453 837 q 418 788 430 804 q 400 764 407 772 q 360 722 389 751 q 298 659 331 692 q 234 596 264 625 q 191 556 203 567 q 195 546 191 552 q 205 534 199 540 q 217 525 212 529 q 227 521 222 521 q 246 526 231 521 q 279 538 262 532 q 312 550 297 544 q 331 556 327 556 q 341 557 332 556 q 361 558 350 557 q 383 559 372 559 q 401 559 395 559 q 487 544 444 559 q 566 501 530 529 q 623 435 601 473 q 644 349 644 396 q 618 230 644 282 q 550 142 593 178 q 450 87 507 106 q 332 68 393 68 q 269 74 300 68 q 209 88 239 80 q 149 102 179 96 q 88 109 119 109 "},"4":{"ha":799,"x_min":24,"x_max":766,"o":"m 426 694 l 426 694 l 426 35 l 496 35 l 491 712 q 519 711 492 712 q 583 711 545 711 q 665 715 621 712 q 746 728 709 719 q 752 749 749 734 q 758 779 755 764 q 766 817 762 796 l 496 817 l 496 1146 q 486 1162 496 1154 q 460 1175 475 1169 q 430 1185 445 1181 q 408 1188 415 1188 l 408 799 q 388 777 408 784 q 338 766 368 769 q 273 763 308 762 q 206 766 237 764 q 153 770 175 768 q 130 772 132 772 l 130 1180 q 123 1195 130 1187 q 107 1209 117 1203 q 87 1219 98 1215 q 69 1223 76 1223 q 62 1080 69 1152 q 47 938 56 1009 q 31 796 38 867 q 24 654 24 726 q 115 661 71 654 q 204 675 160 667 q 293 689 248 682 q 382 696 338 696 q 404 695 388 696 q 426 694 420 694 "},"5":{"ha":764,"x_min":34,"x_max":732,"o":"m 104 138 l 69 104 q 124 41 83 62 q 218 9 165 19 q 323 -1 270 0 q 418 -1 377 -1 q 527 25 471 -1 q 629 94 583 52 q 703 189 674 136 q 732 296 732 241 q 699 424 732 369 q 612 517 665 479 q 494 574 559 555 q 366 593 429 593 q 250 591 305 593 q 138 556 194 589 l 138 868 q 221 894 171 886 q 327 906 271 902 q 439 910 382 910 q 543 911 496 910 l 521 972 q 500 974 518 972 q 460 976 483 975 q 416 977 438 977 q 381 978 393 978 q 254 975 316 978 q 142 953 191 972 q 64 890 94 933 q 34 768 34 848 q 36 688 34 724 q 42 616 38 652 q 53 540 46 579 q 69 452 60 500 q 147 456 110 445 q 221 482 184 467 q 294 513 258 498 q 372 528 331 528 q 471 511 419 528 q 564 465 522 495 q 633 393 606 435 q 661 296 661 350 q 633 206 661 248 q 564 134 605 164 q 473 85 522 103 q 382 68 425 68 q 239 92 309 68 q 104 138 170 115 "},"6":{"ha":791,"x_min":24,"x_max":757,"o":"m 24 368 q 44 238 24 304 q 101 119 64 172 q 193 33 138 66 q 320 -1 248 -1 q 483 4 404 -7 q 622 47 562 15 q 719 136 682 80 q 757 278 755 193 q 733 368 757 332 q 673 422 709 403 q 591 448 636 441 q 503 456 547 456 q 389 427 437 456 q 305 354 340 399 q 245 252 270 309 q 199 138 220 195 q 191 136 197 137 q 183 136 184 136 q 144 168 160 136 q 117 242 127 201 q 100 320 106 283 q 95 365 95 357 q 101 438 95 393 q 119 536 107 483 q 149 647 132 590 q 191 758 167 704 q 243 859 214 812 q 304 937 271 906 l 232 1001 q 151 865 187 949 q 87 689 114 781 q 45 510 61 597 q 24 368 30 423 m 522 387 q 576 384 547 387 q 629 370 605 381 q 670 336 654 358 q 686 278 686 315 q 665 210 686 240 q 611 159 644 180 q 536 122 578 137 q 453 98 495 107 q 372 85 411 90 q 308 81 334 81 q 317 193 308 138 q 351 291 327 248 q 416 360 374 334 q 522 387 457 387 "},"7":{"ha":1025,"x_min":14,"x_max":990,"o":"m 614 345 q 605 228 612 293 q 599 107 598 163 q 616 19 600 52 q 678 0 633 -14 l 678 347 l 990 416 l 990 452 l 727 452 q 736 593 727 524 q 757 731 746 663 q 777 867 768 799 q 787 1006 787 936 l 53 1006 q 27 993 35 1006 q 16 962 19 979 q 14 928 14 944 q 15 906 15 911 q 15 861 15 891 q 20 800 15 830 q 36 747 24 769 q 71 724 47 724 q 77 726 71 724 q 90 732 83 728 q 104 738 98 735 q 111 741 110 741 q 92 851 81 812 q 134 908 102 890 q 212 930 167 926 q 296 937 256 935 q 371 937 317 939 q 486 933 425 936 q 600 928 547 930 q 675 925 654 925 q 677 915 675 922 q 678 903 680 907 q 666 823 673 869 q 652 726 659 776 q 637 627 644 677 q 623 539 629 578 q 613 476 617 500 q 609 452 609 452 l 378 382 l 400 312 q 508 335 460 326 q 614 345 556 345 "},"8":{"ha":703,"x_min":34,"x_max":663,"o":"m 171 213 q 174 131 171 170 q 192 62 178 92 q 234 15 206 33 q 311 -3 262 -3 q 439 24 376 -3 q 551 98 502 52 q 632 206 601 145 q 663 335 663 267 q 645 377 663 351 q 599 431 627 403 q 539 488 571 460 q 480 538 507 515 q 435 576 453 562 q 416 590 416 590 l 556 833 q 560 877 568 854 q 530 919 552 899 q 479 956 509 939 q 418 985 449 972 q 359 1005 387 998 q 316 1012 332 1012 q 214 998 264 1012 q 124 955 164 983 q 59 883 84 926 q 34 780 34 840 q 63 703 34 745 q 129 623 92 661 q 199 557 165 585 q 243 521 233 529 q 243 512 243 518 q 244 505 244 506 q 233 431 244 465 q 208 361 221 396 q 182 290 194 327 q 171 213 171 254 m 240 213 q 247 301 240 254 q 271 391 254 349 q 319 460 288 433 q 399 488 350 488 q 471 475 437 488 q 533 439 506 463 q 576 384 560 416 q 593 311 593 351 q 566 227 593 270 q 501 147 540 183 q 416 89 463 111 q 332 66 370 66 q 275 76 294 66 q 248 104 256 85 q 240 149 240 122 q 240 213 240 176 m 103 779 q 121 850 103 819 q 165 901 138 880 q 227 932 193 922 q 296 943 262 943 q 345 941 317 943 q 396 930 372 939 q 437 903 420 921 q 454 852 454 884 q 440 798 454 836 q 404 721 426 760 q 353 653 381 682 q 296 624 324 624 q 238 640 271 624 q 175 680 205 656 q 124 730 145 703 q 103 779 103 757 "},"9":{"ha":651,"x_min":23,"x_max":583,"o":"m 444 590 q 486 488 476 551 q 498 356 496 426 q 496 216 499 286 q 497 94 492 146 q 520 14 502 42 q 582 0 538 -14 q 582 16 582 4 q 583 43 582 28 q 583 70 583 57 q 583 88 583 83 q 571 446 583 266 q 547 799 559 625 q 520 852 549 831 q 451 884 491 872 q 369 901 411 897 q 304 906 327 906 q 190 882 241 906 q 101 815 138 857 q 43 718 64 773 q 23 602 23 663 q 36 542 23 566 q 71 505 49 518 q 122 486 94 491 q 183 480 151 480 q 256 484 224 480 q 319 500 289 488 q 378 533 349 511 q 444 590 408 555 m 95 606 q 109 686 95 644 q 149 761 123 727 q 209 817 174 795 q 286 838 244 838 q 378 805 345 838 q 412 712 412 772 q 412 702 412 709 q 410 686 411 694 q 409 671 410 678 q 408 659 408 663 q 349 609 376 629 q 298 576 323 589 q 247 559 274 564 q 184 553 220 553 q 155 554 171 553 q 126 560 140 555 q 104 576 113 566 q 95 606 95 587 "}," ":{"ha":694,"x_min":0,"x_max":0,"o":""}," ":{"ha":694,"x_min":0,"x_max":0,"o":""},"$":{"ha":868,"x_min":12,"x_max":848,"o":"m 481 46 l 481 -163 l 552 -163 l 552 80 q 650 120 598 85 q 747 203 703 155 q 819 308 791 252 q 848 411 848 363 q 819 547 848 490 q 743 640 791 604 q 631 691 694 675 q 499 705 568 707 l 499 1009 q 549 1010 525 1009 q 595 1005 574 1010 q 635 987 616 1000 q 673 948 655 974 q 705 978 700 959 q 711 1020 711 997 q 684 1055 711 1038 q 618 1088 656 1073 q 542 1118 581 1104 q 481 1143 503 1133 q 452 1258 457 1213 q 445 1326 448 1303 q 433 1348 442 1348 q 389 1326 423 1348 q 394 1200 410 1251 q 345 1109 378 1149 q 264 1038 311 1070 q 178 967 218 1005 q 109 880 137 929 q 80 757 80 830 q 105 669 80 699 q 168 629 130 640 q 249 616 205 617 q 332 614 293 616 q 397 604 370 612 q 429 567 425 595 q 437 505 431 549 q 448 410 442 460 q 458 316 453 361 q 464 254 463 271 q 464 237 464 248 q 463 213 464 225 q 460 189 461 201 q 460 172 460 178 q 342 162 396 172 q 240 149 289 152 q 144 159 191 145 q 47 220 96 172 l 12 184 q 100 107 42 134 q 226 68 159 80 q 361 52 293 56 q 481 46 430 49 m 525 624 q 610 614 563 624 q 696 580 656 604 q 760 519 735 556 q 776 427 784 481 q 753 365 773 406 q 705 283 734 324 q 645 212 677 243 q 586 182 613 182 q 577 182 583 182 q 568 184 571 183 q 532 403 540 296 q 525 624 525 510 m 151 757 q 164 808 151 781 q 199 863 178 836 q 245 915 220 890 q 293 961 270 940 q 334 998 316 982 q 359 1019 353 1013 q 378 950 370 982 q 389 889 385 918 q 395 829 393 860 q 397 765 397 799 q 387 711 397 731 q 356 682 376 692 q 310 671 336 673 q 252 669 283 669 q 216 675 235 669 q 184 692 198 681 q 160 720 170 704 q 151 757 151 736 "},"%":{"ha":633,"x_min":26,"x_max":579,"o":"m 513 1077 l 26 35 l 88 14 l 579 1077 l 513 1077 m 444 278 q 488 199 465 217 q 526 187 510 180 q 551 218 543 194 q 557 266 560 241 q 534 306 553 290 q 477 312 515 321 q 457 297 471 309 q 444 278 444 285 m 94 921 q 94 895 94 909 q 96 869 94 882 q 106 847 99 857 q 130 833 114 837 q 190 877 175 856 q 205 936 205 898 q 193 985 205 963 q 149 1008 180 1008 q 118 1000 129 1008 q 102 979 107 991 q 95 950 96 966 q 94 921 94 935 "},"&":{"ha":921,"x_min":60,"x_max":929,"o":"m 755 212 l 872 -332 l 929 -275 l 825 559 q 810 584 822 576 q 782 593 798 591 q 751 595 766 595 q 727 594 735 594 q 656 592 703 594 q 562 586 609 590 q 479 575 514 582 q 444 559 444 568 l 444 524 q 570 504 526 525 q 633 446 613 483 q 654 358 652 408 q 656 251 656 308 q 559 286 609 251 q 467 372 509 320 q 399 484 426 425 q 372 593 372 544 q 372 610 372 597 q 373 628 372 624 q 469 722 419 670 q 559 834 518 774 q 627 960 601 894 q 654 1096 654 1027 q 636 1182 654 1141 q 587 1255 618 1223 q 514 1305 556 1287 q 425 1324 472 1324 q 318 1272 370 1312 q 235 1156 266 1233 q 205 958 205 1078 q 255 665 205 838 q 180 590 216 639 q 119 484 145 541 q 76 368 92 426 q 60 264 60 309 q 82 140 60 190 q 145 58 104 90 q 241 14 186 27 q 361 0 296 0 q 585 54 483 0 q 755 212 686 109 m 165 141 q 161 250 163 197 q 167 351 159 302 q 198 444 175 400 q 270 524 221 487 q 326 451 288 500 q 412 347 363 401 q 514 245 460 293 q 617 176 568 197 q 519 100 581 129 q 391 64 457 71 q 264 75 326 57 q 165 141 202 94 m 755 419 l 686 524 l 755 524 l 755 419 m 301 939 q 304 1034 301 979 q 321 1138 307 1089 q 370 1221 336 1187 q 463 1255 403 1255 q 509 1235 487 1255 q 549 1188 532 1215 q 575 1131 566 1161 q 585 1078 585 1100 q 558 977 585 1028 q 494 880 532 926 q 414 796 457 834 q 339 732 372 758 q 315 783 323 758 q 304 833 308 808 q 301 884 301 857 q 301 939 301 910 "},"'":{"ha":165,"x_min":26,"x_max":134,"o":"m 26 1251 q 31 1200 26 1238 q 47 1121 37 1162 q 69 1045 57 1080 q 96 1006 81 1010 q 122 1023 114 1010 q 132 1052 130 1036 q 134 1083 134 1067 q 133 1109 133 1099 q 120 1207 133 1160 q 61 1284 107 1255 q 40 1272 54 1284 q 26 1251 26 1259 "},"(":{"ha":408,"x_min":7,"x_max":355,"o":"m 7 435 q 19 290 7 365 q 51 141 31 216 q 96 -5 71 66 q 148 -138 121 -76 q 177 -117 171 -127 q 183 -90 183 -107 q 172 42 183 -23 q 146 172 160 107 q 121 302 133 236 q 110 437 110 368 q 114 602 110 528 q 129 743 118 677 q 157 869 140 808 q 202 995 175 930 q 267 1130 229 1059 q 355 1284 305 1200 l 355 1331 q 338 1326 351 1331 q 321 1320 326 1322 q 214 1213 260 1279 q 132 1067 167 1147 q 73 898 98 986 q 35 725 49 810 q 14 565 20 640 q 7 435 7 490 "},")":{"ha":416,"x_min":8,"x_max":361,"o":"m 146 -156 q 154 -186 146 -175 q 182 -209 161 -198 q 264 -130 232 -180 q 317 -18 297 -80 q 346 113 336 43 q 358 249 355 182 q 360 377 361 316 q 359 483 359 438 q 351 711 359 600 q 317 926 343 822 q 243 1129 292 1031 q 113 1320 194 1227 q 100 1330 110 1324 q 79 1341 91 1336 q 58 1350 68 1345 q 43 1354 47 1354 q 22 1341 37 1354 q 8 1320 8 1328 q 153 1128 98 1229 q 239 920 209 1028 q 281 697 270 812 q 292 461 292 582 q 289 313 292 377 q 275 186 286 248 q 242 55 264 123 q 182 -104 220 -14 q 154 -126 161 -115 q 146 -156 146 -137 "},"*":{"ha":425,"x_min":18,"x_max":370,"o":"m 227 521 l 227 521 l 365 416 q 366 434 366 420 q 366 452 366 448 q 366 471 366 458 q 365 486 366 484 q 359 505 365 490 q 348 538 354 521 q 336 571 342 556 q 331 590 331 586 q 336 603 331 593 q 347 625 340 613 q 358 646 353 636 q 365 659 363 656 q 368 671 366 663 q 370 684 370 680 q 309 692 328 684 q 283 715 290 701 q 275 745 275 728 q 273 779 275 762 q 262 810 271 796 q 227 833 252 825 q 184 798 199 815 q 159 763 170 780 q 140 730 149 746 q 117 702 132 715 q 80 677 103 689 q 18 659 57 666 q 70 621 52 648 q 97 561 88 594 q 108 494 106 528 q 110 435 110 460 q 145 445 126 435 q 180 468 164 454 q 209 496 197 481 q 227 521 221 510 "},"+":{"ha":574,"x_min":14,"x_max":538,"o":"m 14 576 l 27 500 q 146 496 104 500 q 206 483 189 492 q 223 458 224 473 q 215 422 222 444 q 199 372 208 400 q 194 307 191 343 q 210 307 194 307 q 244 309 225 308 q 279 311 263 309 q 296 312 294 312 q 303 438 289 392 q 350 509 317 484 q 430 542 382 533 q 538 556 477 551 l 538 609 l 331 609 q 338 652 335 627 q 341 703 342 677 q 336 753 340 728 q 318 793 331 777 q 283 813 305 808 q 227 807 260 818 l 227 590 l 14 576 "},",":{"ha":217,"x_min":30,"x_max":174,"o":"m 99 3 q 94 -10 99 0 q 83 -32 90 -20 q 70 -54 76 -43 q 64 -66 64 -64 q 62 -81 62 -68 q 62 -102 62 -95 q 62 -119 62 -106 q 64 -136 62 -132 q 151 -70 127 -104 q 174 20 174 -35 q 152 87 174 65 q 80 109 130 109 q 51 102 61 109 q 30 72 41 95 q 47 62 35 71 q 69 42 58 53 q 89 20 80 31 q 99 3 98 8 "},"-":{"ha":704,"x_min":26,"x_max":656,"o":"m 61 416 l 26 382 q 53 349 37 353 q 92 346 69 346 q 113 347 99 346 q 130 347 127 347 q 239 358 174 351 q 373 372 304 365 q 507 387 442 380 q 614 397 571 393 q 647 429 637 408 q 656 472 656 449 q 627 471 648 472 q 583 470 606 471 q 539 468 560 469 q 510 467 518 467 q 349 452 429 460 q 206 437 270 445 q 102 424 142 430 q 61 416 62 418 "},".":{"ha":267,"x_min":52,"x_max":239,"o":"m 58 69 q 70 45 61 57 q 91 22 79 33 q 117 4 103 11 q 146 -3 132 -3 q 174 4 160 -3 q 200 22 189 11 q 220 45 212 33 q 232 69 229 57 q 231 111 239 96 q 210 134 224 126 q 178 142 195 141 q 146 144 160 144 q 114 142 132 144 q 81 134 96 141 q 59 111 66 126 q 58 69 52 96 "},"/":{"ha":391,"x_min":8,"x_max":355,"o":"m 286 972 l 8 35 l 62 -19 l 355 972 q 328 1012 339 1004 q 308 1015 316 1020 q 294 997 300 1010 q 286 972 289 983 "},"@":{"ha":1276,"x_min":34,"x_max":1233,"o":"m 34 464 q 84 250 34 339 q 216 105 134 161 q 400 23 297 49 q 609 -3 503 -3 q 751 7 688 -3 q 869 41 814 16 q 975 106 925 65 q 1077 209 1025 146 q 1065 220 1072 210 q 1053 240 1058 229 q 1044 262 1047 251 q 1042 278 1040 273 q 1086 387 1057 338 q 1147 488 1116 437 q 1200 596 1177 538 q 1222 730 1222 654 q 1219 858 1233 798 q 1173 968 1206 918 q 1093 1058 1141 1019 q 987 1125 1044 1097 q 868 1167 930 1153 q 745 1181 806 1181 q 560 1154 650 1181 q 392 1078 471 1127 q 248 962 313 1029 q 134 815 182 895 q 60 646 87 735 q 34 464 34 557 m 133 486 q 179 721 133 608 q 307 922 225 834 q 500 1061 388 1009 q 743 1114 612 1114 q 910 1088 836 1114 q 1038 1013 985 1062 q 1120 892 1090 963 q 1149 731 1149 821 q 1131 576 1149 656 q 1074 430 1114 496 q 970 320 1034 363 q 814 277 906 277 q 778 286 793 277 q 751 310 762 296 q 734 342 741 324 q 728 378 728 361 q 734 441 728 410 q 747 503 739 472 q 760 564 754 533 q 765 627 765 594 q 754 705 765 667 q 721 770 743 742 q 666 817 699 799 q 590 834 633 834 q 468 790 525 834 q 369 682 411 746 q 302 546 327 618 q 278 416 278 473 q 289 363 278 396 q 319 300 300 330 q 363 253 338 271 q 416 243 388 235 q 455 256 425 244 q 520 280 486 267 q 586 302 555 293 q 625 312 617 312 q 652 296 632 312 q 695 262 673 281 q 737 227 718 243 q 764 209 757 210 q 806 203 776 205 q 869 201 836 201 q 931 203 902 201 q 972 209 960 205 q 903 142 945 164 q 812 110 861 119 q 713 100 764 100 q 621 100 663 100 q 435 103 526 87 q 275 167 345 119 q 165 294 205 214 q 133 486 126 373 m 673 741 q 661 578 673 652 q 616 451 650 505 q 521 368 582 397 q 362 338 460 338 q 377 494 362 420 q 428 623 392 568 q 524 709 464 677 q 673 741 583 741 "},":":{"ha":285,"x_min":49,"x_max":229,"o":"m 118 209 q 119 189 118 201 q 123 165 119 176 q 134 146 126 155 q 156 138 141 138 q 216 157 203 138 q 229 206 229 175 q 217 256 229 233 q 174 279 205 279 q 130 257 142 279 q 118 209 118 235 m 49 643 q 65 604 49 620 q 104 587 81 587 q 153 610 134 587 q 190 659 172 632 q 123 682 151 677 q 80 684 96 688 q 56 669 64 680 q 49 643 49 658 "},";":{"ha":240,"x_min":41,"x_max":218,"o":"m 148 -138 q 142 -153 148 -142 q 131 -174 137 -163 q 119 -196 125 -186 q 113 -209 114 -206 q 109 -230 111 -213 q 107 -251 107 -247 q 151 -239 130 -251 q 186 -208 171 -227 q 210 -166 201 -189 q 218 -122 218 -144 q 212 -70 218 -99 q 193 -16 206 -41 q 159 26 180 9 q 110 43 138 43 q 111 22 110 39 q 113 0 111 4 q 119 -26 114 -5 q 131 -69 125 -46 q 142 -113 137 -92 q 148 -138 148 -133 m 41 418 q 41 398 41 410 q 45 375 42 387 q 56 355 49 363 q 77 347 64 347 q 121 353 106 347 q 143 371 136 359 q 151 397 151 382 q 152 430 152 412 q 152 455 152 441 q 149 482 152 469 q 137 506 145 495 q 113 521 129 517 q 55 477 69 498 q 41 418 41 456 "},"<":{"ha":651,"x_min":58,"x_max":617,"o":"m 58 296 q 92 260 58 286 q 178 201 126 235 q 291 133 229 168 q 409 68 353 98 q 509 18 465 38 q 566 -1 552 -1 q 595 6 585 -1 q 617 35 606 14 q 605 51 614 41 q 585 73 595 61 q 563 93 574 84 q 547 104 552 102 q 503 125 533 111 q 436 157 473 140 q 357 193 399 175 q 278 229 316 212 q 210 259 240 245 q 165 278 180 273 l 165 347 q 210 396 180 365 q 276 466 240 427 q 349 550 312 505 q 416 643 387 595 q 466 739 446 690 q 486 833 486 788 l 444 833 l 61 312 q 59 304 60 311 q 58 296 58 298 "},"=":{"ha":633,"x_min":92,"x_max":590,"o":"m 99 236 q 102 228 102 236 q 103 210 103 220 q 103 193 103 201 q 104 184 103 184 q 184 193 136 189 q 286 199 232 197 q 394 203 339 201 q 492 205 449 205 q 563 207 536 206 q 590 209 590 208 l 590 252 q 549 266 583 262 q 467 269 515 270 q 363 265 419 269 q 254 257 307 262 q 160 246 202 252 q 99 236 118 240 m 92 426 l 92 373 l 567 392 l 567 465 q 444 461 507 465 q 317 452 380 457 q 197 439 255 446 q 92 426 138 431 "},">":{"ha":590,"x_min":53,"x_max":576,"o":"m 469 486 l 191 69 l 191 -8 q 232 3 217 -8 q 262 35 247 15 q 297 87 273 52 q 353 166 321 122 q 418 260 384 210 q 483 353 452 309 q 538 433 514 397 q 574 486 562 469 q 576 495 575 488 q 576 505 576 502 q 560 549 576 532 q 522 580 544 567 q 475 603 499 593 q 435 625 452 613 q 391 661 420 636 q 323 715 361 685 q 243 780 285 746 q 164 845 202 814 q 96 901 126 876 q 53 937 66 925 l 53 833 l 469 486 "},"?":{"ha":582,"x_min":0,"x_max":557,"o":"m 277 53 q 284 22 277 33 q 312 0 292 11 q 341 22 334 11 q 349 53 349 33 q 341 83 349 72 q 312 104 334 94 q 284 83 292 94 q 277 53 277 72 m 206 540 q 208 486 206 517 q 218 426 210 454 q 245 378 227 397 q 296 358 263 358 l 296 521 q 369 577 324 541 q 455 659 414 613 q 527 754 496 704 q 557 852 557 804 q 528 927 557 897 q 455 976 498 958 q 367 1002 412 994 q 290 1010 321 1010 q 207 1002 248 1010 q 127 975 165 993 q 57 931 90 958 q 0 868 24 905 q 22 840 11 848 q 53 831 33 831 q 111 848 81 831 q 174 886 141 865 q 241 924 206 907 q 313 941 275 941 q 364 939 334 941 q 422 926 395 936 q 470 899 450 917 q 490 852 490 882 q 469 781 490 810 q 416 732 448 753 q 348 693 385 711 q 279 654 311 675 q 227 606 248 633 q 206 540 206 579 "},"A":{"ha":720,"x_min":38,"x_max":677,"o":"m 326 1127 q 217 1048 260 1101 q 145 920 174 994 q 101 753 117 845 q 76 559 85 661 q 60 351 66 458 q 43 138 54 243 q 42 118 43 133 q 40 87 41 103 q 39 56 39 71 q 38 35 38 41 l 130 35 l 130 416 q 182 404 146 406 q 263 406 218 403 q 357 416 308 410 q 450 425 407 422 q 524 427 492 429 q 564 416 555 426 l 633 35 l 677 35 q 676 139 677 72 q 671 290 675 206 q 659 468 667 373 q 633 656 650 563 q 592 834 617 749 q 530 985 567 920 q 442 1088 492 1050 q 326 1127 392 1127 m 355 1044 q 450 958 414 1004 q 505 862 486 913 q 530 756 524 811 q 536 643 536 701 q 535 618 536 636 q 533 581 534 601 q 531 545 532 562 q 529 521 530 528 q 354 493 446 506 q 174 480 262 480 q 174 562 174 509 q 179 678 175 616 q 194 806 183 741 q 224 924 205 871 q 276 1010 244 977 q 355 1044 308 1044 "},"B":{"ha":886,"x_min":35,"x_max":836,"o":"m 88 903 l 88 138 q 108 105 88 122 q 158 73 127 88 q 227 43 189 57 q 300 20 264 30 q 368 3 336 9 q 416 -3 399 -3 q 576 27 500 -3 q 710 109 652 57 q 802 232 768 161 q 836 382 836 302 q 825 492 836 449 q 788 564 815 534 q 713 614 761 593 q 590 659 665 635 q 627 726 613 697 q 649 782 642 755 q 659 836 656 808 q 662 901 662 864 q 639 1015 662 972 q 576 1079 616 1057 q 482 1108 536 1101 q 366 1115 429 1115 q 274 1115 328 1115 q 169 1103 220 1115 q 79 1062 118 1092 q 35 972 41 1032 q 41 955 35 966 q 54 933 46 944 q 72 913 62 922 q 88 903 81 905 m 209 486 q 304 524 262 509 q 388 547 347 538 q 471 558 429 555 q 564 562 513 562 q 644 552 606 562 q 708 522 681 543 q 751 469 735 502 q 768 389 768 437 q 735 260 768 319 q 651 158 703 201 q 533 92 600 115 q 400 68 467 68 q 275 98 320 76 q 210 152 231 121 q 189 222 190 183 q 193 304 187 260 q 205 394 198 347 q 209 486 212 441 m 172 673 q 174 728 172 696 q 178 797 175 761 q 184 868 180 833 q 191 933 187 903 q 200 983 195 963 q 209 1006 205 1002 q 361 1013 298 1015 q 467 1002 425 1010 q 535 979 510 993 q 573 951 560 966 q 589 924 586 937 q 593 902 593 910 q 558 775 593 833 q 470 676 524 718 q 351 612 416 635 q 225 589 286 589 q 195 596 206 589 q 180 616 184 604 q 174 643 175 628 q 172 673 172 658 "},"C":{"ha":789,"x_min":24,"x_max":755,"o":"m 24 469 q 39 304 24 388 q 91 152 53 220 q 193 41 129 84 q 357 -1 256 -1 q 366 -1 359 -1 q 373 0 372 0 q 439 23 400 9 q 519 52 477 37 q 604 81 562 66 q 679 109 646 96 q 733 129 712 121 q 755 138 754 137 l 755 209 q 668 165 720 190 q 558 120 616 141 q 443 84 500 99 q 339 69 385 69 q 219 112 264 75 q 150 204 174 149 q 120 325 126 259 q 121 452 114 391 q 126 555 121 494 q 146 681 132 616 q 182 811 160 746 q 239 928 205 876 q 319 1011 273 979 q 426 1043 365 1043 q 493 1019 471 1043 q 532 965 515 994 q 570 911 549 936 q 629 887 590 887 q 619 968 629 928 q 587 1042 609 1009 q 530 1094 566 1074 q 445 1114 495 1114 q 316 1082 374 1114 q 211 996 258 1050 q 129 875 164 943 q 71 736 94 807 q 36 595 47 665 q 24 469 24 525 "},"D":{"ha":972,"x_min":35,"x_max":939,"o":"m 69 903 l 138 69 l 141 3 q 169 1 142 3 q 228 -1 195 0 q 292 -4 260 -3 q 335 -5 323 -5 q 459 3 392 -5 q 593 32 526 12 q 722 83 659 52 q 833 159 785 114 q 909 264 880 203 q 939 400 939 324 q 901 561 939 488 q 802 694 863 633 q 663 802 741 754 q 503 888 585 850 q 345 956 422 926 q 209 1006 267 985 q 195 1007 205 1006 q 174 1008 186 1008 q 153 1010 163 1009 q 138 1010 142 1010 q 117 1011 134 1010 q 82 1010 100 1012 q 50 999 64 1008 q 35 972 35 990 q 39 958 35 968 q 49 937 43 948 q 60 916 54 925 q 69 903 65 906 m 172 911 q 308 895 235 911 q 455 848 381 879 q 597 773 529 817 q 720 675 666 730 q 805 556 773 620 q 837 422 837 492 q 797 258 837 326 q 692 147 757 190 q 547 84 628 104 q 382 64 465 64 q 347 64 372 64 q 295 66 323 65 q 243 68 267 66 q 209 69 218 69 q 205 158 208 98 q 199 294 202 218 q 191 452 195 369 q 184 610 187 534 q 178 745 180 685 q 174 833 175 804 q 174 848 174 837 q 173 873 174 860 q 172 897 172 886 q 172 911 172 907 "},"E":{"ha":911,"x_min":26,"x_max":878,"o":"m 26 972 q 98 488 83 734 q 114 -1 114 241 q 130 0 125 -1 q 229 10 170 4 q 356 24 289 16 q 492 39 423 31 q 616 53 560 46 q 711 64 673 60 q 755 69 749 68 q 789 75 768 71 q 829 86 810 79 q 863 107 849 94 q 878 144 878 121 q 707 138 792 144 q 538 126 623 133 q 369 114 453 119 q 199 109 285 109 l 199 486 q 220 503 199 494 q 273 522 240 513 q 345 538 305 530 q 424 553 385 547 q 496 564 463 560 q 547 567 529 567 l 547 633 q 462 627 503 633 q 380 611 420 620 q 300 595 340 602 q 218 589 260 589 q 192 589 212 589 q 165 590 172 589 q 157 646 163 608 q 144 730 151 684 q 134 823 138 776 q 129 907 129 871 q 132 946 129 929 q 165 972 136 963 q 221 985 183 977 q 307 1004 259 994 q 408 1026 355 1015 q 509 1048 461 1038 q 595 1066 556 1058 q 651 1077 633 1074 q 691 1076 665 1080 q 742 1074 718 1072 q 782 1092 766 1077 q 791 1146 798 1107 q 773 1147 785 1146 q 747 1148 761 1147 q 720 1149 732 1149 q 704 1150 708 1150 q 595 1149 656 1150 q 469 1141 534 1147 q 336 1124 403 1135 q 210 1094 269 1114 q 102 1044 151 1074 q 26 972 54 1015 "},"F":{"ha":746,"x_min":24,"x_max":833,"o":"m 61 937 q 69 841 64 906 q 81 694 75 776 q 96 521 88 612 q 110 348 103 430 q 122 201 117 266 q 130 104 127 136 q 134 58 132 79 q 143 21 136 37 q 168 -3 151 5 q 218 -11 186 -11 l 218 486 l 686 625 q 682 646 692 639 q 656 658 673 654 q 623 663 640 662 q 600 663 606 663 q 500 652 548 663 q 407 626 453 640 q 314 600 361 612 q 218 589 267 589 q 209 589 216 589 q 199 590 202 590 q 174 743 184 673 q 164 890 164 812 q 168 950 164 925 q 199 1006 172 975 q 260 1023 218 1012 q 352 1049 301 1035 q 460 1078 403 1063 q 568 1107 517 1093 q 660 1131 618 1120 q 720 1146 701 1141 q 765 1152 745 1152 q 801 1158 785 1153 q 825 1179 817 1164 q 833 1227 833 1194 q 804 1226 825 1227 q 760 1223 783 1225 q 715 1219 736 1221 q 686 1215 694 1217 q 617 1201 663 1211 q 513 1177 571 1191 q 390 1149 454 1164 q 268 1120 326 1134 q 164 1094 210 1105 q 96 1077 118 1082 q 79 1067 90 1076 q 56 1046 68 1058 q 36 1024 45 1035 q 26 1006 27 1013 q 28 990 24 1001 q 37 968 31 979 q 49 948 42 958 q 61 937 56 939 "},"G":{"ha":1016,"x_min":35,"x_max":975,"o":"m 868 119 l 937 -159 l 975 -159 q 975 -131 975 -151 q 975 -89 975 -111 q 973 -47 974 -66 q 972 -19 972 -27 q 968 61 971 7 q 962 184 966 115 q 955 328 959 252 q 947 471 951 403 q 941 595 944 540 q 937 675 939 650 q 924 676 933 675 q 903 677 914 677 q 882 677 892 677 q 868 677 872 677 q 850 677 861 677 q 829 677 840 677 q 809 676 818 677 q 799 675 800 675 q 681 659 751 669 q 544 637 610 648 q 430 616 477 625 q 382 605 382 608 l 382 571 q 473 563 423 567 q 572 550 522 559 q 671 525 623 541 q 755 481 719 509 q 814 414 792 454 q 837 317 837 374 q 796 216 831 260 q 706 140 761 171 q 584 94 651 109 q 449 81 517 79 q 318 103 381 83 q 210 164 255 123 q 142 267 164 205 q 133 415 119 330 q 146 564 133 484 q 188 722 160 643 q 258 875 216 802 q 357 1004 300 948 q 485 1094 414 1061 q 643 1127 556 1127 q 684 1118 656 1130 q 743 1087 711 1105 q 811 1049 776 1069 q 875 1017 846 1029 q 922 1003 903 1004 q 941 1023 940 1002 q 908 1112 941 1077 q 827 1166 875 1146 q 728 1193 780 1185 q 636 1200 675 1200 q 452 1162 536 1200 q 302 1058 369 1123 q 185 907 235 993 q 102 728 136 822 q 52 541 69 635 q 35 362 35 446 q 62 202 35 269 q 139 93 90 136 q 259 30 189 50 q 418 9 330 9 q 536 13 484 9 q 639 28 589 16 q 743 61 689 39 q 868 119 798 83 m 868 502 l 764 571 q 812 598 784 585 q 868 612 841 612 l 868 502 "},"H":{"ha":699,"x_min":39,"x_max":598,"o":"m 39 363 q 39 313 39 346 q 39 241 39 281 q 39 158 39 201 q 39 80 39 115 q 40 22 39 45 q 41 -4 41 -1 l 127 -4 l 130 511 l 526 583 q 528 483 528 526 q 529 415 528 439 q 530 348 529 388 q 531 263 530 308 q 532 173 532 218 q 534 92 533 127 q 538 33 536 56 q 543 9 540 9 l 598 -1 l 598 1352 q 588 1374 598 1366 q 564 1387 578 1382 q 537 1394 551 1392 q 517 1396 524 1396 q 517 1320 517 1369 q 517 1206 517 1271 q 519 1068 518 1142 q 521 918 519 994 q 523 766 522 841 q 525 625 524 690 l 130 625 l 130 1320 l 77 1320 q 58 1068 65 1185 q 46 838 50 951 q 41 610 42 726 q 39 363 39 494 "},"I":{"ha":182,"x_min":26,"x_max":148,"o":"m 26 1271 l 26 1271 l 26 1251 q 36 1057 31 1162 q 45 837 41 951 q 52 606 49 723 q 57 380 54 490 q 63 174 60 271 q 71 4 66 77 l 148 19 q 146 46 148 20 q 141 105 144 72 q 136 172 138 138 q 133 227 133 206 q 131 500 133 369 q 124 764 129 632 q 113 1032 119 895 q 96 1320 106 1169 q 87 1321 94 1321 q 79 1321 80 1321 q 41 1307 57 1321 q 26 1271 26 1293 "},"J":{"ha":817,"x_min":34,"x_max":792,"o":"m 34 279 q 55 176 34 227 q 111 85 76 125 q 195 21 146 45 q 297 -3 243 -3 q 543 20 448 -14 q 693 117 639 53 q 768 271 747 182 q 790 465 788 361 q 781 682 792 570 q 764 903 770 795 q 756 965 761 928 q 745 1044 751 1002 q 730 1127 738 1085 q 716 1203 723 1169 q 703 1259 709 1237 q 694 1284 697 1282 q 656 1295 670 1293 q 634 1294 642 1297 q 625 1285 627 1291 q 624 1270 624 1279 q 635 1111 624 1190 q 661 954 647 1032 q 687 795 675 875 q 699 635 699 716 q 696 486 699 556 q 682 357 693 416 q 646 248 670 297 q 578 163 621 199 q 471 102 536 126 q 312 69 406 79 q 229 79 259 64 q 181 121 198 94 q 156 182 164 148 q 138 250 148 217 q 114 309 129 282 q 69 347 99 335 q 37 320 41 338 q 34 279 34 302 "},"K":{"ha":860,"x_min":57,"x_max":791,"o":"m 60 1053 q 58 896 57 991 q 62 691 60 800 q 69 468 65 582 q 77 256 73 354 q 85 87 81 159 q 91 -7 88 16 q 132 1 117 -3 q 153 13 146 5 q 160 31 159 20 q 161 57 161 41 q 162 73 161 61 q 163 97 163 84 q 165 120 164 110 q 165 132 165 130 q 157 281 161 195 q 149 461 153 366 q 140 656 145 556 q 131 850 136 755 q 123 1029 126 945 q 117 1177 119 1114 q 112 1276 114 1240 q 110 1313 110 1313 l 61 1313 q 60 1261 61 1298 q 60 1183 60 1225 q 60 1104 60 1141 q 60 1053 60 1067 m 547 521 l 720 26 q 732 15 724 16 q 750 16 741 14 q 770 22 760 19 q 791 26 780 26 l 617 556 q 572 619 606 586 q 497 682 538 652 q 412 733 456 711 q 339 764 369 755 l 720 1320 l 651 1320 l 165 659 l 165 582 q 236 644 193 616 q 331 675 279 673 q 438 643 382 677 q 547 521 494 609 "},"L":{"ha":886,"x_min":43,"x_max":842,"o":"m 113 1215 l 43 1215 q 50 1098 49 1173 q 50 929 50 1023 q 50 730 50 836 q 52 522 49 625 q 63 324 56 419 q 87 157 71 229 q 129 41 103 84 q 194 -1 155 -1 q 208 -1 199 -1 q 226 -1 217 -1 q 242 -1 235 -1 q 251 0 250 0 q 355 11 294 4 q 480 25 415 18 q 610 40 545 33 q 726 54 674 47 q 809 64 777 60 q 842 69 841 69 l 836 129 q 504 90 666 110 q 182 69 342 69 l 113 1215 "},"M":{"ha":868,"x_min":64,"x_max":833,"o":"m 416 486 l 625 1006 l 764 35 q 773 18 765 24 q 791 9 781 11 q 813 13 802 7 q 833 35 825 19 q 761 518 789 321 q 715 842 732 715 q 688 1039 697 970 q 676 1141 680 1108 q 673 1179 673 1173 q 671 1184 673 1184 q 650 1181 662 1184 q 625 1174 637 1179 q 604 1162 613 1169 q 590 1146 594 1156 l 382 625 l 138 1176 q 125 1192 133 1188 q 109 1194 118 1195 q 87 1192 99 1194 q 64 1190 76 1190 q 69 1044 66 1134 q 74 845 72 954 q 78 618 76 736 q 83 389 80 500 q 88 182 85 278 q 95 23 91 87 l 174 35 l 174 833 l 347 486 l 416 486 "},"N":{"ha":964,"x_min":22,"x_max":930,"o":"m 130 1077 l 130 1077 l 825 0 l 878 4 q 878 434 876 250 q 886 753 880 618 q 897 977 891 887 q 910 1124 903 1067 q 922 1210 917 1181 q 929 1251 926 1238 q 930 1259 929 1252 q 930 1270 930 1267 q 929 1284 930 1278 q 920 1293 928 1291 q 899 1294 913 1295 q 860 1284 884 1293 q 821 1127 834 1214 q 802 943 807 1040 q 799 744 798 846 q 804 541 800 642 q 811 344 807 439 q 817 165 815 248 l 165 1215 q 128 1242 156 1232 q 77 1252 100 1252 q 40 1237 56 1252 q 24 1200 24 1222 q 24 1107 22 1168 q 30 968 26 1047 q 40 798 34 890 q 54 610 46 705 q 68 423 61 515 q 82 251 76 331 q 93 109 88 171 q 99 14 98 47 l 165 9 q 160 248 165 129 q 147 486 155 368 q 134 722 140 604 q 129 956 129 840 q 129 980 129 963 q 129 1016 129 997 q 130 1053 129 1035 q 130 1077 130 1070 "},"O":{"ha":799,"x_min":33,"x_max":741,"o":"m 33 601 q 37 475 33 543 q 56 340 42 407 q 94 212 69 274 q 161 103 119 151 q 260 27 202 56 q 400 -1 319 -1 q 545 56 484 12 q 646 167 605 99 q 709 324 686 235 q 741 521 732 414 q 734 637 741 570 q 713 779 728 705 q 675 924 699 852 q 615 1054 651 997 q 530 1146 579 1111 q 418 1181 481 1181 q 289 1155 346 1181 q 189 1084 232 1128 q 117 981 146 1040 q 68 858 87 922 q 41 727 49 793 q 33 601 33 661 m 102 601 q 110 699 102 644 q 134 811 118 754 q 176 922 151 868 q 237 1019 202 977 q 318 1088 273 1062 q 419 1114 363 1114 q 513 1081 473 1114 q 580 996 552 1048 q 625 877 608 943 q 652 745 643 811 q 665 620 662 680 q 669 521 669 560 q 640 340 658 420 q 588 205 623 260 q 497 121 553 149 q 355 100 441 94 q 252 125 294 100 q 182 191 210 151 q 138 285 153 232 q 114 393 122 338 q 104 503 106 449 q 102 601 102 557 "},"P":{"ha":703,"x_min":34,"x_max":701,"o":"m 34 994 q 34 981 34 990 q 34 962 34 971 q 35 946 34 954 q 35 937 35 939 q 52 779 42 871 q 73 587 62 686 q 96 389 84 487 q 117 212 107 290 q 132 85 126 134 q 138 35 138 37 l 174 0 q 207 26 203 9 q 210 64 210 43 q 205 197 210 130 q 193 330 199 263 q 182 463 187 396 q 176 595 176 529 q 345 620 258 595 q 507 692 433 644 q 633 810 582 741 q 694 972 685 880 q 681 1078 701 1032 q 623 1155 661 1124 q 535 1201 585 1185 q 435 1217 486 1217 q 318 1204 387 1217 q 186 1164 250 1191 q 79 1095 123 1138 q 34 994 34 1053 m 136 929 q 162 1027 136 986 q 231 1096 189 1069 q 326 1136 273 1123 q 433 1149 380 1149 q 499 1138 465 1149 q 562 1107 533 1127 q 608 1057 590 1086 q 627 990 627 1027 q 577 862 627 920 q 456 762 528 804 q 308 693 385 719 q 174 659 231 667 q 154 732 161 700 q 142 796 146 765 q 137 859 138 827 q 136 929 136 891 "},"Q":{"ha":972,"x_min":45,"x_max":951,"o":"m 707 1 l 811 -172 l 887 -172 q 885 -155 887 -168 q 880 -137 883 -141 q 861 -96 875 -125 q 830 -33 846 -66 q 798 30 814 0 q 776 71 783 60 q 855 171 822 121 q 910 274 888 221 q 941 385 932 327 q 951 510 951 444 q 937 603 951 541 q 897 740 922 665 q 834 893 871 815 q 753 1036 798 971 q 658 1141 709 1100 q 552 1183 606 1183 q 404 1145 472 1183 q 279 1044 336 1107 q 179 902 222 982 q 106 738 136 822 q 60 574 76 654 q 45 430 45 494 q 71 255 45 328 q 144 132 98 182 q 254 54 191 83 q 391 11 317 24 q 546 -4 465 -3 q 707 1 627 -5 m 115 431 q 144 650 115 540 q 231 853 174 760 q 374 1016 289 947 q 568 1112 458 1085 q 609 1080 581 1105 q 672 1012 637 1054 q 744 914 707 970 q 812 793 781 859 q 862 656 842 728 q 882 507 882 583 q 874 416 882 463 q 850 325 867 369 q 806 242 833 281 q 742 175 780 203 l 533 453 l 472 453 q 498 372 472 410 q 556 296 525 335 q 614 216 587 258 q 640 122 640 174 q 620 86 640 98 q 573 71 600 75 q 521 67 547 66 q 483 68 495 68 q 338 94 406 68 q 222 167 271 119 q 144 281 172 214 q 115 431 115 349 "},"R":{"ha":937,"x_min":-30,"x_max":838,"o":"m 769 -3 l 838 -3 q 810 115 819 57 q 790 228 800 172 q 763 337 780 283 q 713 444 746 391 q 628 551 681 498 q 491 656 575 604 q 566 739 528 694 q 635 831 604 783 q 686 934 666 880 q 705 1043 705 987 q 686 1141 705 1105 q 632 1194 666 1177 q 553 1215 598 1211 q 457 1219 509 1219 q 374 1208 423 1219 q 271 1178 326 1198 q 163 1130 217 1158 q 66 1066 110 1101 q -3 989 23 1031 q -30 901 -30 947 q -22 880 -30 892 q -3 857 -14 868 q 20 838 8 846 q 41 830 33 830 q 47 870 42 848 q 63 913 53 892 q 89 950 73 935 q 127 970 104 966 l 127 66 q 138 51 127 58 q 163 37 149 43 q 192 28 178 31 q 214 24 206 24 l 214 483 q 241 517 214 503 q 304 540 267 532 q 378 552 340 548 q 439 556 416 556 q 544 524 499 556 q 623 439 589 491 q 681 324 656 388 q 722 198 705 260 q 750 82 739 136 q 769 -3 761 28 m 465 1147 q 530 1143 499 1147 q 585 1126 562 1139 q 621 1088 608 1112 q 635 1023 635 1063 q 615 935 635 983 q 563 838 595 887 q 487 742 530 788 q 397 659 444 696 q 304 601 351 623 q 214 579 256 579 l 214 1039 q 229 1081 214 1063 q 269 1111 244 1099 q 321 1131 293 1123 q 378 1141 350 1138 q 430 1146 407 1145 q 465 1147 453 1147 "},"S":{"ha":886,"x_min":24,"x_max":829,"o":"m 96 138 q 176 66 122 95 q 291 22 229 38 q 413 2 353 7 q 513 0 473 -3 q 650 39 590 7 q 749 120 709 71 q 808 233 788 170 q 829 365 829 296 q 827 411 829 381 q 819 475 825 441 q 802 546 812 510 q 777 611 792 582 q 739 659 761 640 q 686 678 716 678 l 199 678 q 155 691 171 678 q 132 723 140 704 q 124 763 125 742 q 123 802 123 784 q 146 889 123 846 q 203 966 168 932 q 283 1022 239 1001 q 372 1043 327 1043 q 463 1019 423 1043 q 539 968 503 996 q 611 916 575 940 q 692 892 647 892 q 661 994 692 952 q 584 1063 631 1036 q 482 1101 537 1089 q 377 1114 427 1114 q 252 1086 315 1114 q 139 1011 190 1058 q 56 904 88 964 q 24 779 24 844 q 54 685 26 726 q 152 621 81 644 q 343 593 222 597 q 651 609 464 589 q 701 577 681 609 q 734 504 722 545 q 753 422 747 463 q 758 365 758 382 q 738 256 758 309 q 681 161 718 202 q 593 94 644 119 q 479 68 541 68 q 423 72 456 68 q 356 83 391 76 q 287 97 321 90 q 226 113 252 104 q 182 127 199 121 q 165 138 165 134 q 124 165 142 171 q 96 138 106 159 "},"T":{"ha":694,"x_min":5,"x_max":746,"o":"m 5 982 l 308 1006 q 312 981 309 1015 q 319 884 315 947 q 328 739 323 822 q 338 566 332 656 q 349 385 343 476 q 361 217 355 294 q 372 82 366 140 q 382 0 377 24 q 407 -6 392 -4 q 435 -7 422 -8 q 458 1 449 -5 q 468 23 468 8 q 458 263 468 138 q 438 515 449 388 q 420 768 427 643 q 416 1006 412 892 l 746 1043 q 730 1115 746 1099 q 670 1131 713 1131 q 646 1131 665 1131 q 608 1131 628 1131 q 572 1131 589 1131 q 555 1130 556 1130 q 453 1120 509 1126 q 340 1109 397 1115 q 229 1099 283 1104 q 132 1088 175 1093 q 63 1081 90 1084 q 35 1077 37 1078 l 5 982 "},"U":{"ha":937,"x_min":39,"x_max":899,"o":"m 720 452 l 720 452 l 825 35 l 899 35 q 897 63 899 46 q 886 122 894 80 q 865 239 878 164 q 830 441 852 315 q 779 753 808 567 q 708 1203 749 940 l 618 1138 q 641 1023 631 1073 q 659 926 651 972 q 671 831 667 879 q 675 722 675 783 q 668 610 675 674 q 644 478 661 547 q 602 342 628 410 q 538 222 575 275 q 454 137 502 170 q 345 104 406 104 q 257 174 302 114 q 178 347 212 233 q 128 632 144 461 q 132 1035 113 803 l 61 1042 q 41 777 39 911 q 62 519 42 642 q 119 293 83 396 q 204 122 155 190 q 313 29 254 54 q 439 37 373 4 q 577 170 506 71 q 720 452 648 270 "},"V":{"ha":956,"x_min":26,"x_max":917,"o":"m 26 1180 l 677 -11 l 720 35 l 917 1284 l 860 1284 l 661 209 l 80 1234 l 26 1180 "},"W":{"ha":1111,"x_min":26,"x_max":1072,"o":"m 530 651 q 644 475 587 564 q 762 300 701 385 q 888 138 822 214 q 1034 0 955 61 q 1040 473 1036 275 q 1048 809 1044 671 q 1057 1033 1053 947 q 1064 1171 1061 1119 q 1069 1251 1067 1223 q 1072 1299 1072 1279 q 1041 1300 1054 1299 q 1019 1299 1028 1301 q 1004 1291 1010 1297 q 996 1271 998 1284 q 966 1097 977 1192 q 951 900 955 1002 q 947 694 947 798 q 951 494 948 590 q 958 316 955 399 q 964 174 962 233 q 941 192 956 178 q 909 222 925 206 q 878 254 892 239 q 860 278 864 270 q 819 339 845 297 q 762 434 793 381 q 696 546 731 487 q 630 656 662 605 q 572 747 598 708 q 530 800 545 785 q 498 793 513 800 q 477 764 484 785 l 339 312 l 130 1251 q 109 1310 121 1295 q 61 1325 98 1325 q 44 1323 57 1325 q 26 1320 31 1321 l 304 69 q 326 30 315 35 q 346 35 336 24 q 362 66 355 46 q 373 104 369 87 q 391 166 378 123 q 420 263 404 209 q 453 377 435 317 q 486 491 471 437 q 513 588 502 545 q 530 651 525 631 "},"X":{"ha":886,"x_min":33,"x_max":867,"o":"m 380 624 l 136 -175 l 189 -228 l 431 543 l 796 34 q 840 41 825 35 q 861 51 854 46 q 867 60 867 56 q 865 68 867 65 q 780 210 830 137 q 675 354 730 282 q 570 494 621 426 q 483 624 518 563 q 489 710 476 663 q 526 808 502 757 q 580 909 549 859 q 638 1005 610 959 q 686 1088 666 1051 q 708 1150 705 1126 q 692 1183 711 1175 q 623 1179 673 1192 l 414 728 q 382 777 403 745 q 334 851 361 810 q 276 938 307 892 q 218 1024 245 983 q 168 1097 190 1065 q 136 1145 146 1130 q 88 1181 115 1172 q 33 1179 61 1190 l 380 624 "},"Y":{"ha":822,"x_min":8,"x_max":811,"o":"m 529 590 l 529 590 l 529 -18 q 579 -17 562 -18 q 606 -11 597 -16 q 618 5 616 -5 q 624 34 621 15 q 616 154 617 80 q 621 319 616 228 q 637 513 627 410 q 661 722 647 617 q 691 928 674 826 q 726 1119 708 1031 q 766 1277 745 1207 q 807 1389 787 1347 q 806 1406 811 1398 q 791 1417 800 1413 q 771 1423 781 1421 q 755 1426 761 1426 q 747 1426 753 1426 q 738 1424 741 1426 q 694 1328 713 1383 q 659 1208 674 1272 q 630 1074 643 1143 q 606 937 617 1004 q 585 807 595 869 q 564 694 575 745 q 467 804 509 753 q 391 905 426 856 q 322 1004 355 955 q 250 1106 289 1053 q 161 1220 210 1160 q 43 1354 111 1280 l 8 1320 q 60 1220 23 1279 q 144 1093 96 1161 q 248 954 193 1025 q 357 814 304 882 q 455 688 410 746 q 529 590 500 629 "},"Z":{"ha":1190,"x_min":26,"x_max":1138,"o":"m 269 50 q 277 26 269 35 q 299 10 286 16 q 328 1 312 4 q 355 -1 343 -1 q 551 18 454 -1 q 745 60 648 37 q 939 102 841 83 q 1138 121 1036 121 l 1138 191 q 960 177 1046 191 q 788 146 873 163 q 617 116 703 130 q 444 102 532 102 q 430 102 439 102 q 409 102 420 102 q 387 104 397 103 q 373 104 377 104 q 408 245 385 174 q 460 385 431 316 q 524 521 490 454 q 594 647 559 587 q 653 657 618 654 q 724 664 688 661 q 793 672 760 667 q 848 688 826 677 q 880 717 871 699 q 875 764 888 735 l 636 764 l 860 1251 q 859 1272 867 1264 q 838 1282 850 1279 q 812 1286 825 1286 q 795 1286 799 1286 q 774 1285 789 1286 q 755 1284 758 1284 q 632 1272 704 1279 q 484 1258 560 1265 q 331 1243 407 1251 q 195 1230 255 1236 q 98 1219 136 1223 q 61 1215 61 1215 l 26 1180 q 53 1148 37 1152 q 91 1145 69 1145 q 231 1150 161 1145 q 371 1163 301 1156 q 511 1176 441 1171 q 651 1181 581 1181 q 672 1181 656 1181 q 704 1181 688 1181 q 735 1180 720 1180 q 755 1180 750 1180 l 506 755 l 197 712 l 170 628 l 458 647 l 270 69 q 269 60 269 68 q 269 50 269 53 "},"[":{"ha":538,"x_min":54,"x_max":475,"o":"m 92 -130 q 118 -163 102 -160 q 157 -167 134 -167 q 241 -162 194 -167 q 334 -151 289 -157 q 418 -139 380 -145 q 473 -130 456 -133 q 475 -121 475 -127 q 475 -113 475 -115 q 467 -79 475 -98 q 439 -61 460 -61 l 161 -61 q 138 76 146 -5 q 127 255 130 157 q 127 460 125 353 q 134 675 129 567 q 144 884 138 783 q 155 1073 149 986 q 164 1224 160 1160 q 170 1322 168 1289 l 412 1322 q 408 1341 410 1332 q 405 1358 406 1350 q 401 1374 404 1367 q 384 1400 395 1392 q 359 1410 373 1408 q 331 1411 346 1412 q 301 1411 316 1411 q 210 1409 254 1411 q 131 1392 165 1407 q 75 1346 96 1378 q 54 1255 54 1314 l 54 1234 q 58 1135 56 1203 q 63 974 61 1066 q 68 773 65 882 q 73 552 71 665 q 79 331 76 439 q 83 130 81 222 q 87 -31 85 38 q 92 -130 90 -99 "},"\\":{"ha":817,"x_min":-14,"x_max":772,"o":"m 77 1180 l -14 1180 l 738 0 l 772 69 q 471 579 598 372 q 259 917 345 787 q 130 1108 174 1047 q 77 1180 85 1169 "},"]":{"ha":625,"x_min":15,"x_max":559,"o":"m 312 -43 l 312 -43 l 312 -113 q 435 -105 387 -109 q 511 -87 483 -102 q 549 -39 538 -72 q 559 58 559 -5 q 559 85 559 68 q 558 119 559 102 q 557 149 557 136 q 556 165 556 163 q 547 256 553 194 q 533 404 541 319 q 515 589 525 488 q 496 793 506 690 q 477 998 487 897 q 459 1183 468 1099 q 444 1331 450 1268 q 431 1421 437 1393 q 352 1438 387 1431 q 286 1449 317 1444 q 222 1455 254 1453 q 152 1457 190 1457 q 79 1454 111 1457 q 15 1421 47 1451 q 65 1394 34 1405 q 134 1374 96 1382 q 210 1362 171 1366 q 280 1355 248 1358 q 334 1352 312 1352 q 362 1351 357 1351 l 397 1248 q 403 1204 399 1244 q 412 1100 407 1164 q 422 954 416 1036 q 435 783 429 872 q 450 602 442 693 q 463 427 457 510 q 475 276 469 345 q 486 165 481 208 q 486 148 486 161 q 488 118 487 134 q 489 86 488 102 q 490 62 490 71 q 489 43 490 54 q 488 20 488 31 q 486 0 487 8 q 486 -8 486 -8 q 454 -28 477 -19 q 402 -42 430 -37 q 349 -48 374 -47 q 312 -43 324 -49 "},"^":{"ha":538,"x_min":42,"x_max":479,"o":"m 279 1223 q 323 1158 308 1181 q 349 1114 338 1134 q 374 1069 361 1093 q 411 1005 387 1046 q 437 1016 425 1013 q 458 1021 449 1019 q 473 1029 468 1024 q 479 1046 479 1034 q 430 1133 452 1089 q 387 1217 408 1176 q 340 1297 365 1259 q 283 1367 316 1335 l 42 1039 l 95 1010 q 142 1067 119 1042 q 186 1116 164 1092 q 232 1166 209 1141 q 279 1223 255 1192 "},"_":{"ha":815,"x_min":57,"x_max":730,"o":"m 77 99 l 57 47 q 149 31 91 35 q 275 26 206 27 q 416 29 343 26 q 551 35 488 33 q 663 38 614 37 q 730 35 711 39 l 730 104 l 77 99 "},"a":{"ha":625,"x_min":34,"x_max":593,"o":"m 34 156 q 52 90 34 119 q 97 39 69 60 q 159 8 125 19 q 225 -3 193 -3 q 288 -1 250 -3 q 367 4 326 0 q 450 16 408 8 q 523 35 491 23 q 574 64 555 47 q 590 104 593 81 q 571 404 583 282 q 543 606 559 526 q 507 730 528 685 q 463 796 487 774 q 410 825 438 818 q 349 837 381 831 q 273 831 317 837 q 190 810 229 826 q 123 764 151 793 q 95 689 95 735 q 164 701 132 689 q 229 728 197 713 q 295 754 262 742 q 365 766 328 766 q 444 693 419 742 q 477 590 469 644 q 485 484 486 536 q 487 400 484 433 q 487 376 487 393 q 487 338 487 358 q 486 302 487 319 q 486 278 486 285 q 427 320 454 305 q 370 342 399 335 q 309 351 340 350 q 240 353 277 353 q 91 306 148 353 q 34 156 34 259 m 270 282 q 338 279 308 282 q 394 261 369 275 q 441 218 419 247 q 486 138 463 190 q 363 70 427 87 q 245 61 300 53 q 154 95 191 69 q 112 154 117 121 q 143 222 107 187 q 270 282 179 258 "},"b":{"ha":678,"x_min":26,"x_max":629,"o":"m 96 1180 l 26 1180 l 61 35 l 118 23 q 127 101 121 45 q 140 220 133 157 q 155 339 148 283 q 165 416 161 395 q 189 475 172 444 q 229 532 205 506 q 281 576 252 559 q 339 594 309 594 q 356 593 343 594 q 373 590 369 591 q 470 535 434 563 q 525 476 506 507 q 550 407 544 445 q 556 320 556 369 q 536 218 556 264 q 481 137 517 171 q 397 85 446 103 q 289 66 349 66 q 224 71 252 66 q 165 104 197 76 l 165 20 q 341 18 258 12 q 488 56 425 24 q 589 149 551 88 q 629 312 627 210 q 608 434 629 372 q 549 547 587 496 q 458 630 511 598 q 338 662 404 662 q 281 654 307 662 q 233 633 256 647 q 184 600 209 618 q 130 556 160 581 q 132 710 134 628 q 125 875 130 792 q 111 1036 119 958 q 96 1180 103 1115 "},"c":{"ha":678,"x_min":34,"x_max":633,"o":"m 34 309 q 55 190 34 247 q 114 90 76 133 q 203 22 152 47 q 316 -4 255 -4 q 410 7 355 -4 q 515 40 465 18 q 599 97 564 62 q 633 179 633 132 q 551 161 590 179 q 474 123 513 144 q 396 85 435 103 q 313 68 357 68 q 216 83 255 57 q 152 153 176 110 q 117 250 127 197 q 103 349 106 304 q 123 449 103 389 q 176 565 142 509 q 253 661 209 621 q 347 700 297 700 q 401 666 381 700 q 431 589 420 632 q 446 505 442 545 q 452 452 450 464 l 498 452 q 494 507 494 473 q 494 580 495 541 q 489 656 494 618 q 471 722 484 693 q 432 764 457 750 q 365 772 407 779 q 223 725 285 772 q 119 608 161 678 q 56 458 77 538 q 34 309 34 377 "},"d":{"ha":604,"x_min":5,"x_max":568,"o":"m 5 263 q 76 68 5 140 q 267 -3 146 -3 q 349 -1 305 -3 q 433 10 392 0 q 509 42 475 20 q 564 104 544 64 q 568 202 567 138 q 567 349 568 266 q 564 529 566 433 q 559 724 562 625 q 555 920 557 823 q 553 1099 553 1016 q 553 1246 552 1183 q 556 1344 553 1310 q 557 1353 556 1345 q 557 1364 557 1360 q 546 1394 557 1390 q 486 1379 534 1398 l 495 452 q 440 513 467 487 q 385 558 414 540 q 321 585 355 576 q 244 594 288 594 q 143 561 187 594 q 68 478 99 528 q 22 370 38 429 q 5 263 5 312 m 77 312 q 94 387 77 349 q 136 456 110 425 q 197 507 163 487 q 270 526 232 526 q 370 488 327 526 q 441 394 412 449 q 483 278 469 339 q 496 171 496 217 q 469 109 496 130 q 401 77 441 87 q 319 67 362 68 q 244 66 275 66 q 161 87 194 66 q 111 143 129 109 q 85 222 92 178 q 77 312 77 266 "},"e":{"ha":609,"x_min":42,"x_max":553,"o":"m 47 426 q 43 320 42 374 q 52 215 43 266 q 79 120 61 164 q 127 45 98 76 q 197 2 156 15 q 296 0 239 -11 q 334 4 305 0 q 397 14 363 8 q 460 25 430 19 q 505 35 491 31 q 514 43 507 37 q 528 57 521 49 q 541 74 536 65 q 547 91 547 83 q 477 87 519 91 q 389 84 435 84 q 294 90 342 84 q 208 111 245 95 q 145 159 170 127 q 121 241 121 190 q 121 272 121 251 q 123 319 122 293 q 127 374 125 346 q 134 425 130 401 q 144 465 138 449 q 156 481 149 480 l 537 552 q 553 600 553 572 q 539 655 552 627 q 504 710 526 684 q 454 758 481 736 q 395 791 426 779 q 335 803 365 803 q 227 764 279 803 q 135 669 175 726 q 71 546 95 612 q 47 426 47 480 m 309 734 q 421 708 388 726 q 455 669 454 690 q 429 627 456 648 q 360 591 401 606 q 268 568 319 575 q 170 567 217 560 q 180 617 165 587 q 218 673 195 647 q 267 718 241 700 q 309 734 293 735 "},"f":{"ha":675,"x_min":18,"x_max":894,"o":"m 236 9 q 239 -4 236 -1 q 249 -6 243 -7 q 263 -3 255 -5 q 279 -1 271 -1 q 288 -1 279 -1 q 304 -1 296 -1 q 321 -1 313 -1 q 331 -1 330 -1 q 350 115 347 54 q 351 245 353 176 q 345 391 349 315 q 345 553 342 468 q 381 557 354 555 q 440 565 408 560 q 503 576 472 570 q 553 590 534 582 q 580 618 581 601 q 574 659 579 635 l 350 656 q 334 949 334 822 q 348 1170 335 1076 q 384 1329 361 1264 q 437 1434 407 1393 q 502 1498 467 1476 q 574 1529 537 1520 q 646 1510 614 1529 q 703 1461 677 1491 q 750 1399 728 1432 q 793 1337 772 1366 q 840 1289 815 1308 q 894 1270 864 1270 q 866 1396 894 1336 q 791 1501 838 1457 q 684 1573 745 1546 q 557 1599 624 1599 q 403 1534 472 1586 q 291 1372 334 1482 q 238 1080 248 1261 q 262 625 228 898 l 18 521 q 24 496 23 509 q 27 473 26 484 q 31 456 28 463 q 43 449 34 449 q 95 460 66 449 q 152 484 123 471 q 208 509 180 498 q 259 519 236 519 q 258 429 256 472 q 261 332 260 387 q 257 201 262 277 q 236 9 252 125 "},"g":{"ha":643,"x_min":-221,"x_max":590,"o":"m -221 -429 q -191 -524 -221 -488 q -113 -578 -160 -559 q -11 -603 -66 -597 q 96 -609 45 -609 q 300 -566 216 -605 q 442 -464 385 -528 q 531 -316 499 -400 q 576 -136 563 -232 q 590 64 590 -39 q 583 269 590 167 q 564 466 575 370 q 547 642 553 562 q 512 711 534 684 q 460 754 490 738 q 395 777 431 770 q 321 783 359 783 q 219 758 262 783 q 147 690 176 732 q 100 595 118 648 q 73 486 83 541 q 61 376 64 430 q 58 278 58 321 q 58 191 58 232 q 66 117 57 149 q 100 67 75 85 q 179 49 126 49 q 271 68 229 49 q 348 119 312 88 q 415 186 384 149 q 477 259 446 224 q 513 96 502 184 q 517 -80 524 8 q 484 -250 510 -168 q 410 -396 458 -332 q 289 -499 362 -460 q 114 -540 216 -538 q -22 -524 47 -540 q -148 -469 -91 -507 q -162 -460 -161 -473 q -157 -427 -163 -448 q -142 -380 -151 -406 q -129 -330 -133 -354 q -205 -355 -189 -330 q -221 -429 -221 -380 m 127 278 q 130 352 127 308 q 138 444 132 396 q 158 540 145 492 q 193 626 171 587 q 246 688 214 665 q 323 712 278 712 q 388 695 361 712 q 431 651 415 678 q 451 590 446 624 q 450 521 456 556 q 442 446 450 488 q 418 358 434 403 q 380 271 403 313 q 328 194 358 228 q 262 140 298 160 q 182 119 225 119 q 142 139 155 121 q 127 182 130 157 q 125 233 123 208 q 127 278 127 259 "},"h":{"ha":624,"x_min":49,"x_max":587,"o":"m 109 1241 l 49 1251 q 54 1124 52 1200 q 59 958 57 1048 q 63 768 61 868 q 66 570 65 669 q 66 380 66 472 q 63 213 65 288 q 58 85 61 138 q 50 11 56 31 l 122 0 q 121 158 123 83 q 127 305 119 233 q 157 450 134 377 q 232 600 180 522 q 340 670 290 662 q 427 654 391 678 q 485 583 464 629 q 505 486 506 536 q 508 435 507 471 q 508 352 509 399 q 507 253 507 305 q 505 153 506 201 q 502 70 503 106 q 500 19 500 34 l 567 9 q 576 96 570 33 q 585 240 582 159 q 581 412 587 321 q 551 578 574 502 q 484 706 528 654 q 365 765 439 758 q 294 754 327 768 q 235 721 262 741 q 188 680 208 701 q 156 647 168 659 l 109 1241 "},"i":{"ha":262,"x_min":16,"x_max":225,"o":"m 121 703 l 148 -4 q 178 -1 164 0 q 201 -2 191 -1 q 217 0 212 -3 q 222 14 222 3 q 222 180 225 95 q 212 351 218 266 q 197 521 205 437 q 184 685 190 605 q 159 704 174 705 q 121 703 144 703 m 16 1025 q 33 961 16 989 q 85 933 49 933 q 165 966 133 933 q 197 1044 197 1000 q 184 1082 197 1069 q 153 1103 172 1096 q 111 1111 133 1109 q 68 1112 88 1112 q 43 1103 53 1112 q 26 1082 33 1095 q 18 1053 20 1069 q 16 1025 16 1038 m 122 1016 q 129 1007 129 1016 q 122 998 129 998 q 115 1007 115 998 q 122 1016 115 1016 "},"j":{"ha":382,"x_min":-406,"x_max":334,"o":"m -406 -570 q -364 -654 -406 -625 q -264 -696 -323 -682 q -143 -711 -206 -709 q -35 -712 -80 -712 q 129 -674 60 -712 q 243 -574 198 -636 q 311 -433 289 -513 q 334 -267 334 -353 q 317 -18 334 -144 q 273 233 300 109 q 216 479 247 358 q 155 713 184 600 q 125 728 142 723 q 95 726 109 734 q 76 691 81 718 q 84 610 71 665 q 149 383 117 491 q 207 172 182 275 q 248 -37 232 68 q 263 -252 263 -141 q 244 -402 263 -331 q 184 -527 225 -473 q 81 -612 144 -581 q -71 -644 18 -644 q -135 -642 -91 -644 q -222 -632 -179 -640 q -299 -610 -266 -624 q -332 -571 -332 -595 q -368 -532 -354 -543 q -391 -524 -382 -522 q -402 -538 -399 -526 q -406 -570 -406 -551 m 1 1171 q 1 1112 1 1143 q 7 1053 0 1080 q 31 1007 14 1025 q 84 989 49 989 q 157 1061 157 989 q 142 1109 157 1089 q 104 1143 127 1130 q 53 1164 80 1157 q 1 1171 26 1171 m 84 1069 q 91 1061 91 1069 q 84 1053 91 1053 q 77 1061 77 1053 q 84 1069 77 1069 "},"ŋ":{"ha":191,"x_min":9,"x_max":161,"o":"m 88 35 q 119 2 99 12 q 161 -8 138 -8 q 161 27 161 1 q 159 83 160 53 q 158 138 159 113 q 157 174 157 164 q 150 302 155 216 q 138 498 145 389 q 124 729 132 608 q 110 960 117 850 q 97 1156 103 1069 q 88 1284 91 1242 q 56 1318 76 1309 q 9 1328 35 1328 q 10 1271 9 1312 q 12 1185 11 1230 q 15 1099 14 1139 q 18 1042 16 1058 q 24 925 19 1004 q 37 747 30 846 q 51 538 43 647 q 66 330 58 429 q 79 152 73 231 q 88 35 84 73 "},"k":{"ha":700,"x_min":23,"x_max":650,"o":"m 102 49 q 132 16 113 26 q 175 5 152 5 q 174 41 175 15 q 173 97 174 68 q 172 152 172 126 q 171 187 171 178 l 151 537 q 156 528 153 532 q 161 521 159 524 l 613 0 q 650 53 650 18 q 649 62 650 56 q 647 69 648 68 l 231 556 q 229 564 229 557 q 228 572 228 570 q 229 582 228 575 q 231 590 229 589 q 287 677 252 633 q 360 762 321 722 q 438 839 399 803 q 509 903 477 875 l 439 937 q 420 922 437 937 q 380 884 404 907 q 325 829 355 860 q 264 768 294 799 q 208 709 235 738 q 161 659 180 680 q 154 649 159 656 q 144 633 149 642 q 131 838 137 735 q 119 1031 125 940 q 109 1192 114 1122 q 102 1298 104 1261 q 69 1332 90 1322 q 23 1341 49 1341 q 24 1284 23 1325 q 27 1198 26 1244 q 30 1112 28 1153 q 33 1055 31 1072 q 39 939 34 1017 q 52 761 45 860 q 66 552 58 662 q 80 343 73 442 q 93 165 87 244 q 102 49 99 87 "},"l":{"ha":262,"x_min":75,"x_max":195,"o":"m 80 1405 q 79 1376 80 1397 q 77 1332 79 1355 q 75 1288 76 1309 q 75 1259 75 1267 q 80 1043 76 1168 q 88 783 84 918 q 96 514 92 647 q 104 275 100 381 q 111 104 109 170 q 115 37 114 38 l 146 -1 q 173 12 164 0 q 185 38 182 23 q 189 68 189 53 q 190 95 189 84 q 191 112 190 100 q 193 136 193 123 q 195 157 194 148 q 195 170 195 167 q 192 264 194 203 q 187 405 190 326 q 182 576 184 484 q 176 763 179 669 q 169 949 172 857 q 163 1121 165 1042 q 157 1261 160 1200 q 153 1356 155 1322 q 124 1392 142 1382 q 80 1405 106 1402 "},"m":{"ha":1016,"x_min":34,"x_max":972,"o":"m 34 705 q 34 682 34 701 q 35 659 34 663 q 47 549 39 613 q 62 415 54 484 q 77 278 69 346 q 90 157 84 210 q 100 69 96 103 q 104 35 104 35 l 174 35 q 136 275 140 163 q 147 477 132 388 q 194 630 163 567 q 262 720 225 693 q 336 736 298 747 q 404 664 374 724 q 451 492 434 604 q 463 209 468 381 l 533 222 q 528 315 525 259 q 541 435 530 372 q 569 562 551 498 q 610 679 587 627 q 659 765 632 731 q 715 803 686 799 q 774 774 745 807 q 833 659 804 742 q 843 590 837 639 q 857 477 849 541 q 872 342 864 414 q 886 208 880 271 q 897 94 892 144 q 903 23 902 45 q 943 8 929 4 q 964 28 958 12 q 971 65 970 43 q 972 104 972 87 q 964 172 970 126 q 952 277 959 218 q 938 399 945 335 q 924 521 930 463 q 911 625 917 579 q 903 694 906 671 q 860 822 890 777 q 791 880 830 867 q 709 881 753 894 q 624 836 665 868 q 549 755 583 803 q 496 651 515 707 q 457 730 486 696 q 391 787 429 765 q 312 813 354 808 q 231 803 270 818 q 162 751 193 788 q 118 651 132 713 q 82 694 107 684 q 34 705 57 705 "},"n":{"ha":732,"x_min":26,"x_max":689,"o":"m 62 9 q 74 5 64 7 q 96 3 84 4 q 117 2 107 3 q 130 0 127 1 q 145 259 132 126 q 189 507 159 392 q 269 706 220 621 q 393 822 319 791 q 510 775 465 822 q 580 656 555 728 q 614 494 605 583 q 623 322 623 406 q 619 171 624 239 q 613 71 614 103 q 611 10 606 26 q 627 -6 616 -5 q 654 1 637 -7 q 685 14 670 9 q 687 206 685 106 q 685 404 689 307 q 667 588 681 500 q 623 742 654 675 q 541 848 593 808 q 411 891 490 888 q 321 877 361 895 q 252 826 282 859 q 200 751 221 793 q 165 666 179 709 q 143 581 151 623 q 133 509 136 540 q 133 551 133 521 q 130 616 133 581 q 121 689 127 652 q 103 750 115 726 q 72 782 91 774 q 26 766 53 789 q 26 757 26 764 q 26 741 26 750 q 28 725 27 732 q 30 716 28 718 q 37 632 34 688 q 41 508 39 576 q 45 363 43 439 q 50 218 47 288 q 56 94 53 149 q 62 9 58 38 "},"o":{"ha":671,"x_min":43,"x_max":618,"o":"m 43 331 q 86 119 43 197 q 193 14 129 42 q 330 4 256 -14 q 468 75 404 22 q 574 212 532 127 q 614 406 616 297 q 600 557 618 480 q 547 698 582 635 q 462 801 511 761 q 354 841 412 841 q 254 815 298 841 q 174 747 209 789 q 115 650 140 704 q 75 539 91 595 q 51 428 58 483 q 43 331 43 373 m 111 324 q 117 401 111 357 q 137 492 123 445 q 170 587 151 540 q 218 670 190 633 q 280 729 245 707 q 358 751 315 751 q 439 723 403 751 q 499 647 475 694 q 536 538 524 600 q 547 411 549 476 q 509 254 543 324 q 429 138 476 184 q 328 75 382 92 q 227 76 274 57 q 148 155 180 95 q 111 324 115 214 "},"p":{"ha":822,"x_min":26,"x_max":761,"o":"m 96 468 q 142 171 127 323 q 158 -136 156 19 q 153 -444 160 -290 q 132 -749 145 -598 q 146 -749 134 -747 q 170 -754 157 -751 q 192 -758 182 -757 q 203 -755 202 -758 q 231 -526 217 -637 q 254 -316 244 -415 q 268 -133 263 -217 q 270 16 273 -49 q 443 37 355 9 q 602 120 530 65 q 717 253 673 175 q 760 426 761 331 q 734 564 760 499 q 660 678 708 629 q 544 755 612 727 q 392 783 476 783 q 277 762 340 783 q 157 705 213 742 q 64 616 102 667 q 26 503 26 564 q 34 484 26 492 q 53 471 42 476 q 76 465 64 467 q 96 468 88 464 m 372 682 q 495 667 437 682 q 597 618 553 651 q 666 534 640 585 q 692 412 692 483 q 648 285 680 336 q 576 199 617 233 q 486 145 534 164 q 393 116 438 126 q 308 102 347 106 q 245 95 269 98 q 237 148 243 113 q 222 227 231 183 q 205 317 214 270 q 189 407 197 363 q 174 485 180 450 q 165 537 168 519 q 177 604 159 576 q 227 647 195 631 q 297 671 258 663 q 372 682 336 680 "},"q":{"ha":625,"x_min":23,"x_max":755,"o":"m 444 174 l 444 -312 q 463 -387 444 -351 q 513 -452 483 -423 q 579 -498 543 -480 q 651 -521 616 -517 q 670 -517 655 -521 q 701 -509 685 -514 q 733 -497 718 -503 q 755 -486 749 -491 q 673 -457 719 -481 q 587 -392 627 -433 q 525 -296 548 -351 q 511 -176 502 -241 q 519 3 511 -87 q 537 183 528 94 q 555 363 547 273 q 563 543 563 453 q 546 641 563 597 q 498 715 529 685 q 427 762 468 746 q 335 779 385 779 q 241 758 283 779 q 163 702 198 736 q 102 621 129 667 q 58 526 76 575 q 32 426 41 476 q 23 332 23 376 q 35 243 23 290 q 70 157 46 197 q 130 90 94 117 q 216 64 165 64 q 278 71 250 64 q 333 92 307 79 q 386 126 359 106 q 444 174 412 146 m 95 349 q 102 402 95 368 q 124 477 110 437 q 159 559 138 518 q 205 635 179 601 q 263 690 232 669 q 331 712 294 712 q 405 688 376 712 q 451 629 434 663 q 474 555 468 594 q 480 486 480 515 q 463 372 480 433 q 412 258 445 311 q 329 172 378 206 q 217 137 279 137 q 161 161 184 137 q 123 220 137 186 q 102 290 109 254 q 95 349 95 326 "},"r":{"ha":553,"x_min":23,"x_max":528,"o":"m 23 705 q 23 682 23 699 q 24 647 23 666 q 25 612 24 628 q 26 590 26 595 q 32 491 28 548 q 39 373 35 434 q 46 252 42 312 q 54 143 50 191 q 59 65 57 95 q 61 35 61 35 l 130 35 q 115 315 109 202 q 149 498 122 429 q 217 598 175 567 q 308 635 259 629 q 408 624 357 640 q 506 581 460 608 q 513 650 528 621 q 464 697 499 680 q 378 720 429 715 q 277 715 328 724 q 182 682 227 707 q 114 618 138 658 q 106 656 111 637 q 90 690 100 675 q 62 709 79 704 q 23 705 46 715 "},"s":{"ha":712,"x_min":31,"x_max":669,"o":"m 130 146 q 156 85 130 111 q 217 40 182 58 q 289 12 252 22 q 347 0 326 1 q 456 14 400 -5 q 557 69 511 34 q 633 152 604 104 q 663 251 663 199 q 647 369 669 324 q 587 438 625 414 q 497 471 548 463 q 393 480 446 480 q 288 477 339 480 q 195 474 236 473 q 130 484 155 475 q 104 521 104 494 q 125 608 104 574 q 180 662 146 642 q 255 690 213 682 q 339 699 297 699 q 410 698 378 707 q 464 672 441 689 q 503 637 487 655 q 531 609 519 618 q 549 606 543 600 q 559 643 555 612 q 538 713 559 688 q 488 750 518 738 q 422 765 457 762 q 359 768 388 768 q 243 757 301 768 q 138 720 184 746 q 61 648 91 693 q 31 534 31 604 q 43 484 31 510 q 76 435 56 457 q 121 397 96 412 q 174 382 146 382 q 353 395 281 396 q 473 385 426 395 q 546 359 521 376 q 583 323 571 342 q 595 286 594 304 q 594 255 595 267 q 572 178 594 213 q 515 119 549 144 q 441 80 481 94 q 362 66 400 66 q 302 79 330 66 q 246 106 274 91 q 191 134 218 122 q 130 146 163 146 "},"t":{"ha":688,"x_min":23,"x_max":661,"o":"m 256 656 q 250 529 256 600 q 240 386 243 458 q 244 243 237 313 q 279 119 251 174 q 361 32 307 65 q 506 -1 415 -1 q 551 3 526 -1 q 600 17 576 7 q 640 45 623 27 q 661 88 656 62 q 484 79 551 64 q 380 135 416 94 q 335 239 345 176 q 331 373 326 301 q 353 519 336 445 q 384 659 369 594 q 428 665 397 663 q 493 669 458 667 q 559 673 528 671 q 604 674 590 674 l 604 764 l 388 755 q 385 854 381 811 q 392 928 388 897 q 397 980 396 959 q 389 1012 399 1001 q 355 1025 380 1023 q 283 1020 331 1027 q 285 943 283 967 q 287 901 286 920 q 286 854 288 882 q 279 764 285 826 l 23 746 q 32 673 30 700 q 43 647 34 647 q 93 651 64 647 q 153 658 122 655 q 212 661 184 661 q 256 656 240 662 "},"u":{"ha":829,"x_min":34,"x_max":793,"o":"m 35 701 q 75 382 47 513 q 138 169 102 251 q 218 49 175 87 q 308 6 262 11 q 401 26 354 1 q 492 94 449 50 q 570 195 534 137 q 632 316 606 254 l 716 4 l 793 4 q 787 68 793 16 q 770 193 780 119 q 749 351 761 266 q 726 514 736 435 q 708 655 716 593 q 699 746 700 718 l 590 732 q 604 589 610 670 q 574 426 598 507 q 511 273 549 345 q 427 162 472 202 q 334 123 381 122 q 247 185 288 123 q 175 380 206 247 q 132 736 144 513 q 109 742 125 743 q 75 735 92 741 q 46 720 58 730 q 35 701 34 711 "},"v":{"ha":720,"x_min":18,"x_max":722,"o":"m 18 799 l 449 -9 l 519 -9 q 583 193 555 96 q 633 385 610 289 q 677 583 656 481 q 722 799 699 684 q 714 812 722 808 q 695 819 707 817 q 669 824 684 822 q 643 833 655 826 l 472 132 l 75 856 l 18 799 "},"w":{"ha":1025,"x_min":26,"x_max":964,"o":"m 378 23 l 547 452 q 622 372 581 427 q 710 252 663 317 q 809 121 757 186 q 917 14 861 56 q 935 126 928 83 q 948 200 943 170 q 957 254 954 231 q 962 307 960 278 q 964 376 963 336 q 964 480 964 416 q 964 638 964 544 q 964 868 964 732 l 887 898 q 882 713 880 804 q 884 531 883 621 q 880 351 884 441 q 860 174 876 262 l 510 651 l 373 209 l 73 880 l 26 833 l 378 23 "},"x":{"ha":712,"x_min":18,"x_max":694,"o":"m 18 833 l 264 431 l 122 34 l 194 15 q 227 89 206 39 q 271 191 247 138 q 320 288 296 244 q 365 347 345 332 l 625 -11 l 694 23 q 645 116 684 57 q 559 239 606 175 q 468 361 513 302 q 400 452 423 419 q 399 460 399 454 q 399 469 399 467 l 575 852 l 505 903 l 331 556 l 53 868 l 18 833 "},"y":{"ha":694,"x_min":18,"x_max":663,"o":"m 388 -742 l 469 -747 l 663 806 l 574 850 l 491 179 q 452 250 480 199 q 385 365 423 300 q 302 503 346 430 q 220 640 259 575 q 151 754 182 705 q 109 822 121 803 q 82 820 106 825 q 18 780 58 815 l 469 16 q 466 -172 477 -76 q 437 -363 454 -267 q 404 -555 419 -460 q 388 -742 388 -651 "},"z":{"ha":868,"x_min":26,"x_max":817,"o":"m 199 382 l 298 382 l 170 4 q 271 0 209 0 q 403 3 332 0 q 545 9 473 5 q 675 17 616 14 q 772 22 734 20 q 817 23 811 24 l 817 84 q 555 80 684 83 q 293 84 426 77 l 397 382 l 651 400 l 647 486 l 476 472 l 636 869 q 537 862 597 868 q 410 848 477 856 q 275 832 343 841 q 153 816 208 823 q 62 804 98 808 q 26 799 27 799 l 34 732 l 513 764 l 363 472 l 193 463 l 199 382 "},"{":{"ha":538,"x_min":18,"x_max":513,"o":"m 18 416 q 113 374 77 406 q 168 300 148 343 q 199 205 189 256 q 216 100 209 153 q 235 -2 224 47 q 269 -90 245 -52 q 331 -151 292 -127 q 435 -174 370 -174 q 454 -164 445 -172 q 468 -144 463 -156 q 474 -122 473 -133 q 469 -104 475 -111 q 378 -6 411 -47 q 324 69 345 35 q 294 136 304 103 q 271 212 283 170 q 242 312 259 255 q 191 452 225 369 q 189 465 190 453 q 189 484 189 477 q 201 566 189 528 q 227 644 213 605 q 254 722 241 682 q 266 808 266 762 q 260 887 266 849 q 245 963 254 925 q 231 1038 237 1001 q 225 1115 225 1076 q 256 1199 225 1165 q 332 1255 288 1233 q 427 1286 377 1276 q 513 1295 476 1295 q 503 1327 513 1316 q 480 1345 494 1339 q 450 1354 467 1352 q 419 1356 433 1356 q 326 1337 373 1356 q 240 1286 278 1318 q 178 1212 202 1255 q 155 1120 155 1169 q 161 1048 155 1084 q 174 977 167 1012 q 186 906 180 941 q 193 833 193 871 q 173 710 193 762 q 125 612 153 658 q 68 521 98 567 q 18 416 38 475 "},"|":{"ha":262,"x_min":53,"x_max":160,"o":"m 58 1489 q 57 1462 58 1480 q 55 1428 56 1444 q 54 1396 54 1411 q 53 1379 53 1382 q 56 1197 54 1301 q 59 979 57 1093 q 64 743 61 864 q 69 509 66 623 q 75 294 72 395 q 79 117 77 193 q 83 -4 81 41 q 85 -50 84 -49 q 124 -46 110 -50 q 146 -35 138 -42 q 156 -15 153 -27 q 160 14 159 -3 q 157 216 159 102 q 155 456 156 330 q 151 715 153 583 q 147 972 149 848 q 144 1208 145 1097 q 141 1402 142 1320 q 138 1533 140 1485 q 137 1581 137 1581 q 88 1584 104 1594 q 65 1554 72 1573 q 58 1514 58 1534 q 58 1489 58 1495 "},"}":{"ha":625,"x_min":15,"x_max":600,"o":"m 373 -157 l 373 -157 l 373 -198 q 473 -182 430 -198 q 544 -136 515 -165 q 586 -65 572 -106 q 600 23 600 -24 q 592 189 595 104 q 574 353 589 273 q 530 508 560 434 q 444 642 500 582 q 442 718 437 673 q 456 817 448 762 q 471 932 464 871 q 479 1059 479 994 q 466 1162 479 1112 q 425 1251 453 1211 q 355 1314 397 1290 q 252 1337 312 1337 q 183 1330 224 1337 q 105 1305 142 1322 q 41 1261 68 1289 q 15 1194 15 1234 q 77 1200 47 1194 q 134 1214 106 1206 q 192 1228 163 1222 q 254 1234 221 1234 q 287 1224 269 1229 q 323 1201 305 1219 q 357 1146 342 1183 q 381 1041 373 1109 q 389 867 389 972 q 373 606 388 761 q 404 546 388 590 q 437 444 420 502 q 468 321 453 387 q 494 194 483 255 q 511 84 505 133 q 518 9 518 35 q 514 -49 518 -23 q 494 -95 510 -75 q 450 -130 479 -115 q 373 -157 422 -145 "},"~":{"ha":563,"x_min":77,"x_max":496,"o":"m 197 994 q 241 957 218 979 q 286 915 263 935 q 334 884 309 895 q 385 884 359 873 q 439 930 411 894 q 496 1042 467 967 q 483 1069 496 1061 q 458 1078 469 1078 q 401 985 425 1015 q 360 947 378 955 q 326 951 342 940 q 292 982 311 963 q 251 1023 274 1001 q 194 1062 228 1046 q 104 1027 132 1062 q 77 907 77 993 q 98 872 90 875 q 115 884 107 869 q 129 924 122 899 q 144 968 136 948 q 165 999 153 989 q 197 994 178 1009 "},"“":{"ha":391,"x_min":34,"x_max":347,"o":"m 240 1145 q 242 1088 240 1112 q 252 1040 244 1063 q 273 991 259 1016 q 312 937 288 967 q 322 941 316 937 q 334 951 328 945 q 343 963 339 958 q 347 972 347 968 q 342 992 347 977 q 330 1025 336 1008 q 318 1057 324 1042 q 312 1077 312 1073 q 309 1112 311 1086 q 307 1167 308 1138 q 304 1222 305 1196 q 302 1259 302 1248 q 266 1246 278 1259 q 248 1217 254 1234 q 241 1179 241 1199 q 240 1145 240 1160 m 34 1093 q 62 1016 34 1046 q 138 986 90 986 l 138 1293 q 84 1270 104 1293 q 52 1216 64 1248 q 37 1150 41 1184 q 34 1093 34 1116 "},"‘":{"ha":165,"x_min":26,"x_max":134,"o":"m 26 1251 q 31 1200 26 1238 q 47 1121 37 1162 q 69 1045 57 1080 q 96 1006 81 1010 q 122 1023 114 1010 q 132 1052 130 1036 q 134 1083 134 1067 q 133 1109 133 1099 q 120 1207 133 1160 q 61 1284 107 1255 q 40 1272 54 1284 q 26 1251 26 1259 "},"’":{"ha":165,"x_min":26,"x_max":134,"o":"m 26 1251 q 31 1200 26 1238 q 47 1121 37 1162 q 69 1045 57 1080 q 96 1006 81 1010 q 122 1023 114 1010 q 132 1052 130 1036 q 134 1083 134 1067 q 133 1109 133 1099 q 120 1207 133 1160 q 61 1284 107 1255 q 40 1272 54 1284 q 26 1251 26 1259 "},"!":{"ha":286,"x_min":23,"x_max":274,"o":"m 183 -3 q 220 7 203 -3 q 249 33 237 18 q 267 68 260 49 q 274 106 274 87 q 224 171 252 153 q 172 185 197 189 q 130 161 148 182 q 110 113 113 141 q 123 54 107 85 q 183 -3 140 23 m 199 104 q 216 87 216 100 q 199 69 216 73 q 188 73 191 66 q 184 87 184 79 q 188 100 184 95 q 199 104 191 106 m 23 1176 q 24 1164 23 1175 q 24 1143 24 1154 q 25 1121 24 1131 q 26 1111 26 1111 q 37 1012 30 1072 q 51 885 43 952 q 66 750 58 818 q 80 626 73 682 q 91 532 87 570 q 96 486 95 494 q 103 440 100 461 q 112 404 106 419 q 130 381 118 389 q 165 373 142 373 q 182 376 170 373 q 199 382 195 380 l 96 1215 q 60 1208 75 1208 q 38 1206 46 1207 q 26 1198 30 1204 q 23 1176 23 1192 "},"\"":{"ha":391,"x_min":34,"x_max":347,"o":"m 240 1145 q 242 1088 240 1112 q 252 1040 244 1063 q 273 991 259 1016 q 312 937 288 967 q 322 941 316 937 q 334 951 328 945 q 343 963 339 958 q 347 972 347 968 q 342 992 347 977 q 330 1025 336 1008 q 318 1057 324 1042 q 312 1077 312 1073 q 309 1112 311 1086 q 307 1167 308 1138 q 304 1222 305 1196 q 302 1259 302 1248 q 266 1246 278 1259 q 248 1217 254 1234 q 241 1179 241 1199 q 240 1145 240 1160 m 34 1093 q 62 1016 34 1046 q 138 986 90 986 l 138 1293 q 84 1270 104 1293 q 52 1216 64 1248 q 37 1150 41 1184 q 34 1093 34 1116 "},"”":{"ha":452,"x_min":35,"x_max":414,"o":"m 35 1146 q 41 1133 35 1143 q 52 1112 46 1123 q 64 1090 58 1100 q 69 1077 69 1080 q 77 1036 72 1065 q 89 973 83 1006 q 99 910 95 940 q 104 868 103 880 q 113 865 107 867 q 122 864 119 864 q 151 876 140 864 q 167 904 161 887 q 174 939 172 921 q 175 971 175 958 q 150 1090 175 1032 q 69 1180 125 1147 q 49 1167 62 1180 q 35 1146 35 1154 m 235 1192 q 251 1120 235 1153 q 288 1053 267 1086 q 326 983 308 1019 q 347 903 343 947 l 414 903 q 405 988 414 939 q 376 1083 396 1038 q 321 1160 355 1128 q 235 1192 286 1192 "},"#":{"ha":998,"x_min":18,"x_max":956,"o":"m 392 302 q 391 303 382 302 q 418 305 400 304 q 461 308 437 307 q 507 310 486 309 q 543 311 528 311 q 557 312 557 312 l 557 35 l 627 35 l 627 347 q 632 354 627 349 q 646 365 637 359 q 663 375 654 370 q 678 382 671 380 q 732 397 693 387 q 816 418 772 407 q 900 439 860 430 q 956 452 940 449 l 956 486 l 678 486 l 678 694 q 726 703 692 697 q 798 717 760 709 q 869 731 836 724 q 917 742 903 738 q 926 751 920 743 q 938 768 932 758 q 949 787 944 779 q 956 799 955 796 l 675 807 l 643 1042 l 591 1042 l 591 764 l 435 764 l 435 1006 q 431 1013 435 1008 q 422 1025 427 1019 q 410 1036 416 1031 q 400 1042 404 1040 q 385 1045 393 1044 q 369 1048 377 1046 q 349 1053 359 1050 l 349 730 l 18 659 l 18 625 l 281 625 q 269 588 270 613 q 268 530 267 563 q 269 458 269 496 q 262 382 270 420 q 232 374 260 382 q 167 352 203 366 q 97 319 130 338 q 53 278 64 300 l 279 278 l 279 69 q 347 49 326 52 q 376 56 369 46 q 380 89 384 66 q 374 143 377 111 q 374 215 372 175 q 392 302 376 255 m 574 686 l 574 452 q 566 444 574 449 q 547 433 557 439 q 524 422 536 427 q 505 416 513 418 q 481 414 498 415 q 446 411 465 412 q 410 408 427 410 q 388 407 393 407 q 389 522 388 471 q 407 610 391 574 q 462 667 423 647 q 574 686 500 686 "},"`":{"ha":458,"x_min":159,"x_max":358,"o":"m 210 1183 l 159 1118 q 202 1052 187 1076 q 229 1008 217 1028 q 253 964 240 987 q 290 901 266 941 q 316 910 304 907 q 338 916 328 913 q 353 923 347 918 q 358 940 358 928 q 317 1015 331 983 q 290 1072 302 1046 q 260 1124 277 1099 q 210 1183 243 1150 "},"ˆ":{"ha":538,"x_min":42,"x_max":479,"o":"m 279 1223 q 323 1158 308 1181 q 349 1114 338 1134 q 374 1069 361 1093 q 411 1005 387 1046 q 437 1016 425 1013 q 458 1021 449 1019 q 473 1029 468 1024 q 479 1046 479 1034 q 430 1133 452 1089 q 387 1217 408 1176 q 340 1297 365 1259 q 283 1367 316 1335 l 42 1039 l 95 1010 q 142 1067 119 1042 q 186 1116 164 1092 q 232 1166 209 1141 q 279 1223 255 1192 "},"´":{"ha":327,"x_min":38,"x_max":275,"o":"m 275 1119 q 236 1147 247 1133 q 220 1170 225 1162 q 210 1173 216 1177 q 188 1143 205 1168 q 136 1067 171 1118 q 38 935 102 1017 l 91 907 q 138 963 115 937 q 182 1013 160 989 q 228 1063 205 1038 q 275 1119 251 1088 "},"ˇ":{"ha":538,"x_min":33,"x_max":503,"o":"m 288 1088 q 236 1124 260 1108 q 187 1156 212 1141 q 139 1188 163 1172 q 90 1223 115 1204 l 33 1207 l 292 996 q 353 1040 327 1016 q 403 1091 380 1065 q 450 1145 426 1118 q 503 1202 473 1173 q 497 1213 503 1210 q 481 1217 491 1215 q 457 1221 471 1219 q 429 1227 444 1223 q 388 1187 401 1202 q 362 1159 374 1172 q 334 1131 350 1146 q 288 1088 319 1115 "},"˚":{"ha":435,"x_min":95,"x_max":300,"o":"m 95 751 q 100 712 95 732 q 118 675 106 692 q 151 647 130 658 q 203 636 172 636 q 248 648 229 636 q 277 676 266 659 q 294 712 289 693 q 300 746 300 731 q 267 832 300 795 q 168 869 235 869 q 130 856 144 869 q 107 824 115 842 q 97 785 99 806 q 95 751 95 765 m 132 751 q 139 808 123 789 q 177 829 155 827 q 222 812 199 830 q 250 755 244 793 q 231 711 243 732 q 202 684 218 690 q 168 690 186 677 q 132 751 149 704 "},"˜":{"ha":563,"x_min":77,"x_max":496,"o":"m 197 994 q 241 957 218 979 q 286 915 263 935 q 334 884 309 895 q 385 884 359 873 q 439 930 411 894 q 496 1042 467 967 q 483 1069 496 1061 q 458 1078 469 1078 q 401 985 425 1015 q 360 947 378 955 q 326 951 342 940 q 292 982 311 963 q 251 1023 274 1001 q 194 1062 228 1046 q 104 1027 132 1062 q 77 907 77 993 q 98 872 90 875 q 115 884 107 869 q 129 924 122 899 q 144 968 136 948 q 165 999 153 989 q 197 994 178 1009 "},"⁄":{"ha":391,"x_min":8,"x_max":355,"o":"m 286 972 l 8 35 l 62 -19 l 355 972 q 328 1012 339 1004 q 308 1015 316 1020 q 294 997 300 1010 q 286 972 289 983 "},"€":{"ha":898,"x_min":20,"x_max":869,"o":"m 138 469 q 153 304 138 388 q 205 152 167 220 q 307 41 243 84 q 471 -1 370 -1 q 542 2 500 -5 q 627 24 583 9 q 714 55 671 38 q 791 89 757 72 q 847 119 826 106 q 869 138 868 133 l 869 209 q 782 165 834 190 q 672 120 730 141 q 557 84 614 99 q 453 69 499 69 q 333 112 378 75 q 264 204 288 149 q 234 325 240 259 q 235 452 228 391 q 240 555 235 494 q 260 681 245 616 q 296 811 274 746 q 353 928 319 876 q 433 1011 387 979 q 540 1043 479 1043 q 615 1028 585 1043 q 672 996 646 1013 q 726 963 699 978 q 793 948 754 948 q 832 996 838 971 q 788 1043 826 1020 q 688 1084 750 1066 q 559 1114 627 1103 q 430 1082 488 1114 q 325 996 372 1050 q 243 875 278 943 q 184 736 208 807 q 150 595 161 665 q 138 469 138 525 m 27 422 q 31 414 30 422 q 33 396 33 406 q 33 378 33 387 q 34 370 33 370 q 113 378 65 374 q 215 385 161 382 q 323 389 269 387 q 422 391 378 391 q 492 393 465 392 q 519 395 519 393 l 519 439 q 477 452 511 449 q 395 456 444 456 q 291 452 347 456 q 182 444 235 449 q 88 433 130 438 q 27 422 46 427 m 20 613 l 20 560 l 496 578 l 496 651 q 373 647 437 651 q 247 637 309 643 q 126 625 184 632 q 20 613 68 618 "},"ﬁ":{"ha":854,"x_min":18,"x_max":894,"o":"m 236 9 q 239 -4 236 -1 q 249 -6 243 -7 q 263 -3 255 -5 q 279 -1 271 -1 q 288 -1 279 -1 q 304 -1 296 -1 q 321 -1 313 -1 q 331 -1 330 -1 q 350 115 347 54 q 351 245 353 176 q 345 391 349 315 q 345 553 342 468 q 381 557 354 555 q 440 565 408 560 q 503 576 472 570 q 553 590 534 582 q 580 618 581 601 q 574 659 579 635 l 350 656 q 334 949 334 822 q 348 1170 335 1076 q 384 1329 361 1264 q 437 1434 407 1393 q 502 1498 467 1476 q 574 1529 537 1520 q 646 1510 614 1529 q 703 1461 677 1491 q 750 1399 728 1432 q 793 1337 772 1366 q 840 1289 815 1308 q 894 1270 864 1270 q 866 1396 894 1336 q 791 1501 838 1457 q 684 1573 745 1546 q 557 1599 624 1599 q 403 1534 472 1586 q 291 1372 334 1482 q 238 1080 248 1261 q 262 625 228 898 l 18 521 q 24 496 23 509 q 27 473 26 484 q 31 456 28 463 q 43 449 34 449 q 95 460 66 449 q 152 484 123 471 q 208 509 180 498 q 259 519 236 519 q 258 429 256 472 q 261 332 260 387 q 257 201 262 277 q 236 9 252 125 m 549 690 l 576 -16 q 606 -13 593 -12 q 630 -14 620 -14 q 646 -12 640 -15 q 651 1 651 -9 q 650 168 654 83 q 640 339 647 254 q 626 509 633 425 q 613 673 618 593 q 587 692 602 693 q 549 690 572 690 m 445 1013 q 461 949 445 977 q 514 921 477 921 q 593 954 562 921 q 625 1032 625 987 q 613 1070 625 1057 q 581 1090 601 1084 q 539 1099 562 1097 q 496 1100 517 1100 q 471 1091 481 1100 q 455 1069 461 1082 q 447 1041 449 1057 q 445 1013 445 1025 m 551 1004 q 557 995 557 1004 q 551 986 557 986 q 544 995 544 986 q 551 1004 544 1004 "},"ﬂ":{"ha":807,"x_min":18,"x_max":894,"o":"m 236 9 q 239 -4 236 -1 q 249 -6 243 -7 q 263 -3 255 -5 q 279 -1 271 -1 q 288 -1 279 -1 q 304 -1 296 -1 q 321 -1 313 -1 q 331 -1 330 -1 q 350 115 347 54 q 351 245 353 176 q 345 391 349 315 q 345 553 342 468 q 381 557 354 555 q 440 565 408 560 q 503 576 472 570 q 553 590 534 582 q 580 618 581 601 q 574 659 579 635 l 350 656 q 334 949 334 822 q 348 1170 335 1076 q 384 1329 361 1264 q 437 1434 407 1393 q 502 1498 467 1476 q 574 1529 537 1520 q 646 1510 614 1529 q 703 1461 677 1491 q 750 1399 728 1432 q 793 1337 772 1366 q 840 1289 815 1308 q 894 1270 864 1270 q 866 1396 894 1336 q 791 1501 838 1457 q 684 1573 745 1546 q 557 1599 624 1599 q 403 1534 472 1586 q 291 1372 334 1482 q 238 1080 248 1261 q 262 625 228 898 l 18 521 q 24 496 23 509 q 27 473 26 484 q 31 456 28 463 q 43 449 34 449 q 95 460 66 449 q 152 484 123 471 q 208 509 180 498 q 259 519 236 519 q 258 429 256 472 q 261 332 260 387 q 257 201 262 277 q 236 9 252 125 m 533 1373 q 532 1343 533 1364 q 530 1299 532 1322 q 528 1255 529 1276 q 528 1226 528 1234 q 533 1010 529 1135 q 541 750 537 886 q 549 481 545 614 q 557 243 553 349 q 564 71 562 137 q 568 4 567 5 l 600 -34 q 626 -21 617 -33 q 638 5 635 -9 q 642 36 642 20 q 643 62 642 52 q 644 79 643 68 q 646 103 646 91 q 648 125 647 115 q 648 137 648 134 q 645 232 647 171 q 640 372 643 293 q 635 544 637 452 q 629 730 632 636 q 622 917 625 825 q 616 1088 618 1009 q 610 1229 613 1168 q 606 1324 608 1290 q 577 1360 595 1350 q 533 1373 559 1370 "},"Ł":{"ha":1000,"x_min":11,"x_max":956,"o":"m 227 1215 l 157 1215 q 163 1098 163 1173 q 164 929 164 1023 q 163 730 164 836 q 166 522 163 625 q 177 324 170 419 q 201 157 184 229 q 243 41 217 84 q 308 -1 269 -1 q 322 -1 313 -1 q 340 -1 331 -1 q 356 -1 349 -1 q 365 0 363 0 q 469 11 408 4 q 594 25 529 18 q 724 40 659 33 q 840 54 788 47 q 923 64 891 60 q 956 69 955 69 l 949 129 q 618 90 780 110 q 296 69 456 69 l 227 1215 m 46 483 l 11 449 q 38 416 22 419 q 77 412 54 412 q 98 413 84 412 q 115 414 113 414 q 224 425 159 418 q 358 439 289 431 q 492 453 427 446 q 600 464 556 460 q 632 495 623 475 q 642 538 642 515 q 612 538 633 538 q 568 536 591 537 q 524 534 545 536 q 495 533 503 533 q 334 519 414 526 q 191 504 255 511 q 87 490 127 496 q 46 483 47 484 "},"ł":{"ha":262,"x_min":-184,"x_max":446,"o":"m 80 1405 q 79 1376 80 1397 q 77 1332 79 1355 q 75 1288 76 1309 q 75 1259 75 1267 q 80 1043 76 1168 q 88 783 84 918 q 96 514 92 647 q 104 275 100 381 q 111 104 109 170 q 115 37 114 38 l 146 -1 q 173 12 164 0 q 185 38 182 23 q 189 68 189 53 q 190 95 189 84 q 191 112 190 100 q 193 136 193 123 q 195 157 194 148 q 195 170 195 167 q 192 264 194 203 q 187 405 190 326 q 182 576 184 484 q 176 763 179 669 q 169 949 172 857 q 163 1121 165 1042 q 157 1261 160 1200 q 153 1356 155 1322 q 124 1392 142 1382 q 80 1405 106 1402 m -149 416 l -184 382 q -157 349 -174 353 q -118 346 -141 346 q -97 347 -111 346 q -80 347 -83 347 q 28 358 -37 351 q 163 372 94 365 q 296 387 232 380 q 404 397 361 393 q 437 429 427 408 q 446 472 446 449 q 417 471 438 472 q 373 470 396 471 q 329 468 350 469 q 300 467 308 467 q 139 452 218 460 q -4 437 60 445 q -108 424 -68 430 q -149 416 -148 418 "},"Ž":{"ha":1190,"x_min":26,"x_max":1138,"o":"m 269 50 q 277 26 269 35 q 299 10 286 16 q 328 1 312 4 q 355 -1 343 -1 q 551 18 454 -1 q 745 60 648 37 q 939 102 841 83 q 1138 121 1036 121 l 1138 191 q 960 177 1046 191 q 788 146 873 163 q 617 116 703 130 q 444 102 532 102 q 430 102 439 102 q 409 102 420 102 q 387 104 397 103 q 373 104 377 104 q 408 245 385 174 q 460 385 431 316 q 524 521 490 454 q 594 647 559 587 q 653 657 618 654 q 724 664 688 661 q 793 672 760 667 q 848 688 826 677 q 880 717 871 699 q 875 764 888 735 l 636 764 l 860 1251 q 859 1272 867 1264 q 838 1282 850 1279 q 812 1286 825 1286 q 795 1286 799 1286 q 774 1285 789 1286 q 755 1284 758 1284 q 632 1272 704 1279 q 484 1258 560 1265 q 331 1243 407 1251 q 195 1230 255 1236 q 98 1219 136 1223 q 61 1215 61 1215 l 26 1180 q 53 1148 37 1152 q 91 1145 69 1145 q 231 1150 161 1145 q 371 1163 301 1156 q 511 1176 441 1171 q 651 1181 581 1181 q 672 1181 656 1181 q 704 1181 688 1181 q 735 1180 720 1180 q 755 1180 750 1180 l 506 755 l 197 712 l 170 628 l 458 647 l 270 69 q 269 60 269 68 q 269 50 269 53 m 590 1432 q 538 1469 563 1453 q 490 1501 514 1485 q 441 1533 465 1516 q 392 1568 418 1549 l 335 1552 l 594 1340 q 656 1385 629 1360 q 705 1436 682 1409 q 752 1490 728 1462 q 806 1546 776 1518 q 800 1557 806 1554 q 783 1562 793 1560 q 760 1566 773 1564 q 731 1572 746 1568 q 690 1531 704 1546 q 665 1503 677 1516 q 637 1475 652 1491 q 590 1432 621 1459 "},"ž":{"ha":868,"x_min":26,"x_max":817,"o":"m 199 382 l 298 382 l 170 4 q 271 0 209 0 q 403 3 332 0 q 545 9 473 5 q 675 17 616 14 q 772 22 734 20 q 817 23 811 24 l 817 84 q 555 80 684 83 q 293 84 426 77 l 397 382 l 651 400 l 647 486 l 476 472 l 636 869 q 537 862 597 868 q 410 848 477 856 q 275 832 343 841 q 153 816 208 823 q 62 804 98 808 q 26 799 27 799 l 34 732 l 513 764 l 363 472 l 193 463 l 199 382 m 397 1019 q 346 1055 370 1039 q 297 1087 321 1072 q 249 1119 273 1103 q 199 1154 225 1135 l 142 1138 l 401 926 q 463 971 437 947 q 513 1022 490 996 q 559 1076 536 1048 q 613 1133 583 1104 q 607 1143 613 1141 q 591 1148 601 1146 q 567 1152 581 1150 q 538 1158 553 1154 q 498 1118 511 1133 q 472 1090 484 1103 q 444 1061 460 1077 q 397 1019 429 1046 "},"ƒ":{"ha":675,"x_min":18,"x_max":894,"o":"m 240 -209 q 125 -216 159 -205 q 86 -244 92 -228 q 91 -274 80 -260 q 110 -288 102 -288 q 125 -288 110 -288 q 163 -287 141 -288 q 212 -286 186 -286 q 260 -286 237 -286 q 299 -284 283 -285 q 315 -283 315 -283 q 332 -186 326 -247 q 340 -52 338 -126 q 343 104 343 22 q 343 268 343 187 q 342 422 343 349 q 345 553 342 496 q 381 557 354 555 q 440 565 408 560 q 503 576 472 570 q 553 590 534 582 q 580 618 581 601 q 574 659 579 635 l 350 656 q 334 949 334 822 q 348 1170 335 1076 q 384 1329 361 1264 q 437 1434 407 1393 q 502 1498 467 1476 q 574 1529 537 1520 q 646 1510 614 1529 q 703 1461 677 1491 q 750 1399 728 1432 q 793 1337 772 1366 q 840 1289 815 1308 q 894 1270 864 1270 q 866 1396 894 1336 q 791 1501 838 1457 q 684 1573 745 1546 q 557 1599 624 1599 q 403 1534 472 1586 q 291 1372 334 1482 q 238 1080 248 1261 q 262 625 228 898 l 18 521 q 24 496 23 509 q 27 473 26 484 q 31 456 28 463 q 43 449 34 449 q 95 460 66 449 q 152 484 123 471 q 208 509 180 498 q 259 519 236 519 q 259 395 256 472 q 263 223 262 319 q 260 17 264 127 q 240 -209 256 -94 "},"Š":{"ha":886,"x_min":24,"x_max":829,"o":"m 96 138 q 176 66 122 95 q 291 22 229 38 q 413 2 353 7 q 513 0 473 -3 q 650 39 590 7 q 749 120 709 71 q 808 233 788 170 q 829 365 829 296 q 827 411 829 381 q 819 475 825 441 q 802 546 812 510 q 777 611 792 582 q 739 659 761 640 q 686 678 716 678 l 199 678 q 155 691 171 678 q 132 723 140 704 q 124 763 125 742 q 123 802 123 784 q 146 889 123 846 q 203 966 168 932 q 283 1022 239 1001 q 372 1043 327 1043 q 463 1019 423 1043 q 539 968 503 996 q 611 916 575 940 q 692 892 647 892 q 661 994 692 952 q 584 1063 631 1036 q 482 1101 537 1089 q 377 1114 427 1114 q 252 1086 315 1114 q 139 1011 190 1058 q 56 904 88 964 q 24 779 24 844 q 54 685 26 726 q 152 621 81 644 q 343 593 222 597 q 651 609 464 589 q 701 577 681 609 q 734 504 722 545 q 753 422 747 463 q 758 365 758 382 q 738 256 758 309 q 681 161 718 202 q 593 94 644 119 q 479 68 541 68 q 423 72 456 68 q 356 83 391 76 q 287 97 321 90 q 226 113 252 104 q 182 127 199 121 q 165 138 165 134 q 124 165 142 171 q 96 138 106 159 m 463 1366 q 411 1402 435 1386 q 362 1434 387 1419 q 314 1466 338 1450 q 264 1501 290 1482 l 208 1485 l 467 1274 q 528 1318 502 1294 q 578 1369 555 1343 q 625 1423 601 1396 q 678 1480 648 1451 q 672 1491 678 1488 q 656 1495 666 1493 q 632 1499 646 1497 q 604 1506 618 1501 q 563 1465 576 1480 q 537 1437 549 1450 q 509 1409 525 1424 q 463 1366 494 1393 "},"Œ":{"ha":1478,"x_min":33,"x_max":1449,"o":"m 33 601 q 37 475 33 543 q 56 340 42 407 q 94 212 69 274 q 161 103 119 151 q 260 27 202 56 q 400 -1 319 -1 q 545 56 484 12 q 646 167 605 99 q 709 324 686 235 q 741 521 732 414 q 734 637 741 570 q 713 779 728 705 q 675 924 699 852 q 615 1054 651 997 q 530 1146 579 1111 q 418 1181 481 1181 q 289 1155 346 1181 q 189 1084 232 1128 q 117 981 146 1040 q 68 858 87 922 q 41 727 49 793 q 33 601 33 661 m 102 601 q 110 699 102 644 q 134 811 118 754 q 176 922 151 868 q 237 1019 202 977 q 318 1088 273 1062 q 419 1114 363 1114 q 513 1081 473 1114 q 580 996 552 1048 q 625 877 608 943 q 652 745 643 811 q 665 620 662 680 q 669 521 669 560 q 640 340 658 420 q 588 205 623 260 q 497 121 553 149 q 355 100 441 94 q 252 125 294 100 q 182 191 210 151 q 138 285 153 232 q 114 393 122 338 q 104 503 106 449 q 102 601 102 557 m 597 1006 q 669 522 654 768 q 685 33 685 275 q 701 34 696 33 q 800 44 741 38 q 927 58 860 50 q 1063 73 994 65 q 1187 87 1131 80 q 1282 98 1244 94 q 1326 103 1320 102 q 1360 109 1339 104 q 1400 120 1381 113 q 1434 141 1420 127 q 1449 178 1449 155 q 1278 172 1363 178 q 1109 160 1194 167 q 940 148 1024 153 q 770 142 856 142 l 770 519 q 791 537 770 528 q 844 555 811 547 q 916 572 876 564 q 995 587 956 581 q 1067 597 1034 594 q 1118 601 1100 601 l 1118 667 q 1033 661 1074 667 q 951 645 991 654 q 871 629 911 636 q 789 623 831 623 q 763 623 783 623 q 736 624 743 623 q 728 680 734 642 q 715 764 722 718 q 705 857 709 810 q 700 941 700 905 q 703 980 700 963 q 736 1006 707 997 q 792 1019 754 1010 q 878 1038 830 1028 q 979 1060 926 1048 q 1080 1082 1032 1072 q 1166 1100 1127 1092 q 1222 1111 1204 1108 q 1262 1109 1236 1114 q 1313 1108 1289 1105 q 1353 1126 1337 1111 q 1362 1180 1369 1141 q 1344 1181 1356 1180 q 1318 1182 1332 1181 q 1291 1183 1303 1183 q 1275 1184 1279 1184 q 1166 1183 1227 1184 q 1040 1175 1105 1181 q 907 1158 974 1169 q 781 1128 840 1147 q 673 1078 722 1108 q 597 1006 625 1048 "},"™":{"ha":1563,"x_min":5,"x_max":1527,"o":"m 1111 486 l 1320 1006 l 1458 35 q 1468 18 1459 24 q 1486 9 1476 11 q 1508 13 1496 7 q 1527 35 1519 19 q 1455 518 1484 321 q 1409 842 1427 715 q 1383 1039 1392 970 q 1371 1141 1374 1108 q 1367 1179 1367 1173 q 1366 1184 1367 1184 q 1344 1181 1356 1184 q 1320 1174 1332 1179 q 1298 1162 1308 1169 q 1284 1146 1289 1156 l 1077 625 l 833 1176 q 820 1192 827 1188 q 803 1194 812 1195 q 782 1192 793 1194 q 758 1190 770 1190 q 759 1169 758 1179 q 760 1149 760 1160 q 749 1149 754 1149 q 736 1150 743 1150 q 703 1147 731 1150 q 642 1141 674 1145 q 583 1133 609 1137 q 555 1130 556 1130 q 453 1120 509 1126 q 340 1109 397 1115 q 229 1099 283 1104 q 132 1088 175 1093 q 63 1081 90 1084 q 35 1077 37 1078 l 5 982 l 308 1006 q 312 981 309 1015 q 319 884 315 947 q 328 739 323 822 q 338 566 332 656 q 349 385 343 476 q 361 217 355 294 q 372 82 366 140 q 382 0 377 24 q 407 -6 392 -4 q 435 -7 422 -8 q 458 1 449 -5 q 468 23 468 8 q 458 263 468 138 q 438 515 449 388 q 420 768 427 643 q 416 1006 412 892 l 762 1055 q 766 892 764 982 q 770 706 768 803 q 774 511 772 609 q 778 322 776 412 q 783 155 780 232 q 789 23 785 77 l 868 35 l 868 833 l 1042 486 l 1111 486 "},"š":{"ha":712,"x_min":31,"x_max":669,"o":"m 130 146 q 156 85 130 111 q 217 40 182 58 q 289 12 252 22 q 347 0 326 1 q 456 14 400 -5 q 557 69 511 34 q 633 152 604 104 q 663 251 663 199 q 647 369 669 324 q 587 438 625 414 q 497 471 548 463 q 393 480 446 480 q 288 477 339 480 q 195 474 236 473 q 130 484 155 475 q 104 521 104 494 q 125 608 104 574 q 180 662 146 642 q 255 690 213 682 q 339 699 297 699 q 410 698 378 707 q 464 672 441 689 q 503 637 487 655 q 531 609 519 618 q 549 606 543 600 q 559 643 555 612 q 538 713 559 688 q 488 750 518 738 q 422 765 457 762 q 359 768 388 768 q 243 757 301 768 q 138 720 184 746 q 61 648 91 693 q 31 534 31 604 q 43 484 31 510 q 76 435 56 457 q 121 397 96 412 q 174 382 146 382 q 353 395 281 396 q 473 385 426 395 q 546 359 521 376 q 583 323 571 342 q 595 286 594 304 q 594 255 595 267 q 572 178 594 213 q 515 119 549 144 q 441 80 481 94 q 362 66 400 66 q 302 79 330 66 q 246 106 274 91 q 191 134 218 122 q 130 146 163 146 m 343 954 q 292 990 316 974 q 243 1022 267 1006 q 195 1054 218 1038 q 145 1089 171 1070 l 88 1073 l 347 861 q 409 906 382 882 q 458 957 435 930 q 505 1011 481 983 q 559 1067 529 1039 q 553 1078 559 1076 q 536 1083 547 1081 q 513 1087 526 1085 q 484 1093 499 1089 q 444 1053 457 1067 q 418 1025 430 1038 q 390 996 406 1012 q 343 954 374 981 "},"œ":{"ha":1096,"x_min":43,"x_max":1050,"o":"m 43 331 q 86 119 43 197 q 193 14 129 42 q 330 4 256 -14 q 468 75 404 22 q 574 212 532 127 q 614 406 616 297 q 600 557 618 480 q 547 698 582 635 q 462 801 511 761 q 354 841 412 841 q 254 815 298 841 q 174 747 209 789 q 115 650 140 704 q 75 539 91 595 q 51 428 58 483 q 43 331 43 373 m 111 324 q 117 401 111 357 q 137 492 123 445 q 170 587 151 540 q 218 670 190 633 q 280 729 245 707 q 358 751 315 751 q 439 723 403 751 q 499 647 475 694 q 536 538 524 600 q 547 411 549 476 q 509 254 543 324 q 429 138 476 184 q 328 75 382 92 q 227 76 274 57 q 148 155 180 95 q 111 324 115 214 m 544 426 q 539 320 538 374 q 549 215 540 266 q 576 120 557 164 q 623 45 594 76 q 694 2 652 15 q 792 0 735 -11 q 831 4 802 0 q 893 14 860 8 q 957 25 926 19 q 1001 35 987 31 q 1010 43 1004 37 q 1025 57 1017 49 q 1038 74 1032 65 q 1043 91 1043 83 q 974 87 1016 91 q 885 84 932 84 q 790 90 838 84 q 704 111 742 95 q 642 159 666 127 q 617 241 617 190 q 618 272 617 251 q 620 319 618 293 q 624 374 621 346 q 631 425 627 401 q 640 465 635 449 q 652 481 646 480 l 1034 552 q 1049 600 1050 572 q 1036 655 1048 627 q 1000 710 1023 684 q 950 758 978 736 q 892 791 922 779 q 831 803 861 803 q 724 764 776 803 q 631 669 671 726 q 568 546 591 612 q 544 426 544 480 m 806 734 q 918 708 884 726 q 951 669 951 690 q 925 627 952 648 q 857 591 898 606 q 764 568 815 575 q 666 567 713 560 q 677 617 662 587 q 715 673 692 647 q 764 718 738 700 q 806 734 789 735 "},"…":{"ha":800,"x_min":52,"x_max":772,"o":"m 58 69 q 70 45 61 57 q 91 22 79 33 q 117 4 103 11 q 146 -3 132 -3 q 174 4 160 -3 q 200 22 189 11 q 220 45 212 33 q 232 69 229 57 q 231 111 239 96 q 210 134 224 126 q 178 142 195 141 q 146 144 160 144 q 114 142 132 144 q 81 134 96 141 q 59 111 66 126 q 58 69 52 96 m 326 69 q 357 22 332 46 q 412 -3 382 -3 q 440 4 426 -3 q 467 22 454 11 q 487 45 479 33 q 499 69 495 57 q 498 111 506 96 q 476 134 491 126 q 444 142 461 141 q 412 144 426 144 q 380 142 397 144 q 348 134 362 141 q 326 111 334 126 q 326 69 319 96 m 591 69 q 603 45 594 57 q 624 22 612 33 q 650 4 636 11 q 680 -3 665 -3 q 707 4 693 -3 q 733 22 722 11 q 753 45 745 33 q 765 69 762 57 q 764 111 772 96 q 743 134 757 126 q 711 142 728 141 q 680 144 693 144 q 647 142 665 144 q 614 134 629 141 q 592 111 600 126 q 591 69 585 96 "},"¨":{"ha":628,"x_min":77,"x_max":532,"o":"m 84 983 q 96 958 88 971 q 117 935 104 945 q 143 918 129 925 q 172 911 157 911 q 226 935 201 911 q 258 983 251 959 q 257 1025 264 1010 q 235 1048 250 1040 q 203 1057 221 1055 q 172 1058 186 1058 q 140 1057 157 1058 q 107 1048 122 1055 q 85 1025 92 1040 q 84 983 77 1010 m 351 983 q 384 935 358 959 q 439 911 410 911 q 467 918 453 911 q 493 935 481 925 q 513 958 505 945 q 525 983 522 971 q 524 1025 532 1010 q 503 1048 517 1040 q 471 1057 488 1055 q 439 1058 453 1058 q 407 1057 425 1058 q 374 1048 389 1055 q 352 1025 359 1040 q 351 983 345 1010 "},"Ÿ":{"ha":822,"x_min":8,"x_max":811,"o":"m 529 590 l 529 590 l 529 -18 q 579 -17 562 -18 q 606 -11 597 -16 q 618 5 616 -5 q 624 34 621 15 q 616 154 617 80 q 621 319 616 228 q 637 513 627 410 q 661 722 647 617 q 691 928 674 826 q 726 1119 708 1031 q 766 1277 745 1207 q 807 1389 787 1347 q 806 1406 811 1398 q 791 1417 800 1413 q 771 1423 781 1421 q 755 1426 761 1426 q 747 1426 753 1426 q 738 1424 741 1426 q 694 1328 713 1383 q 659 1208 674 1272 q 630 1074 643 1143 q 606 937 617 1004 q 585 807 595 869 q 564 694 575 745 q 467 804 509 753 q 391 905 426 856 q 322 1004 355 955 q 250 1106 289 1053 q 161 1220 210 1160 q 43 1354 111 1280 l 8 1320 q 60 1220 23 1279 q 144 1093 96 1161 q 248 954 193 1025 q 357 814 304 882 q 455 688 410 746 q 529 590 500 629 m 180 1493 q 193 1468 184 1481 q 213 1445 201 1455 q 239 1428 225 1435 q 269 1421 254 1421 q 322 1445 297 1421 q 354 1493 347 1469 q 353 1535 361 1520 q 332 1558 346 1550 q 300 1567 317 1565 q 269 1568 282 1568 q 236 1567 254 1568 q 203 1558 218 1565 q 181 1535 189 1550 q 180 1493 174 1520 m 448 1493 q 480 1445 454 1469 q 536 1421 506 1421 q 564 1428 549 1421 q 589 1445 578 1435 q 610 1468 601 1455 q 621 1493 618 1481 q 621 1535 628 1520 q 599 1558 613 1550 q 567 1567 585 1565 q 536 1568 549 1568 q 503 1567 521 1568 q 471 1558 486 1565 q 448 1535 456 1550 q 448 1493 441 1520 "},"¡":{"ha":286,"x_min":61,"x_max":288,"o":"m 207 1153 q 240 1143 225 1153 q 266 1119 256 1134 q 283 1087 277 1105 q 289 1051 289 1069 q 244 991 269 1007 q 197 977 219 974 q 159 1000 175 981 q 140 1045 143 1019 q 152 1100 138 1070 q 207 1153 167 1129 m 221 1053 q 236 1069 236 1057 q 221 1086 236 1082 q 211 1082 214 1088 q 208 1069 208 1077 q 211 1057 208 1062 q 221 1053 214 1051 m 62 53 q 62 64 62 54 q 63 84 63 73 q 63 104 63 95 q 64 114 64 114 q 74 206 68 150 q 87 324 80 262 q 100 450 94 387 q 113 566 107 514 q 123 654 119 619 q 128 697 127 690 q 134 740 132 720 q 142 773 137 759 q 159 795 148 787 q 191 802 170 802 q 206 799 194 802 q 221 793 218 796 l 128 16 q 95 23 108 23 q 75 25 82 24 q 65 32 68 26 q 62 53 62 38 "},"¢":{"ha":678,"x_min":34,"x_max":633,"o":"m 312 842 l 308 765 q 189 699 240 749 q 104 582 138 648 q 52 443 69 515 q 34 309 34 370 q 55 190 34 247 q 114 90 76 133 q 203 22 152 47 q 316 -4 255 -4 q 321 -50 317 -47 q 359 -55 345 -50 q 384 -62 374 -60 q 397 -62 393 -65 q 401 -43 400 -60 q 401 -18 401 -30 q 400 4 400 -7 q 482 26 441 12 q 557 62 524 41 q 612 113 590 84 q 633 179 633 142 q 571 169 601 179 q 513 144 541 159 q 456 114 484 130 q 400 85 429 98 q 397 402 397 250 q 395 674 396 555 q 422 618 412 652 q 439 551 433 585 q 448 489 445 517 q 452 452 450 461 l 498 452 q 494 503 494 472 q 494 570 495 534 q 490 642 494 606 q 477 706 487 677 q 446 753 467 735 q 393 773 426 772 q 393 890 393 848 q 392 935 392 933 q 342 937 358 947 q 319 907 326 926 q 312 867 312 887 q 312 842 312 848 m 103 349 q 119 438 103 385 q 161 543 134 491 q 226 636 189 594 q 307 693 263 678 q 309 504 308 595 q 311 332 311 412 q 313 184 312 251 q 315 68 313 117 l 313 68 q 216 83 255 57 q 152 153 176 110 q 117 250 127 197 q 103 349 106 304 "},"£":{"ha":887,"x_min":22,"x_max":788,"o":"m 236 122 q 215 312 225 210 q 199 512 205 414 q 195 698 194 610 q 205 847 195 785 q 238 936 216 909 q 298 940 260 963 q 446 867 399 880 q 503 868 494 854 q 490 913 513 882 q 429 972 468 944 q 338 1019 389 1001 q 241 1022 288 1036 q 157 952 194 1008 q 106 782 119 897 q 112 482 94 667 q 193 23 130 297 q 264 54 217 42 q 370 71 312 65 q 492 75 429 76 q 612 70 555 75 q 713 57 669 65 q 779 38 758 49 l 788 103 q 668 151 731 132 q 536 176 605 171 q 391 170 467 182 q 236 122 316 157 m 31 547 q 22 505 23 519 q 26 484 22 490 q 41 477 31 477 q 61 476 50 476 q 75 477 64 476 q 96 479 85 477 q 117 481 107 480 q 127 481 126 481 q 199 487 171 486 q 251 490 227 488 q 302 494 275 491 q 373 500 330 496 q 413 536 404 522 q 416 559 422 551 q 392 572 410 568 q 353 576 374 575 q 309 574 331 576 q 270 570 286 572 q 142 559 189 563 q 71 554 95 556 q 40 550 47 552 q 31 547 33 548 "},"¿":{"ha":582,"x_min":47,"x_max":547,"o":"m 296 937 q 303 967 296 956 q 328 987 309 977 q 354 967 347 977 q 360 937 360 956 q 354 909 360 919 q 328 888 347 898 q 303 909 309 898 q 296 937 296 919 m 233 473 q 234 525 233 495 q 244 581 236 554 q 267 627 251 609 q 313 646 284 646 l 313 491 q 379 437 338 472 q 456 360 419 403 q 521 269 493 316 q 548 175 548 221 q 521 104 548 133 q 456 57 494 75 q 377 32 418 40 q 308 24 336 24 q 233 33 270 24 q 162 58 196 41 q 99 100 128 75 q 47 160 69 125 q 67 187 57 179 q 95 195 77 195 q 147 179 121 195 q 203 142 174 163 q 264 106 233 122 q 329 90 295 90 q 374 93 347 90 q 427 104 402 95 q 469 130 452 113 q 487 175 487 147 q 468 243 487 216 q 421 290 449 270 q 360 327 393 310 q 298 364 326 344 q 251 409 270 384 q 233 473 233 435 "},"À":{"ha":720,"x_min":38,"x_max":677,"o":"m 326 1127 q 217 1048 260 1101 q 145 920 174 994 q 101 753 117 845 q 76 559 85 661 q 60 351 66 458 q 43 138 54 243 q 42 118 43 133 q 40 87 41 103 q 39 56 39 71 q 38 35 38 41 l 130 35 l 130 416 q 182 404 146 406 q 263 406 218 403 q 357 416 308 410 q 450 425 407 422 q 524 427 492 429 q 564 416 555 426 l 633 35 l 677 35 q 676 139 677 72 q 671 290 675 206 q 659 468 667 373 q 633 656 650 563 q 592 834 617 749 q 530 985 567 920 q 442 1088 492 1050 q 326 1127 392 1127 m 355 1044 q 450 958 414 1004 q 505 862 486 913 q 530 756 524 811 q 536 643 536 701 q 535 618 536 636 q 533 581 534 601 q 531 545 532 562 q 529 521 530 528 q 354 493 446 506 q 174 480 262 480 q 174 562 174 509 q 179 678 175 616 q 194 806 183 741 q 224 924 205 871 q 276 1010 244 977 q 355 1044 308 1044 m 312 1461 l 260 1396 q 304 1330 289 1354 q 330 1286 319 1306 q 355 1242 342 1265 q 392 1179 368 1219 q 418 1188 406 1185 q 439 1194 430 1191 q 454 1201 449 1196 q 460 1218 460 1206 q 418 1293 433 1261 q 391 1350 404 1324 q 361 1402 378 1377 q 312 1461 345 1428 "},"Á":{"ha":720,"x_min":38,"x_max":677,"o":"m 326 1127 q 217 1048 260 1101 q 145 920 174 994 q 101 753 117 845 q 76 559 85 661 q 60 351 66 458 q 43 138 54 243 q 42 118 43 133 q 40 87 41 103 q 39 56 39 71 q 38 35 38 41 l 130 35 l 130 416 q 182 404 146 406 q 263 406 218 403 q 357 416 308 410 q 450 425 407 422 q 524 427 492 429 q 564 416 555 426 l 633 35 l 677 35 q 676 139 677 72 q 671 290 675 206 q 659 468 667 373 q 633 656 650 563 q 592 834 617 749 q 530 985 567 920 q 442 1088 492 1050 q 326 1127 392 1127 m 355 1044 q 450 958 414 1004 q 505 862 486 913 q 530 756 524 811 q 536 643 536 701 q 535 618 536 636 q 533 581 534 601 q 531 545 532 562 q 529 521 530 528 q 354 493 446 506 q 174 480 262 480 q 174 562 174 509 q 179 678 175 616 q 194 806 183 741 q 224 924 205 871 q 276 1010 244 977 q 355 1044 308 1044 m 469 1397 q 430 1426 441 1411 q 414 1448 419 1440 q 404 1451 410 1455 q 382 1421 399 1446 q 330 1345 365 1396 q 232 1213 296 1295 l 285 1185 q 332 1241 309 1215 q 376 1291 354 1267 q 422 1341 399 1316 q 469 1397 445 1366 "},"Â":{"ha":720,"x_min":38,"x_max":677,"o":"m 326 1127 q 217 1048 260 1101 q 145 920 174 994 q 101 753 117 845 q 76 559 85 661 q 60 351 66 458 q 43 138 54 243 q 42 118 43 133 q 40 87 41 103 q 39 56 39 71 q 38 35 38 41 l 130 35 l 130 416 q 182 404 146 406 q 263 406 218 403 q 357 416 308 410 q 450 425 407 422 q 524 427 492 429 q 564 416 555 426 l 633 35 l 677 35 q 676 139 677 72 q 671 290 675 206 q 659 468 667 373 q 633 656 650 563 q 592 834 617 749 q 530 985 567 920 q 442 1088 492 1050 q 326 1127 392 1127 m 355 1044 q 450 958 414 1004 q 505 862 486 913 q 530 756 524 811 q 536 643 536 701 q 535 618 536 636 q 533 581 534 601 q 531 545 532 562 q 529 521 530 528 q 354 493 446 506 q 174 480 262 480 q 174 562 174 509 q 179 678 175 616 q 194 806 183 741 q 224 924 205 871 q 276 1010 244 977 q 355 1044 308 1044 m 380 1501 q 423 1436 408 1459 q 450 1392 438 1412 q 474 1348 461 1371 q 511 1283 487 1324 q 537 1294 525 1291 q 559 1299 549 1297 q 574 1307 568 1302 q 579 1324 579 1312 q 530 1411 552 1367 q 487 1495 509 1454 q 441 1575 465 1537 q 384 1645 416 1613 l 142 1317 l 195 1289 q 242 1345 220 1320 q 287 1394 264 1370 q 332 1444 309 1419 q 380 1501 355 1470 "},"Ã":{"ha":720,"x_min":38,"x_max":677,"o":"m 326 1127 q 217 1048 260 1101 q 145 920 174 994 q 101 753 117 845 q 76 559 85 661 q 60 351 66 458 q 43 138 54 243 q 42 118 43 133 q 40 87 41 103 q 39 56 39 71 q 38 35 38 41 l 130 35 l 130 416 q 182 404 146 406 q 263 406 218 403 q 357 416 308 410 q 450 425 407 422 q 524 427 492 429 q 564 416 555 426 l 633 35 l 677 35 q 676 139 677 72 q 671 290 675 206 q 659 468 667 373 q 633 656 650 563 q 592 834 617 749 q 530 985 567 920 q 442 1088 492 1050 q 326 1127 392 1127 m 355 1044 q 450 958 414 1004 q 505 862 486 913 q 530 756 524 811 q 536 643 536 701 q 535 618 536 636 q 533 581 534 601 q 531 545 532 562 q 529 521 530 528 q 354 493 446 506 q 174 480 262 480 q 174 562 174 509 q 179 678 175 616 q 194 806 183 741 q 224 924 205 871 q 276 1010 244 977 q 355 1044 308 1044 m 270 1272 q 314 1235 292 1257 q 359 1193 336 1213 q 408 1162 382 1173 q 458 1162 433 1152 q 512 1208 484 1172 q 570 1320 540 1245 q 556 1348 570 1339 q 532 1356 543 1356 q 475 1263 498 1293 q 433 1225 452 1233 q 399 1230 415 1218 q 366 1260 384 1241 q 324 1301 347 1279 q 267 1340 301 1324 q 178 1305 205 1340 q 151 1185 151 1271 q 172 1150 163 1153 q 188 1162 180 1147 q 202 1202 195 1177 q 218 1246 209 1226 q 239 1277 227 1267 q 270 1272 251 1287 "},"Ä":{"ha":720,"x_min":38,"x_max":677,"o":"m 326 1127 q 217 1048 260 1101 q 145 920 174 994 q 101 753 117 845 q 76 559 85 661 q 60 351 66 458 q 43 138 54 243 q 42 118 43 133 q 40 87 41 103 q 39 56 39 71 q 38 35 38 41 l 130 35 l 130 416 q 182 404 146 406 q 263 406 218 403 q 357 416 308 410 q 450 425 407 422 q 524 427 492 429 q 564 416 555 426 l 633 35 l 677 35 q 676 139 677 72 q 671 290 675 206 q 659 468 667 373 q 633 656 650 563 q 592 834 617 749 q 530 985 567 920 q 442 1088 492 1050 q 326 1127 392 1127 m 355 1044 q 450 958 414 1004 q 505 862 486 913 q 530 756 524 811 q 536 643 536 701 q 535 618 536 636 q 533 581 534 601 q 531 545 532 562 q 529 521 530 528 q 354 493 446 506 q 174 480 262 480 q 174 562 174 509 q 179 678 175 616 q 194 806 183 741 q 224 924 205 871 q 276 1010 244 977 q 355 1044 308 1044 m 140 1261 q 152 1236 144 1249 q 172 1213 160 1223 q 199 1196 184 1203 q 228 1190 213 1190 q 281 1213 256 1190 q 313 1261 307 1237 q 313 1303 320 1289 q 291 1326 305 1318 q 259 1335 277 1333 q 228 1336 241 1336 q 195 1335 213 1336 q 163 1326 178 1333 q 140 1303 148 1318 q 140 1261 133 1289 m 407 1261 q 439 1213 414 1237 q 495 1190 465 1190 q 523 1196 509 1190 q 549 1213 537 1203 q 569 1236 560 1223 q 581 1261 578 1249 q 580 1303 587 1289 q 558 1326 572 1318 q 526 1335 544 1333 q 495 1336 509 1336 q 463 1335 480 1336 q 430 1326 445 1333 q 408 1303 415 1318 q 407 1261 400 1289 "},"Å":{"ha":720,"x_min":52,"x_max":690,"o":"m 339 1105 q 231 1026 274 1080 q 159 898 187 972 q 115 731 130 823 q 90 538 99 639 q 74 329 80 437 q 57 117 68 221 q 56 96 57 111 q 54 65 54 81 q 52 34 53 49 q 52 14 52 19 l 144 14 l 144 395 q 196 382 160 384 q 277 385 232 381 q 371 394 321 388 q 463 404 420 400 q 537 406 506 407 q 578 395 568 404 l 647 14 l 690 14 q 690 117 690 50 q 685 268 689 184 q 672 446 681 351 q 647 634 663 541 q 606 812 631 727 q 543 963 581 898 q 456 1067 506 1028 q 339 1105 406 1105 m 369 1023 q 463 937 427 982 q 518 840 499 891 q 543 734 537 789 q 549 621 549 680 q 549 597 549 614 q 547 559 548 579 q 545 523 545 540 q 543 499 544 506 q 368 471 460 484 q 187 458 275 458 q 188 541 187 487 q 193 656 189 594 q 208 784 197 719 q 238 902 218 849 q 290 989 258 955 q 369 1023 321 1023 m 248 1195 q 254 1156 248 1176 q 271 1118 259 1135 q 304 1090 283 1101 q 357 1080 326 1080 q 401 1091 382 1080 q 431 1120 419 1103 q 448 1156 442 1137 q 453 1190 453 1175 q 420 1276 453 1238 q 321 1313 388 1313 q 283 1299 297 1313 q 260 1267 269 1286 q 250 1229 252 1249 q 248 1195 248 1208 m 285 1195 q 292 1252 277 1233 q 330 1272 308 1271 q 375 1255 353 1274 q 403 1199 397 1237 q 384 1155 396 1176 q 355 1127 372 1134 q 321 1134 339 1120 q 285 1195 302 1147 "},"Æ":{"ha":1436,"x_min":38,"x_max":1392,"o":"m 326 1127 q 217 1048 260 1101 q 145 920 174 994 q 101 753 117 845 q 76 559 85 661 q 60 351 66 458 q 43 138 54 243 q 42 118 43 133 q 40 87 41 103 q 39 56 39 71 q 38 35 38 41 l 130 35 l 130 416 q 182 404 146 406 q 263 406 218 403 q 357 416 308 410 q 450 425 407 422 q 524 427 492 429 q 564 416 555 426 l 633 35 l 677 35 q 676 139 677 72 q 671 290 675 206 q 659 468 667 373 q 633 656 650 563 q 592 834 617 749 q 530 985 567 920 q 442 1088 492 1050 q 326 1127 392 1127 m 355 1044 q 450 958 414 1004 q 505 862 486 913 q 530 756 524 811 q 536 643 536 701 q 535 618 536 636 q 533 581 534 601 q 531 545 532 562 q 529 521 530 528 q 354 493 446 506 q 174 480 262 480 q 174 562 174 509 q 179 678 175 616 q 194 806 183 741 q 224 924 205 871 q 276 1010 244 977 q 355 1044 308 1044 m 540 972 q 612 488 597 734 q 628 -1 628 241 q 644 0 639 -1 q 743 10 684 4 q 870 24 803 16 q 1006 39 937 31 q 1131 53 1074 46 q 1225 64 1187 60 q 1270 69 1263 68 q 1303 75 1282 71 q 1343 86 1324 79 q 1377 107 1363 94 q 1392 144 1392 121 q 1221 138 1306 144 q 1052 126 1137 133 q 883 114 967 119 q 713 109 799 109 l 713 486 q 734 503 713 494 q 787 522 754 513 q 859 538 819 530 q 938 553 899 547 q 1010 564 977 560 q 1061 567 1043 567 l 1061 633 q 976 627 1017 633 q 895 611 935 620 q 814 595 854 602 q 732 589 774 589 q 706 589 726 589 q 680 590 686 589 q 671 646 677 608 q 659 730 665 684 q 648 823 652 776 q 643 907 643 871 q 646 946 643 929 q 680 972 650 963 q 735 985 697 977 q 821 1004 773 994 q 922 1026 869 1015 q 1023 1048 975 1038 q 1109 1066 1070 1058 q 1165 1077 1147 1074 q 1205 1076 1179 1080 q 1256 1074 1232 1072 q 1296 1092 1280 1077 q 1305 1146 1312 1107 q 1287 1147 1299 1146 q 1261 1148 1275 1147 q 1234 1149 1246 1149 q 1218 1150 1222 1150 q 1109 1149 1171 1150 q 983 1141 1048 1147 q 850 1124 917 1135 q 724 1094 783 1114 q 616 1044 665 1074 q 540 972 568 1015 "},"¸":{"ha":586,"x_min":157,"x_max":519,"o":"m 172 -285 q 190 -334 172 -313 q 231 -370 208 -355 q 280 -391 255 -384 q 320 -400 305 -399 q 391 -397 355 -404 q 454 -372 426 -391 q 501 -323 483 -353 q 519 -252 519 -293 q 497 -160 519 -190 q 441 -120 475 -130 q 368 -113 407 -110 q 294 -117 328 -115 q 238 -113 260 -119 q 216 -79 216 -107 q 232 27 240 -4 q 206 56 224 58 q 173 20 189 53 q 167 -68 157 -14 q 175 -108 167 -87 q 197 -147 183 -129 q 228 -177 210 -165 q 263 -189 245 -189 q 407 -182 358 -175 q 471 -208 456 -190 q 476 -252 487 -227 q 441 -300 465 -278 q 385 -337 416 -323 q 330 -347 354 -351 q 289 -338 308 -347 q 251 -316 270 -328 q 213 -294 232 -304 q 172 -285 194 -285 "},"Ç":{"ha":789,"x_min":24,"x_max":755,"o":"m 24 469 q 39 304 24 388 q 91 152 53 220 q 193 41 129 84 q 357 -1 256 -1 q 366 -1 359 -1 q 373 0 372 0 q 439 23 400 9 q 519 52 477 37 q 604 81 562 66 q 679 109 646 96 q 733 129 712 121 q 755 138 754 137 l 755 209 q 668 165 720 190 q 558 120 616 141 q 443 84 500 99 q 339 69 385 69 q 219 112 264 75 q 150 204 174 149 q 120 325 126 259 q 121 452 114 391 q 126 555 121 494 q 146 681 132 616 q 182 811 160 746 q 239 928 205 876 q 319 1011 273 979 q 426 1043 365 1043 q 493 1019 471 1043 q 532 965 515 994 q 570 911 549 936 q 629 887 590 887 q 619 968 629 928 q 587 1042 609 1009 q 530 1094 566 1074 q 445 1114 495 1114 q 316 1082 374 1114 q 211 996 258 1050 q 129 875 164 943 q 71 736 94 807 q 36 595 47 665 q 24 469 24 525 m 300 -311 q 317 -360 300 -339 q 359 -395 335 -381 q 408 -417 382 -410 q 448 -426 433 -425 q 518 -423 483 -430 q 582 -397 553 -416 q 629 -349 610 -378 q 647 -278 647 -319 q 625 -186 647 -216 q 568 -146 602 -156 q 495 -138 534 -136 q 422 -143 456 -141 q 366 -139 388 -145 q 343 -104 343 -133 q 359 1 368 -30 q 334 30 351 33 q 300 -6 316 27 q 294 -94 285 -39 q 302 -134 294 -113 q 324 -173 311 -155 q 355 -203 338 -191 q 391 -214 373 -214 q 534 -208 486 -201 q 599 -234 583 -216 q 604 -278 614 -252 q 568 -326 593 -304 q 513 -363 544 -349 q 457 -373 481 -377 q 416 -363 435 -373 q 378 -342 397 -354 q 340 -320 359 -330 q 300 -311 321 -311 "},"È":{"ha":911,"x_min":26,"x_max":878,"o":"m 26 972 q 98 488 83 734 q 114 -1 114 241 q 130 0 125 -1 q 229 10 170 4 q 356 24 289 16 q 492 39 423 31 q 616 53 560 46 q 711 64 673 60 q 755 69 749 68 q 789 75 768 71 q 829 86 810 79 q 863 107 849 94 q 878 144 878 121 q 707 138 792 144 q 538 126 623 133 q 369 114 453 119 q 199 109 285 109 l 199 486 q 220 503 199 494 q 273 522 240 513 q 345 538 305 530 q 424 553 385 547 q 496 564 463 560 q 547 567 529 567 l 547 633 q 462 627 503 633 q 380 611 420 620 q 300 595 340 602 q 218 589 260 589 q 192 589 212 589 q 165 590 172 589 q 157 646 163 608 q 144 730 151 684 q 134 823 138 776 q 129 907 129 871 q 132 946 129 929 q 165 972 136 963 q 221 985 183 977 q 307 1004 259 994 q 408 1026 355 1015 q 509 1048 461 1038 q 595 1066 556 1058 q 651 1077 633 1074 q 691 1076 665 1080 q 742 1074 718 1072 q 782 1092 766 1077 q 791 1146 798 1107 q 773 1147 785 1146 q 747 1148 761 1147 q 720 1149 732 1149 q 704 1150 708 1150 q 595 1149 656 1150 q 469 1141 534 1147 q 336 1124 403 1135 q 210 1094 269 1114 q 102 1044 151 1074 q 26 972 54 1015 m 407 1461 l 355 1396 q 399 1330 384 1354 q 425 1286 414 1306 q 450 1242 437 1265 q 487 1179 463 1219 q 513 1188 500 1185 q 534 1194 525 1191 q 549 1201 544 1196 q 555 1218 555 1206 q 513 1293 528 1261 q 486 1350 499 1324 q 456 1402 473 1377 q 407 1461 439 1428 "},"É":{"ha":911,"x_min":26,"x_max":878,"o":"m 26 972 q 98 488 83 734 q 114 -1 114 241 q 130 0 125 -1 q 229 10 170 4 q 356 24 289 16 q 492 39 423 31 q 616 53 560 46 q 711 64 673 60 q 755 69 749 68 q 789 75 768 71 q 829 86 810 79 q 863 107 849 94 q 878 144 878 121 q 707 138 792 144 q 538 126 623 133 q 369 114 453 119 q 199 109 285 109 l 199 486 q 220 503 199 494 q 273 522 240 513 q 345 538 305 530 q 424 553 385 547 q 496 564 463 560 q 547 567 529 567 l 547 633 q 462 627 503 633 q 380 611 420 620 q 300 595 340 602 q 218 589 260 589 q 192 589 212 589 q 165 590 172 589 q 157 646 163 608 q 144 730 151 684 q 134 823 138 776 q 129 907 129 871 q 132 946 129 929 q 165 972 136 963 q 221 985 183 977 q 307 1004 259 994 q 408 1026 355 1015 q 509 1048 461 1038 q 595 1066 556 1058 q 651 1077 633 1074 q 691 1076 665 1080 q 742 1074 718 1072 q 782 1092 766 1077 q 791 1146 798 1107 q 773 1147 785 1146 q 747 1148 761 1147 q 720 1149 732 1149 q 704 1150 708 1150 q 595 1149 656 1150 q 469 1141 534 1147 q 336 1124 403 1135 q 210 1094 269 1114 q 102 1044 151 1074 q 26 972 54 1015 m 566 1397 q 526 1426 537 1411 q 511 1448 515 1440 q 500 1451 506 1455 q 478 1421 495 1446 q 427 1345 461 1396 q 328 1213 392 1295 l 381 1185 q 428 1241 406 1215 q 473 1291 450 1267 q 518 1341 495 1316 q 566 1397 541 1366 "},"Ê":{"ha":911,"x_min":26,"x_max":878,"o":"m 26 972 q 98 488 83 734 q 114 -1 114 241 q 130 0 125 -1 q 229 10 170 4 q 356 24 289 16 q 492 39 423 31 q 616 53 560 46 q 711 64 673 60 q 755 69 749 68 q 789 75 768 71 q 829 86 810 79 q 863 107 849 94 q 878 144 878 121 q 707 138 792 144 q 538 126 623 133 q 369 114 453 119 q 199 109 285 109 l 199 486 q 220 503 199 494 q 273 522 240 513 q 345 538 305 530 q 424 553 385 547 q 496 564 463 560 q 547 567 529 567 l 547 633 q 462 627 503 633 q 380 611 420 620 q 300 595 340 602 q 218 589 260 589 q 192 589 212 589 q 165 590 172 589 q 157 646 163 608 q 144 730 151 684 q 134 823 138 776 q 129 907 129 871 q 132 946 129 929 q 165 972 136 963 q 221 985 183 977 q 307 1004 259 994 q 408 1026 355 1015 q 509 1048 461 1038 q 595 1066 556 1058 q 651 1077 633 1074 q 691 1076 665 1080 q 742 1074 718 1072 q 782 1092 766 1077 q 791 1146 798 1107 q 773 1147 785 1146 q 747 1148 761 1147 q 720 1149 732 1149 q 704 1150 708 1150 q 595 1149 656 1150 q 469 1141 534 1147 q 336 1124 403 1135 q 210 1094 269 1114 q 102 1044 151 1074 q 26 972 54 1015 m 473 1501 q 517 1436 502 1459 q 543 1392 532 1412 q 568 1348 555 1371 q 605 1283 581 1324 q 631 1294 618 1291 q 652 1299 643 1297 q 667 1307 662 1302 q 673 1324 673 1312 q 624 1411 646 1367 q 581 1495 602 1454 q 534 1575 559 1537 q 477 1645 510 1613 l 236 1317 l 289 1289 q 336 1345 313 1320 q 380 1394 358 1370 q 426 1444 403 1419 q 473 1501 449 1470 "},"Ë":{"ha":911,"x_min":26,"x_max":878,"o":"m 26 972 q 98 488 83 734 q 114 -1 114 241 q 130 0 125 -1 q 229 10 170 4 q 356 24 289 16 q 492 39 423 31 q 616 53 560 46 q 711 64 673 60 q 755 69 749 68 q 789 75 768 71 q 829 86 810 79 q 863 107 849 94 q 878 144 878 121 q 707 138 792 144 q 538 126 623 133 q 369 114 453 119 q 199 109 285 109 l 199 486 q 220 503 199 494 q 273 522 240 513 q 345 538 305 530 q 424 553 385 547 q 496 564 463 560 q 547 567 529 567 l 547 633 q 462 627 503 633 q 380 611 420 620 q 300 595 340 602 q 218 589 260 589 q 192 589 212 589 q 165 590 172 589 q 157 646 163 608 q 144 730 151 684 q 134 823 138 776 q 129 907 129 871 q 132 946 129 929 q 165 972 136 963 q 221 985 183 977 q 307 1004 259 994 q 408 1026 355 1015 q 509 1048 461 1038 q 595 1066 556 1058 q 651 1077 633 1074 q 691 1076 665 1080 q 742 1074 718 1072 q 782 1092 766 1077 q 791 1146 798 1107 q 773 1147 785 1146 q 747 1148 761 1147 q 720 1149 732 1149 q 704 1150 708 1150 q 595 1149 656 1150 q 469 1141 534 1147 q 336 1124 403 1135 q 210 1094 269 1114 q 102 1044 151 1074 q 26 972 54 1015 m 235 1261 q 247 1236 239 1249 q 267 1213 255 1223 q 294 1196 279 1203 q 323 1190 308 1190 q 376 1213 351 1190 q 408 1261 401 1237 q 408 1303 415 1289 q 386 1326 400 1318 q 354 1335 372 1333 q 323 1336 336 1336 q 290 1335 308 1336 q 258 1326 273 1333 q 235 1303 243 1318 q 235 1261 228 1289 m 502 1261 q 534 1213 509 1237 q 590 1190 560 1190 q 618 1196 604 1190 q 644 1213 632 1203 q 664 1236 655 1223 q 675 1261 673 1249 q 675 1303 682 1289 q 653 1326 667 1318 q 621 1335 639 1333 q 590 1336 604 1336 q 557 1335 575 1336 q 525 1326 540 1333 q 503 1303 510 1318 q 502 1261 495 1289 "},"Ì":{"ha":182,"x_min":-30,"x_max":170,"o":"m 26 1271 l 26 1271 l 26 1251 q 36 1057 31 1162 q 45 837 41 951 q 52 606 49 723 q 57 380 54 490 q 63 174 60 271 q 71 4 66 77 l 148 19 q 146 46 148 20 q 141 105 144 72 q 136 172 138 138 q 133 227 133 206 q 131 500 133 369 q 124 764 129 632 q 113 1032 119 895 q 96 1320 106 1169 q 87 1321 94 1321 q 79 1321 80 1321 q 41 1307 57 1321 q 26 1271 26 1293 m 22 1672 l -30 1607 q 14 1541 -1 1565 q 40 1497 28 1518 q 64 1454 52 1477 q 102 1390 77 1431 q 127 1400 115 1397 q 149 1405 140 1402 q 164 1413 159 1408 q 170 1430 170 1417 q 128 1504 142 1473 q 101 1562 114 1535 q 71 1614 88 1588 q 22 1672 54 1640 "},"Í":{"ha":182,"x_min":-23,"x_max":214,"o":"m 26 1271 l 26 1271 l 26 1251 q 36 1057 31 1162 q 45 837 41 951 q 52 606 49 723 q 57 380 54 490 q 63 174 60 271 q 71 4 66 77 l 148 19 q 146 46 148 20 q 141 105 144 72 q 136 172 138 138 q 133 227 133 206 q 131 500 133 369 q 124 764 129 632 q 113 1032 119 895 q 96 1320 106 1169 q 87 1321 94 1321 q 79 1321 80 1321 q 41 1307 57 1321 q 26 1271 26 1293 m 214 1632 q 175 1660 186 1645 q 159 1683 164 1675 q 149 1685 155 1690 q 127 1655 144 1681 q 75 1580 110 1630 q -23 1447 41 1530 l 30 1420 q 77 1476 54 1450 q 121 1526 99 1501 q 167 1575 144 1550 q 214 1632 190 1600 "},"Î":{"ha":182,"x_min":-121,"x_max":316,"o":"m 26 1271 l 26 1271 l 26 1251 q 36 1057 31 1162 q 45 837 41 951 q 52 606 49 723 q 57 380 54 490 q 63 174 60 271 q 71 4 66 77 l 148 19 q 146 46 148 20 q 141 105 144 72 q 136 172 138 138 q 133 227 133 206 q 131 500 133 369 q 124 764 129 632 q 113 1032 119 895 q 96 1320 106 1169 q 87 1321 94 1321 q 79 1321 80 1321 q 41 1307 57 1321 q 26 1271 26 1293 m 117 1619 q 160 1554 145 1577 q 186 1510 175 1530 q 211 1466 198 1489 q 248 1401 224 1442 q 274 1412 262 1409 q 296 1417 286 1415 q 311 1425 305 1420 q 316 1442 316 1430 q 267 1529 289 1485 q 224 1613 245 1572 q 178 1693 202 1655 q 121 1763 153 1731 l -121 1435 l -68 1407 q -21 1463 -43 1438 q 24 1512 1 1488 q 69 1563 46 1537 q 117 1619 92 1588 "},"Ï":{"ha":182,"x_min":-159,"x_max":296,"o":"m 26 1271 l 26 1271 l 26 1251 q 36 1057 31 1162 q 45 837 41 951 q 52 606 49 723 q 57 380 54 490 q 63 174 60 271 q 71 4 66 77 l 148 19 q 146 46 148 20 q 141 105 144 72 q 136 172 138 138 q 133 227 133 206 q 131 500 133 369 q 124 764 129 632 q 113 1032 119 895 q 96 1320 106 1169 q 87 1321 94 1321 q 79 1321 80 1321 q 41 1307 57 1321 q 26 1271 26 1293 m -152 1497 q -140 1472 -148 1485 q -119 1449 -132 1459 q -93 1432 -107 1439 q -64 1426 -79 1426 q -10 1449 -35 1426 q 22 1497 15 1473 q 21 1539 28 1525 q -1 1562 14 1554 q -33 1571 -15 1569 q -64 1572 -50 1572 q -96 1571 -79 1572 q -129 1562 -114 1569 q -151 1539 -144 1554 q -152 1497 -159 1525 m 115 1497 q 148 1449 122 1473 q 203 1426 174 1426 q 231 1432 217 1426 q 257 1449 245 1439 q 277 1472 269 1459 q 289 1497 286 1485 q 288 1539 296 1525 q 267 1562 281 1554 q 235 1571 252 1569 q 203 1572 217 1572 q 171 1571 189 1572 q 138 1562 153 1569 q 116 1539 123 1554 q 115 1497 109 1525 "},"Ð":{"ha":972,"x_min":3,"x_max":939,"o":"m 38 401 l 3 366 q 29 334 12 338 q 68 331 46 331 q 90 332 75 331 q 107 332 104 332 l 117 332 l 138 69 l 141 3 q 169 1 142 3 q 228 -1 195 0 q 292 -4 260 -3 q 335 -5 323 -5 q 459 3 392 -5 q 593 32 526 12 q 722 83 659 52 q 833 159 785 114 q 909 264 880 203 q 939 400 939 324 q 901 561 939 488 q 802 694 863 633 q 663 802 741 754 q 503 888 585 850 q 345 956 422 926 q 209 1006 267 985 q 195 1007 205 1006 q 174 1008 186 1008 q 153 1010 163 1009 q 138 1010 142 1010 q 117 1011 134 1010 q 82 1010 100 1012 q 50 999 64 1008 q 35 972 35 990 q 39 958 35 968 q 49 937 43 948 q 60 916 54 925 q 69 903 65 906 l 110 419 q 71 412 84 415 q 50 408 57 410 q 41 404 42 406 q 38 401 39 403 m 172 911 q 308 895 235 911 q 455 848 381 879 q 597 773 529 817 q 720 675 666 730 q 805 556 773 620 q 837 422 837 492 q 797 258 837 326 q 692 147 757 190 q 547 84 628 104 q 382 64 465 64 q 347 64 372 64 q 295 66 323 65 q 243 68 267 66 q 209 69 218 69 q 203 177 206 103 q 195 342 199 251 q 231 347 214 345 q 267 353 248 350 q 307 358 285 355 q 358 363 330 361 q 380 409 387 392 q 350 433 373 426 q 298 440 327 441 q 254 433 269 439 l 191 427 q 186 554 189 491 q 180 671 183 617 q 176 768 178 726 q 174 833 175 810 q 174 848 174 837 q 173 873 174 860 q 172 897 172 886 q 172 911 172 907 "},"Ñ":{"ha":964,"x_min":22,"x_max":930,"o":"m 130 1077 l 130 1077 l 825 0 l 878 4 q 878 434 876 250 q 886 753 880 618 q 897 977 891 887 q 910 1124 903 1067 q 922 1210 917 1181 q 929 1251 926 1238 q 930 1259 929 1252 q 930 1270 930 1267 q 929 1284 930 1278 q 920 1293 928 1291 q 899 1294 913 1295 q 860 1284 884 1293 q 821 1127 834 1214 q 802 943 807 1040 q 799 744 798 846 q 804 541 800 642 q 811 344 807 439 q 817 165 815 248 l 165 1215 q 128 1242 156 1232 q 77 1252 100 1252 q 40 1237 56 1252 q 24 1200 24 1222 q 24 1107 22 1168 q 30 968 26 1047 q 40 798 34 890 q 54 610 46 705 q 68 423 61 515 q 82 251 76 331 q 93 109 88 171 q 99 14 98 47 l 165 9 q 160 248 165 129 q 147 486 155 368 q 134 722 140 604 q 129 956 129 840 q 129 980 129 963 q 129 1016 129 997 q 130 1053 129 1035 q 130 1077 130 1070 m 382 1409 q 427 1372 404 1394 q 472 1330 449 1350 q 520 1299 495 1310 q 571 1299 545 1289 q 625 1345 597 1309 q 682 1457 652 1382 q 669 1485 682 1476 q 644 1493 655 1493 q 587 1400 610 1430 q 546 1362 564 1370 q 512 1367 528 1355 q 478 1397 496 1378 q 437 1438 460 1416 q 380 1477 414 1461 q 290 1442 317 1477 q 263 1322 263 1408 q 284 1287 275 1290 q 300 1299 293 1284 q 315 1339 308 1314 q 330 1383 321 1363 q 351 1414 339 1404 q 382 1409 363 1424 "},"Ò":{"ha":799,"x_min":33,"x_max":741,"o":"m 33 601 q 37 475 33 543 q 56 340 42 407 q 94 212 69 274 q 161 103 119 151 q 260 27 202 56 q 400 -1 319 -1 q 545 56 484 12 q 646 167 605 99 q 709 324 686 235 q 741 521 732 414 q 734 637 741 570 q 713 779 728 705 q 675 924 699 852 q 615 1054 651 997 q 530 1146 579 1111 q 418 1181 481 1181 q 289 1155 346 1181 q 189 1084 232 1128 q 117 981 146 1040 q 68 858 87 922 q 41 727 49 793 q 33 601 33 661 m 102 601 q 110 699 102 644 q 134 811 118 754 q 176 922 151 868 q 237 1019 202 977 q 318 1088 273 1062 q 419 1114 363 1114 q 513 1081 473 1114 q 580 996 552 1048 q 625 877 608 943 q 652 745 643 811 q 665 620 662 680 q 669 521 669 560 q 640 340 658 420 q 588 205 623 260 q 497 121 553 149 q 355 100 441 94 q 252 125 294 100 q 182 191 210 151 q 138 285 153 232 q 114 393 122 338 q 104 503 106 449 q 102 601 102 557 m 350 1531 l 298 1466 q 342 1400 327 1424 q 368 1356 357 1377 q 393 1313 380 1336 q 430 1249 406 1290 q 456 1259 444 1256 q 477 1264 468 1261 q 492 1272 487 1267 q 498 1289 498 1276 q 456 1363 471 1332 q 429 1421 442 1394 q 399 1473 416 1447 q 350 1531 382 1499 "},"Ó":{"ha":799,"x_min":33,"x_max":741,"o":"m 33 601 q 37 475 33 543 q 56 340 42 407 q 94 212 69 274 q 161 103 119 151 q 260 27 202 56 q 400 -1 319 -1 q 545 56 484 12 q 646 167 605 99 q 709 324 686 235 q 741 521 732 414 q 734 637 741 570 q 713 779 728 705 q 675 924 699 852 q 615 1054 651 997 q 530 1146 579 1111 q 418 1181 481 1181 q 289 1155 346 1181 q 189 1084 232 1128 q 117 981 146 1040 q 68 858 87 922 q 41 727 49 793 q 33 601 33 661 m 102 601 q 110 699 102 644 q 134 811 118 754 q 176 922 151 868 q 237 1019 202 977 q 318 1088 273 1062 q 419 1114 363 1114 q 513 1081 473 1114 q 580 996 552 1048 q 625 877 608 943 q 652 745 643 811 q 665 620 662 680 q 669 521 669 560 q 640 340 658 420 q 588 205 623 260 q 497 121 553 149 q 355 100 441 94 q 252 125 294 100 q 182 191 210 151 q 138 285 153 232 q 114 393 122 338 q 104 503 106 449 q 102 601 102 557 m 505 1430 q 465 1458 476 1443 q 450 1480 454 1473 q 439 1483 445 1488 q 417 1453 434 1478 q 366 1378 400 1428 q 267 1245 331 1328 l 320 1218 q 367 1274 345 1248 q 412 1324 389 1299 q 457 1373 434 1348 q 505 1430 480 1398 "},"Ô":{"ha":799,"x_min":33,"x_max":741,"o":"m 33 601 q 37 475 33 543 q 56 340 42 407 q 94 212 69 274 q 161 103 119 151 q 260 27 202 56 q 400 -1 319 -1 q 545 56 484 12 q 646 167 605 99 q 709 324 686 235 q 741 521 732 414 q 734 637 741 570 q 713 779 728 705 q 675 924 699 852 q 615 1054 651 997 q 530 1146 579 1111 q 418 1181 481 1181 q 289 1155 346 1181 q 189 1084 232 1128 q 117 981 146 1040 q 68 858 87 922 q 41 727 49 793 q 33 601 33 661 m 102 601 q 110 699 102 644 q 134 811 118 754 q 176 922 151 868 q 237 1019 202 977 q 318 1088 273 1062 q 419 1114 363 1114 q 513 1081 473 1114 q 580 996 552 1048 q 625 877 608 943 q 652 745 643 811 q 665 620 662 680 q 669 521 669 560 q 640 340 658 420 q 588 205 623 260 q 497 121 553 149 q 355 100 441 94 q 252 125 294 100 q 182 191 210 151 q 138 285 153 232 q 114 393 122 338 q 104 503 106 449 q 102 601 102 557 m 418 1501 q 461 1436 446 1459 q 488 1392 476 1412 q 512 1348 499 1371 q 549 1283 525 1324 q 575 1294 563 1291 q 597 1299 587 1297 q 612 1307 606 1302 q 617 1324 617 1312 q 568 1411 590 1367 q 525 1495 547 1454 q 479 1575 503 1537 q 422 1645 454 1613 l 180 1317 l 233 1289 q 280 1345 258 1320 q 325 1394 302 1370 q 370 1444 347 1419 q 418 1501 393 1470 "},"Õ":{"ha":799,"x_min":33,"x_max":741,"o":"m 33 601 q 37 475 33 543 q 56 340 42 407 q 94 212 69 274 q 161 103 119 151 q 260 27 202 56 q 400 -1 319 -1 q 545 56 484 12 q 646 167 605 99 q 709 324 686 235 q 741 521 732 414 q 734 637 741 570 q 713 779 728 705 q 675 924 699 852 q 615 1054 651 997 q 530 1146 579 1111 q 418 1181 481 1181 q 289 1155 346 1181 q 189 1084 232 1128 q 117 981 146 1040 q 68 858 87 922 q 41 727 49 793 q 33 601 33 661 m 102 601 q 110 699 102 644 q 134 811 118 754 q 176 922 151 868 q 237 1019 202 977 q 318 1088 273 1062 q 419 1114 363 1114 q 513 1081 473 1114 q 580 996 552 1048 q 625 877 608 943 q 652 745 643 811 q 665 620 662 680 q 669 521 669 560 q 640 340 658 420 q 588 205 623 260 q 497 121 553 149 q 355 100 441 94 q 252 125 294 100 q 182 191 210 151 q 138 285 153 232 q 114 393 122 338 q 104 503 106 449 q 102 601 102 557 m 313 1377 q 357 1339 335 1362 q 403 1297 380 1317 q 451 1267 426 1278 q 502 1266 476 1256 q 555 1313 528 1276 q 613 1424 583 1350 q 600 1452 613 1443 q 575 1461 586 1461 q 518 1367 541 1397 q 477 1330 495 1337 q 443 1334 458 1322 q 409 1364 427 1345 q 368 1406 391 1383 q 311 1444 345 1428 q 221 1410 248 1444 q 194 1290 194 1375 q 215 1255 206 1257 q 231 1267 224 1252 q 245 1306 239 1282 q 261 1351 252 1331 q 282 1381 270 1371 q 313 1377 294 1392 "},"Ö":{"ha":799,"x_min":33,"x_max":741,"o":"m 33 601 q 37 475 33 543 q 56 340 42 407 q 94 212 69 274 q 161 103 119 151 q 260 27 202 56 q 400 -1 319 -1 q 545 56 484 12 q 646 167 605 99 q 709 324 686 235 q 741 521 732 414 q 734 637 741 570 q 713 779 728 705 q 675 924 699 852 q 615 1054 651 997 q 530 1146 579 1111 q 418 1181 481 1181 q 289 1155 346 1181 q 189 1084 232 1128 q 117 981 146 1040 q 68 858 87 922 q 41 727 49 793 q 33 601 33 661 m 102 601 q 110 699 102 644 q 134 811 118 754 q 176 922 151 868 q 237 1019 202 977 q 318 1088 273 1062 q 419 1114 363 1114 q 513 1081 473 1114 q 580 996 552 1048 q 625 877 608 943 q 652 745 643 811 q 665 620 662 680 q 669 521 669 560 q 640 340 658 420 q 588 205 623 260 q 497 121 553 149 q 355 100 441 94 q 252 125 294 100 q 182 191 210 151 q 138 285 153 232 q 114 393 122 338 q 104 503 106 449 q 102 601 102 557 m 183 1314 q 195 1289 187 1302 q 216 1266 203 1276 q 242 1249 228 1256 q 271 1242 256 1242 q 325 1266 300 1242 q 357 1314 350 1290 q 356 1356 363 1341 q 334 1379 349 1371 q 302 1388 320 1386 q 271 1389 285 1389 q 239 1388 256 1389 q 206 1379 221 1386 q 184 1356 191 1371 q 183 1314 176 1341 m 450 1314 q 483 1266 457 1290 q 538 1242 509 1242 q 566 1249 552 1242 q 592 1266 581 1256 q 612 1289 604 1276 q 624 1314 621 1302 q 623 1356 631 1341 q 602 1379 616 1371 q 570 1388 587 1386 q 538 1389 552 1389 q 506 1388 524 1389 q 473 1379 488 1386 q 451 1356 458 1371 q 450 1314 444 1341 "},"Ø":{"ha":799,"x_min":33,"x_max":741,"o":"m 33 601 q 37 475 33 543 q 56 340 42 407 q 94 212 69 274 q 161 103 119 151 q 260 27 202 56 q 400 -1 319 -1 q 545 56 484 12 q 646 167 605 99 q 709 324 686 235 q 741 521 732 414 q 734 637 741 570 q 713 779 728 705 q 675 924 699 852 q 615 1054 651 997 q 530 1146 579 1111 q 418 1181 481 1181 q 289 1155 346 1181 q 189 1084 232 1128 q 117 981 146 1040 q 68 858 87 922 q 41 727 49 793 q 33 601 33 661 m 102 601 q 110 699 102 644 q 134 811 118 754 q 176 922 151 868 q 237 1019 202 977 q 318 1088 273 1062 q 419 1114 363 1114 q 513 1081 473 1114 q 580 996 552 1048 q 625 877 608 943 q 652 745 643 811 q 665 620 662 680 q 669 521 669 560 q 640 340 658 420 q 588 205 623 260 q 497 121 553 149 q 355 100 441 94 q 252 125 294 100 q 182 191 210 151 q 138 285 153 232 q 114 393 122 338 q 104 503 106 449 q 102 601 102 557 m 535 1161 l 144 25 l 221 -41 l 632 1161 q 593 1208 609 1198 q 565 1212 577 1218 q 546 1190 554 1207 q 535 1161 539 1174 "},"Ù":{"ha":937,"x_min":39,"x_max":899,"o":"m 720 452 l 720 452 l 825 35 l 899 35 q 897 63 899 46 q 886 122 894 80 q 865 239 878 164 q 830 441 852 315 q 779 753 808 567 q 708 1203 749 940 l 618 1138 q 641 1023 631 1073 q 659 926 651 972 q 671 831 667 879 q 675 722 675 783 q 668 610 675 674 q 644 478 661 547 q 602 342 628 410 q 538 222 575 275 q 454 137 502 170 q 345 104 406 104 q 257 174 302 114 q 178 347 212 233 q 128 632 144 461 q 132 1035 113 803 l 61 1042 q 41 777 39 911 q 62 519 42 642 q 119 293 83 396 q 204 122 155 190 q 313 29 254 54 q 439 37 373 4 q 577 170 506 71 q 720 452 648 270 m 335 1514 l 283 1449 q 327 1383 312 1407 q 353 1339 342 1359 q 378 1295 365 1318 q 415 1232 391 1272 q 441 1241 429 1238 q 463 1246 453 1244 q 477 1254 472 1249 q 483 1271 483 1259 q 441 1345 456 1314 q 414 1403 427 1377 q 385 1455 401 1430 q 335 1514 368 1481 "},"Ú":{"ha":937,"x_min":39,"x_max":899,"o":"m 720 452 l 720 452 l 825 35 l 899 35 q 897 63 899 46 q 886 122 894 80 q 865 239 878 164 q 830 441 852 315 q 779 753 808 567 q 708 1203 749 940 l 618 1138 q 641 1023 631 1073 q 659 926 651 972 q 671 831 667 879 q 675 722 675 783 q 668 610 675 674 q 644 478 661 547 q 602 342 628 410 q 538 222 575 275 q 454 137 502 170 q 345 104 406 104 q 257 174 302 114 q 178 347 212 233 q 128 632 144 461 q 132 1035 113 803 l 61 1042 q 41 777 39 911 q 62 519 42 642 q 119 293 83 396 q 204 122 155 190 q 313 29 254 54 q 439 37 373 4 q 577 170 506 71 q 720 452 648 270 m 578 1397 q 538 1426 549 1411 q 523 1448 528 1440 q 513 1451 518 1455 q 490 1421 507 1446 q 439 1345 473 1396 q 340 1213 404 1295 l 393 1185 q 440 1241 418 1215 q 485 1291 463 1267 q 530 1341 507 1316 q 578 1397 553 1366 "},"Û":{"ha":937,"x_min":39,"x_max":899,"o":"m 720 452 l 720 452 l 825 35 l 899 35 q 897 63 899 46 q 886 122 894 80 q 865 239 878 164 q 830 441 852 315 q 779 753 808 567 q 708 1203 749 940 l 618 1138 q 641 1023 631 1073 q 659 926 651 972 q 671 831 667 879 q 675 722 675 783 q 668 610 675 674 q 644 478 661 547 q 602 342 628 410 q 538 222 575 275 q 454 137 502 170 q 345 104 406 104 q 257 174 302 114 q 178 347 212 233 q 128 632 144 461 q 132 1035 113 803 l 61 1042 q 41 777 39 911 q 62 519 42 642 q 119 293 83 396 q 204 122 155 190 q 313 29 254 54 q 439 37 373 4 q 577 170 506 71 q 720 452 648 270 m 350 1482 q 393 1417 378 1440 q 420 1373 408 1393 q 444 1329 431 1352 q 481 1264 457 1305 q 507 1275 495 1272 q 529 1280 519 1278 q 544 1288 538 1283 q 549 1305 549 1293 q 500 1392 522 1348 q 457 1476 479 1435 q 411 1556 435 1518 q 354 1626 387 1594 l 113 1298 l 165 1270 q 212 1326 190 1301 q 257 1375 235 1351 q 302 1426 279 1400 q 350 1482 326 1451 "},"Ü":{"ha":937,"x_min":39,"x_max":899,"o":"m 720 452 l 720 452 l 825 35 l 899 35 q 897 63 899 46 q 886 122 894 80 q 865 239 878 164 q 830 441 852 315 q 779 753 808 567 q 708 1203 749 940 l 618 1138 q 641 1023 631 1073 q 659 926 651 972 q 671 831 667 879 q 675 722 675 783 q 668 610 675 674 q 644 478 661 547 q 602 342 628 410 q 538 222 575 275 q 454 137 502 170 q 345 104 406 104 q 257 174 302 114 q 178 347 212 233 q 128 632 144 461 q 132 1035 113 803 l 61 1042 q 41 777 39 911 q 62 519 42 642 q 119 293 83 396 q 204 122 155 190 q 313 29 254 54 q 439 37 373 4 q 577 170 506 71 q 720 452 648 270 m 126 1261 q 138 1236 130 1249 q 159 1213 146 1223 q 185 1196 171 1203 q 214 1190 199 1190 q 268 1213 243 1190 q 300 1261 293 1237 q 299 1303 307 1289 q 277 1326 292 1318 q 245 1335 263 1333 q 214 1336 228 1336 q 182 1335 199 1336 q 149 1326 164 1333 q 127 1303 134 1318 q 126 1261 119 1289 m 393 1261 q 426 1213 400 1237 q 481 1190 452 1190 q 509 1196 495 1190 q 535 1213 524 1203 q 555 1236 547 1223 q 567 1261 564 1249 q 566 1303 574 1289 q 545 1326 559 1318 q 513 1335 530 1333 q 481 1336 495 1336 q 449 1335 467 1336 q 416 1326 431 1333 q 394 1303 401 1318 q 393 1261 387 1289 "},"Ý":{"ha":822,"x_min":8,"x_max":811,"o":"m 529 590 l 529 590 l 529 -18 q 579 -17 562 -18 q 606 -11 597 -16 q 618 5 616 -5 q 624 34 621 15 q 616 154 617 80 q 621 319 616 228 q 637 513 627 410 q 661 722 647 617 q 691 928 674 826 q 726 1119 708 1031 q 766 1277 745 1207 q 807 1389 787 1347 q 806 1406 811 1398 q 791 1417 800 1413 q 771 1423 781 1421 q 755 1426 761 1426 q 747 1426 753 1426 q 738 1424 741 1426 q 694 1328 713 1383 q 659 1208 674 1272 q 630 1074 643 1143 q 606 937 617 1004 q 585 807 595 869 q 564 694 575 745 q 467 804 509 753 q 391 905 426 856 q 322 1004 355 955 q 250 1106 289 1053 q 161 1220 210 1160 q 43 1354 111 1280 l 8 1320 q 60 1220 23 1279 q 144 1093 96 1161 q 248 954 193 1025 q 357 814 304 882 q 455 688 410 746 q 529 590 500 629 m 553 1676 q 514 1705 525 1690 q 498 1727 503 1720 q 488 1730 494 1735 q 466 1700 483 1725 q 414 1625 449 1675 q 316 1492 380 1575 l 369 1465 q 416 1520 393 1495 q 460 1571 438 1546 q 506 1620 483 1595 q 553 1676 529 1645 "},"à":{"ha":625,"x_min":34,"x_max":593,"o":"m 34 156 q 52 90 34 119 q 97 39 69 60 q 159 8 125 19 q 225 -3 193 -3 q 288 -1 250 -3 q 367 4 326 0 q 450 16 408 8 q 523 35 491 23 q 574 64 555 47 q 590 104 593 81 q 571 404 583 282 q 543 606 559 526 q 507 730 528 685 q 463 796 487 774 q 410 825 438 818 q 349 837 381 831 q 273 831 317 837 q 190 810 229 826 q 123 764 151 793 q 95 689 95 735 q 164 701 132 689 q 229 728 197 713 q 295 754 262 742 q 365 766 328 766 q 444 693 419 742 q 477 590 469 644 q 485 484 486 536 q 487 400 484 433 q 487 376 487 393 q 487 338 487 358 q 486 302 487 319 q 486 278 486 285 q 427 320 454 305 q 370 342 399 335 q 309 351 340 350 q 240 353 277 353 q 91 306 148 353 q 34 156 34 259 m 270 282 q 338 279 308 282 q 394 261 369 275 q 441 218 419 247 q 486 138 463 190 q 363 70 427 87 q 245 61 300 53 q 154 95 191 69 q 112 154 117 121 q 143 222 107 187 q 270 282 179 258 m 264 1183 l 213 1118 q 256 1052 241 1076 q 283 1008 271 1028 q 307 964 294 987 q 345 901 320 941 q 370 910 358 907 q 392 916 382 913 q 407 923 401 918 q 412 940 412 928 q 371 1015 385 983 q 344 1072 357 1046 q 314 1124 331 1099 q 264 1183 297 1150 "},"á":{"ha":625,"x_min":34,"x_max":593,"o":"m 34 156 q 52 90 34 119 q 97 39 69 60 q 159 8 125 19 q 225 -3 193 -3 q 288 -1 250 -3 q 367 4 326 0 q 450 16 408 8 q 523 35 491 23 q 574 64 555 47 q 590 104 593 81 q 571 404 583 282 q 543 606 559 526 q 507 730 528 685 q 463 796 487 774 q 410 825 438 818 q 349 837 381 831 q 273 831 317 837 q 190 810 229 826 q 123 764 151 793 q 95 689 95 735 q 164 701 132 689 q 229 728 197 713 q 295 754 262 742 q 365 766 328 766 q 444 693 419 742 q 477 590 469 644 q 485 484 486 536 q 487 400 484 433 q 487 376 487 393 q 487 338 487 358 q 486 302 487 319 q 486 278 486 285 q 427 320 454 305 q 370 342 399 335 q 309 351 340 350 q 240 353 277 353 q 91 306 148 353 q 34 156 34 259 m 270 282 q 338 279 308 282 q 394 261 369 275 q 441 218 419 247 q 486 138 463 190 q 363 70 427 87 q 245 61 300 53 q 154 95 191 69 q 112 154 117 121 q 143 222 107 187 q 270 282 179 258 m 423 1119 q 384 1147 395 1133 q 368 1170 373 1162 q 358 1173 363 1177 q 336 1143 353 1168 q 284 1067 319 1118 q 186 935 250 1017 l 239 907 q 286 963 263 937 q 330 1013 308 989 q 376 1063 353 1038 q 423 1119 399 1088 "},"â":{"ha":625,"x_min":34,"x_max":593,"o":"m 34 156 q 52 90 34 119 q 97 39 69 60 q 159 8 125 19 q 225 -3 193 -3 q 288 -1 250 -3 q 367 4 326 0 q 450 16 408 8 q 523 35 491 23 q 574 64 555 47 q 590 104 593 81 q 571 404 583 282 q 543 606 559 526 q 507 730 528 685 q 463 796 487 774 q 410 825 438 818 q 349 837 381 831 q 273 831 317 837 q 190 810 229 826 q 123 764 151 793 q 95 689 95 735 q 164 701 132 689 q 229 728 197 713 q 295 754 262 742 q 365 766 328 766 q 444 693 419 742 q 477 590 469 644 q 485 484 486 536 q 487 400 484 433 q 487 376 487 393 q 487 338 487 358 q 486 302 487 319 q 486 278 486 285 q 427 320 454 305 q 370 342 399 335 q 309 351 340 350 q 240 353 277 353 q 91 306 148 353 q 34 156 34 259 m 270 282 q 338 279 308 282 q 394 261 369 275 q 441 218 419 247 q 486 138 463 190 q 363 70 427 87 q 245 61 300 53 q 154 95 191 69 q 112 154 117 121 q 143 222 107 187 q 270 282 179 258 m 331 1223 q 374 1158 359 1181 q 401 1114 389 1134 q 425 1069 412 1093 q 463 1005 438 1046 q 488 1016 476 1013 q 510 1021 500 1019 q 525 1029 519 1024 q 530 1046 530 1034 q 481 1133 503 1089 q 438 1217 460 1176 q 392 1297 416 1259 q 335 1367 368 1335 l 94 1039 l 146 1010 q 193 1067 171 1042 q 238 1116 216 1092 q 283 1166 260 1141 q 331 1223 307 1192 "},"ã":{"ha":625,"x_min":34,"x_max":593,"o":"m 34 156 q 52 90 34 119 q 97 39 69 60 q 159 8 125 19 q 225 -3 193 -3 q 288 -1 250 -3 q 367 4 326 0 q 450 16 408 8 q 523 35 491 23 q 574 64 555 47 q 590 104 593 81 q 571 404 583 282 q 543 606 559 526 q 507 730 528 685 q 463 796 487 774 q 410 825 438 818 q 349 837 381 831 q 273 831 317 837 q 190 810 229 826 q 123 764 151 793 q 95 689 95 735 q 164 701 132 689 q 229 728 197 713 q 295 754 262 742 q 365 766 328 766 q 444 693 419 742 q 477 590 469 644 q 485 484 486 536 q 487 400 484 433 q 487 376 487 393 q 487 338 487 358 q 486 302 487 319 q 486 278 486 285 q 427 320 454 305 q 370 342 399 335 q 309 351 340 350 q 240 353 277 353 q 91 306 148 353 q 34 156 34 259 m 270 282 q 338 279 308 282 q 394 261 369 275 q 441 218 419 247 q 486 138 463 190 q 363 70 427 87 q 245 61 300 53 q 154 95 191 69 q 112 154 117 121 q 143 222 107 187 q 270 282 179 258 m 221 994 q 265 957 243 979 q 311 915 288 935 q 359 884 334 895 q 410 884 384 873 q 463 930 435 894 q 521 1042 491 967 q 507 1069 521 1061 q 483 1078 494 1078 q 426 985 449 1015 q 385 947 403 955 q 351 951 366 940 q 317 982 335 963 q 275 1023 298 1001 q 218 1062 252 1046 q 129 1027 156 1062 q 102 907 102 993 q 123 872 114 875 q 139 884 132 869 q 153 924 146 899 q 169 968 160 948 q 190 999 178 989 q 221 994 202 1009 "},"ä":{"ha":625,"x_min":34,"x_max":593,"o":"m 34 156 q 52 90 34 119 q 97 39 69 60 q 159 8 125 19 q 225 -3 193 -3 q 288 -1 250 -3 q 367 4 326 0 q 450 16 408 8 q 523 35 491 23 q 574 64 555 47 q 590 104 593 81 q 571 404 583 282 q 543 606 559 526 q 507 730 528 685 q 463 796 487 774 q 410 825 438 818 q 349 837 381 831 q 273 831 317 837 q 190 810 229 826 q 123 764 151 793 q 95 689 95 735 q 164 701 132 689 q 229 728 197 713 q 295 754 262 742 q 365 766 328 766 q 444 693 419 742 q 477 590 469 644 q 485 484 486 536 q 487 400 484 433 q 487 376 487 393 q 487 338 487 358 q 486 302 487 319 q 486 278 486 285 q 427 320 454 305 q 370 342 399 335 q 309 351 340 350 q 240 353 277 353 q 91 306 148 353 q 34 156 34 259 m 270 282 q 338 279 308 282 q 394 261 369 275 q 441 218 419 247 q 486 138 463 190 q 363 70 427 87 q 245 61 300 53 q 154 95 191 69 q 112 154 117 121 q 143 222 107 187 q 270 282 179 258 m 91 983 q 103 958 95 971 q 123 935 111 945 q 150 918 136 925 q 179 911 164 911 q 233 935 208 911 q 264 983 258 959 q 264 1025 271 1010 q 242 1048 256 1040 q 210 1057 228 1055 q 179 1058 193 1058 q 146 1057 164 1058 q 114 1048 129 1055 q 92 1025 99 1040 q 91 983 84 1010 m 358 983 q 391 935 365 959 q 446 911 416 911 q 474 918 460 911 q 500 935 488 925 q 520 958 511 945 q 532 983 529 971 q 531 1025 538 1010 q 509 1048 524 1040 q 477 1057 495 1055 q 446 1058 460 1058 q 414 1057 431 1058 q 381 1048 396 1055 q 359 1025 366 1040 q 358 983 351 1010 "},"å":{"ha":625,"x_min":34,"x_max":593,"o":"m 34 156 q 52 90 34 119 q 97 39 69 60 q 159 8 125 19 q 225 -3 193 -3 q 288 -1 250 -3 q 367 4 326 0 q 450 16 408 8 q 523 35 491 23 q 574 64 555 47 q 590 104 593 81 q 571 404 583 282 q 543 606 559 526 q 507 730 528 685 q 463 796 487 774 q 410 825 438 818 q 349 837 381 831 q 273 831 317 837 q 190 810 229 826 q 123 764 151 793 q 95 689 95 735 q 164 701 132 689 q 229 728 197 713 q 295 754 262 742 q 365 766 328 766 q 444 693 419 742 q 477 590 469 644 q 485 484 486 536 q 487 400 484 433 q 487 376 487 393 q 487 338 487 358 q 486 302 487 319 q 486 278 486 285 q 427 320 454 305 q 370 342 399 335 q 309 351 340 350 q 240 353 277 353 q 91 306 148 353 q 34 156 34 259 m 270 282 q 338 279 308 282 q 394 261 369 275 q 441 218 419 247 q 486 138 463 190 q 363 70 427 87 q 245 61 300 53 q 154 95 191 69 q 112 154 117 121 q 143 222 107 187 q 270 282 179 258 m 220 926 q 225 887 220 907 q 243 850 231 867 q 276 822 255 833 q 328 811 297 811 q 372 823 354 811 q 402 851 391 834 q 419 887 414 868 q 425 921 425 906 q 392 1007 425 970 q 293 1044 359 1044 q 254 1031 269 1044 q 232 999 240 1017 q 222 960 224 981 q 220 926 220 940 m 256 926 q 264 983 248 964 q 302 1004 279 1002 q 347 987 324 1005 q 374 930 369 968 q 355 886 368 907 q 327 859 343 865 q 292 865 311 852 q 256 926 274 879 "},"æ":{"ha":1048,"x_min":34,"x_max":1013,"o":"m 34 156 q 52 90 34 119 q 97 39 69 60 q 159 8 125 19 q 225 -3 193 -3 q 288 -1 250 -3 q 367 4 326 0 q 450 16 408 8 q 523 35 491 23 q 574 64 555 47 q 590 104 593 81 q 571 404 583 282 q 543 606 559 526 q 507 730 528 685 q 463 796 487 774 q 410 825 438 818 q 349 837 381 831 q 273 831 317 837 q 190 810 229 826 q 123 764 151 793 q 95 689 95 735 q 164 701 132 689 q 229 728 197 713 q 295 754 262 742 q 365 766 328 766 q 444 693 419 742 q 477 590 469 644 q 485 484 486 536 q 487 400 484 433 q 487 376 487 393 q 487 338 487 358 q 486 302 487 319 q 486 278 486 285 q 427 320 454 305 q 370 342 399 335 q 309 351 340 350 q 240 353 277 353 q 91 306 148 353 q 34 156 34 259 m 270 282 q 338 279 308 282 q 394 261 369 275 q 441 218 419 247 q 486 138 463 190 q 363 70 427 87 q 245 61 300 53 q 154 95 191 69 q 112 154 117 121 q 143 222 107 187 q 270 282 179 258 m 507 426 q 503 320 502 374 q 512 215 503 266 q 539 120 521 164 q 587 45 557 76 q 657 2 616 15 q 755 0 699 -11 q 794 4 765 0 q 857 14 823 8 q 920 25 890 19 q 964 35 951 31 q 974 43 967 37 q 988 57 981 49 q 1001 74 996 65 q 1006 91 1006 83 q 937 87 979 91 q 848 84 895 84 q 753 90 802 84 q 667 111 705 95 q 605 159 629 127 q 581 241 581 190 q 581 272 581 251 q 583 319 582 293 q 587 374 585 346 q 594 425 590 401 q 604 465 598 449 q 616 481 609 480 l 997 552 q 1013 600 1013 572 q 999 655 1012 627 q 964 710 986 684 q 913 758 941 736 q 855 791 886 779 q 795 803 825 803 q 687 764 739 803 q 595 669 635 726 q 531 546 555 612 q 507 426 507 480 m 769 734 q 881 708 848 726 q 915 669 914 690 q 888 627 916 648 q 820 591 861 606 q 728 568 779 575 q 629 567 677 560 q 640 617 625 587 q 678 673 655 647 q 727 718 701 700 q 769 734 753 735 "},"ç":{"ha":678,"x_min":34,"x_max":633,"o":"m 34 309 q 55 190 34 247 q 114 90 76 133 q 203 22 152 47 q 316 -4 255 -4 q 410 7 355 -4 q 515 40 465 18 q 599 97 564 62 q 633 179 633 132 q 551 161 590 179 q 474 123 513 144 q 396 85 435 103 q 313 68 357 68 q 216 83 255 57 q 152 153 176 110 q 117 250 127 197 q 103 349 106 304 q 123 449 103 389 q 176 565 142 509 q 253 661 209 621 q 347 700 297 700 q 401 666 381 700 q 431 589 420 632 q 446 505 442 545 q 452 452 450 464 l 498 452 q 494 507 494 473 q 494 580 495 541 q 489 656 494 618 q 471 722 484 693 q 432 764 457 750 q 365 772 407 779 q 223 725 285 772 q 119 608 161 678 q 56 458 77 538 q 34 309 34 377 m 194 -285 q 212 -334 194 -313 q 253 -370 229 -355 q 302 -391 277 -384 q 342 -400 327 -399 q 412 -397 377 -404 q 476 -372 448 -391 q 523 -323 505 -353 q 541 -252 541 -293 q 519 -160 541 -190 q 463 -120 496 -130 q 389 -113 429 -110 q 316 -117 350 -115 q 260 -113 282 -119 q 237 -79 237 -107 q 254 27 262 -4 q 228 56 245 58 q 195 20 210 53 q 189 -68 179 -14 q 197 -108 189 -87 q 218 -147 205 -129 q 250 -177 232 -165 q 285 -189 267 -189 q 429 -182 380 -175 q 493 -208 477 -190 q 498 -252 509 -227 q 463 -300 487 -278 q 407 -337 438 -323 q 351 -347 376 -351 q 311 -338 330 -347 q 273 -316 292 -328 q 235 -294 254 -304 q 194 -285 216 -285 "},"è":{"ha":609,"x_min":42,"x_max":553,"o":"m 47 426 q 43 320 42 374 q 52 215 43 266 q 79 120 61 164 q 127 45 98 76 q 197 2 156 15 q 296 0 239 -11 q 334 4 305 0 q 397 14 363 8 q 460 25 430 19 q 505 35 491 31 q 514 43 507 37 q 528 57 521 49 q 541 74 536 65 q 547 91 547 83 q 477 87 519 91 q 389 84 435 84 q 294 90 342 84 q 208 111 245 95 q 145 159 170 127 q 121 241 121 190 q 121 272 121 251 q 123 319 122 293 q 127 374 125 346 q 134 425 130 401 q 144 465 138 449 q 156 481 149 480 l 537 552 q 553 600 553 572 q 539 655 552 627 q 504 710 526 684 q 454 758 481 736 q 395 791 426 779 q 335 803 365 803 q 227 764 279 803 q 135 669 175 726 q 71 546 95 612 q 47 426 47 480 m 309 734 q 421 708 388 726 q 455 669 454 690 q 429 627 456 648 q 360 591 401 606 q 268 568 319 575 q 170 567 217 560 q 180 617 165 587 q 218 673 195 647 q 267 718 241 700 q 309 734 293 735 m 256 1183 l 205 1118 q 248 1052 233 1076 q 275 1008 263 1028 q 299 964 286 987 q 336 901 312 941 q 362 910 350 907 q 384 916 374 913 q 399 923 393 918 q 404 940 404 928 q 363 1015 377 983 q 336 1072 349 1046 q 306 1124 323 1099 q 256 1183 289 1150 "},"é":{"ha":609,"x_min":42,"x_max":553,"o":"m 47 426 q 43 320 42 374 q 52 215 43 266 q 79 120 61 164 q 127 45 98 76 q 197 2 156 15 q 296 0 239 -11 q 334 4 305 0 q 397 14 363 8 q 460 25 430 19 q 505 35 491 31 q 514 43 507 37 q 528 57 521 49 q 541 74 536 65 q 547 91 547 83 q 477 87 519 91 q 389 84 435 84 q 294 90 342 84 q 208 111 245 95 q 145 159 170 127 q 121 241 121 190 q 121 272 121 251 q 123 319 122 293 q 127 374 125 346 q 134 425 130 401 q 144 465 138 449 q 156 481 149 480 l 537 552 q 553 600 553 572 q 539 655 552 627 q 504 710 526 684 q 454 758 481 736 q 395 791 426 779 q 335 803 365 803 q 227 764 279 803 q 135 669 175 726 q 71 546 95 612 q 47 426 47 480 m 309 734 q 421 708 388 726 q 455 669 454 690 q 429 627 456 648 q 360 591 401 606 q 268 568 319 575 q 170 567 217 560 q 180 617 165 587 q 218 673 195 647 q 267 718 241 700 q 309 734 293 735 m 414 1119 q 374 1147 385 1133 q 359 1170 363 1162 q 349 1173 354 1177 q 326 1143 343 1168 q 275 1067 309 1118 q 176 935 240 1017 l 229 907 q 276 963 254 937 q 321 1013 298 989 q 366 1063 343 1038 q 414 1119 389 1088 "},"ê":{"ha":609,"x_min":42,"x_max":553,"o":"m 47 426 q 43 320 42 374 q 52 215 43 266 q 79 120 61 164 q 127 45 98 76 q 197 2 156 15 q 296 0 239 -11 q 334 4 305 0 q 397 14 363 8 q 460 25 430 19 q 505 35 491 31 q 514 43 507 37 q 528 57 521 49 q 541 74 536 65 q 547 91 547 83 q 477 87 519 91 q 389 84 435 84 q 294 90 342 84 q 208 111 245 95 q 145 159 170 127 q 121 241 121 190 q 121 272 121 251 q 123 319 122 293 q 127 374 125 346 q 134 425 130 401 q 144 465 138 449 q 156 481 149 480 l 537 552 q 553 600 553 572 q 539 655 552 627 q 504 710 526 684 q 454 758 481 736 q 395 791 426 779 q 335 803 365 803 q 227 764 279 803 q 135 669 175 726 q 71 546 95 612 q 47 426 47 480 m 309 734 q 421 708 388 726 q 455 669 454 690 q 429 627 456 648 q 360 591 401 606 q 268 568 319 575 q 170 567 217 560 q 180 617 165 587 q 218 673 195 647 q 267 718 241 700 q 309 734 293 735 m 327 1065 q 370 999 355 1023 q 397 955 385 975 q 421 911 408 935 q 458 846 434 887 q 484 857 472 854 q 506 863 496 860 q 521 870 515 865 q 526 887 526 875 q 477 974 499 930 q 434 1059 456 1017 q 388 1138 412 1100 q 331 1208 363 1176 l 90 880 l 142 852 q 189 908 167 883 q 234 958 212 933 q 279 1008 256 982 q 327 1065 302 1034 "},"ë":{"ha":609,"x_min":42,"x_max":553,"o":"m 47 426 q 43 320 42 374 q 52 215 43 266 q 79 120 61 164 q 127 45 98 76 q 197 2 156 15 q 296 0 239 -11 q 334 4 305 0 q 397 14 363 8 q 460 25 430 19 q 505 35 491 31 q 514 43 507 37 q 528 57 521 49 q 541 74 536 65 q 547 91 547 83 q 477 87 519 91 q 389 84 435 84 q 294 90 342 84 q 208 111 245 95 q 145 159 170 127 q 121 241 121 190 q 121 272 121 251 q 123 319 122 293 q 127 374 125 346 q 134 425 130 401 q 144 465 138 449 q 156 481 149 480 l 537 552 q 553 600 553 572 q 539 655 552 627 q 504 710 526 684 q 454 758 481 736 q 395 791 426 779 q 335 803 365 803 q 227 764 279 803 q 135 669 175 726 q 71 546 95 612 q 47 426 47 480 m 309 734 q 421 708 388 726 q 455 669 454 690 q 429 627 456 648 q 360 591 401 606 q 268 568 319 575 q 170 567 217 560 q 180 617 165 587 q 218 673 195 647 q 267 718 241 700 q 309 734 293 735 m 84 983 q 96 958 88 971 q 117 935 104 945 q 143 918 129 925 q 172 911 157 911 q 226 935 201 911 q 258 983 251 959 q 257 1025 264 1010 q 235 1048 250 1040 q 203 1057 221 1055 q 172 1058 186 1058 q 140 1057 157 1058 q 107 1048 122 1055 q 85 1025 92 1040 q 84 983 77 1010 m 351 983 q 384 935 358 959 q 439 911 410 911 q 467 918 453 911 q 493 935 481 925 q 513 958 505 945 q 525 983 522 971 q 524 1025 532 1010 q 503 1048 517 1040 q 471 1057 488 1055 q 439 1058 453 1058 q 407 1057 425 1058 q 374 1048 389 1055 q 352 1025 359 1040 q 351 983 345 1010 "},"ì":{"ha":262,"x_min":31,"x_max":231,"o":"m 121 703 l 148 -4 q 178 -1 164 0 q 201 -2 191 -1 q 217 0 212 -3 q 222 14 222 3 q 222 180 225 95 q 212 351 218 266 q 197 521 205 437 q 184 685 190 605 q 159 704 174 705 q 121 703 144 703 m 83 1183 l 31 1118 q 75 1052 60 1076 q 101 1008 90 1028 q 125 964 113 987 q 163 901 138 941 q 189 910 176 907 q 210 916 201 913 q 225 923 220 918 q 231 940 231 928 q 189 1015 203 983 q 162 1072 175 1046 q 132 1124 149 1099 q 83 1183 115 1150 "},"í":{"ha":262,"x_min":3,"x_max":240,"o":"m 121 703 l 148 -4 q 178 -1 164 0 q 201 -2 191 -1 q 217 0 212 -3 q 222 14 222 3 q 222 180 225 95 q 212 351 218 266 q 197 521 205 437 q 184 685 190 605 q 159 704 174 705 q 121 703 144 703 m 240 1119 q 201 1147 212 1133 q 185 1170 190 1162 q 175 1173 180 1177 q 153 1143 170 1168 q 101 1067 136 1118 q 3 935 66 1017 l 56 907 q 102 963 80 937 q 147 1013 125 989 q 193 1063 170 1038 q 240 1119 216 1088 "},"î":{"ha":262,"x_min":-87,"x_max":350,"o":"m 121 703 l 148 -4 q 178 -1 164 0 q 201 -2 191 -1 q 217 0 212 -3 q 222 14 222 3 q 222 180 225 95 q 212 351 218 266 q 197 521 205 437 q 184 685 190 605 q 159 704 174 705 q 121 703 144 703 m 151 1223 q 194 1158 179 1181 q 220 1114 209 1134 q 245 1069 232 1093 q 282 1005 258 1046 q 308 1016 296 1013 q 330 1021 320 1019 q 345 1029 339 1024 q 350 1046 350 1034 q 301 1133 323 1089 q 258 1217 279 1176 q 212 1297 236 1259 q 155 1367 187 1335 l -87 1039 l -34 1010 q 13 1067 -9 1042 q 58 1116 35 1092 q 103 1166 80 1141 q 151 1223 126 1192 "},"ï":{"ha":262,"x_min":-96,"x_max":358,"o":"m 121 703 l 148 -4 q 178 -1 164 0 q 201 -2 191 -1 q 217 0 212 -3 q 222 14 222 3 q 222 180 225 95 q 212 351 218 266 q 197 521 205 437 q 184 685 190 605 q 159 704 174 705 q 121 703 144 703 m -90 983 q -77 958 -85 971 q -57 935 -69 945 q -31 918 -45 925 q -1 911 -16 911 q 52 935 27 911 q 84 983 77 959 q 83 1025 91 1010 q 62 1048 76 1040 q 30 1057 47 1055 q -1 1058 12 1058 q -34 1057 -16 1058 q -66 1048 -52 1055 q -89 1025 -81 1040 q -90 983 -96 1010 m 178 983 q 210 935 184 959 q 266 911 236 911 q 294 918 279 911 q 319 935 308 925 q 340 958 331 945 q 351 983 349 971 q 351 1025 358 1010 q 329 1048 343 1040 q 297 1057 315 1055 q 266 1058 279 1058 q 233 1057 251 1058 q 201 1048 216 1055 q 178 1025 186 1040 q 178 983 171 1010 "},"ñ":{"ha":732,"x_min":26,"x_max":689,"o":"m 62 9 q 74 5 64 7 q 96 3 84 4 q 117 2 107 3 q 130 0 127 1 q 145 259 132 126 q 189 507 159 392 q 269 706 220 621 q 393 822 319 791 q 510 775 465 822 q 580 656 555 728 q 614 494 605 583 q 623 322 623 406 q 619 171 624 239 q 613 71 614 103 q 611 10 606 26 q 627 -6 616 -5 q 654 1 637 -7 q 685 14 670 9 q 687 206 685 106 q 685 404 689 307 q 667 588 681 500 q 623 742 654 675 q 541 848 593 808 q 411 891 490 888 q 321 877 361 895 q 252 826 282 859 q 200 751 221 793 q 165 666 179 709 q 143 581 151 623 q 133 509 136 540 q 133 551 133 521 q 130 616 133 581 q 121 689 127 652 q 103 750 115 726 q 72 782 91 774 q 26 766 53 789 q 26 757 26 764 q 26 741 26 750 q 28 725 27 732 q 30 716 28 718 q 37 632 34 688 q 41 508 39 576 q 45 363 43 439 q 50 218 47 288 q 56 94 53 149 q 62 9 58 38 m 300 1131 q 344 1094 321 1116 q 389 1052 366 1072 q 437 1021 412 1032 q 488 1021 463 1010 q 542 1067 514 1031 q 600 1179 570 1104 q 586 1206 600 1198 q 562 1215 572 1215 q 505 1122 528 1152 q 463 1084 481 1092 q 429 1088 445 1077 q 395 1119 414 1100 q 354 1160 377 1138 q 297 1199 331 1183 q 208 1164 235 1199 q 180 1044 180 1130 q 201 1009 193 1012 q 218 1021 210 1006 q 232 1061 225 1036 q 248 1105 239 1085 q 269 1136 256 1126 q 300 1131 281 1146 "},"ò":{"ha":671,"x_min":43,"x_max":618,"o":"m 43 331 q 86 119 43 197 q 193 14 129 42 q 330 4 256 -14 q 468 75 404 22 q 574 212 532 127 q 614 406 616 297 q 600 557 618 480 q 547 698 582 635 q 462 801 511 761 q 354 841 412 841 q 254 815 298 841 q 174 747 209 789 q 115 650 140 704 q 75 539 91 595 q 51 428 58 483 q 43 331 43 373 m 111 324 q 117 401 111 357 q 137 492 123 445 q 170 587 151 540 q 218 670 190 633 q 280 729 245 707 q 358 751 315 751 q 439 723 403 751 q 499 647 475 694 q 536 538 524 600 q 547 411 549 476 q 509 254 543 324 q 429 138 476 184 q 328 75 382 92 q 227 76 274 57 q 148 155 180 95 q 111 324 115 214 m 286 1183 l 235 1118 q 278 1052 263 1076 q 304 1008 293 1028 q 329 964 316 987 q 366 901 342 941 q 392 910 380 907 q 414 916 404 913 q 429 923 423 918 q 434 940 434 928 q 393 1015 407 983 q 366 1072 378 1046 q 336 1124 353 1099 q 286 1183 319 1150 "},"ó":{"ha":671,"x_min":43,"x_max":618,"o":"m 43 331 q 86 119 43 197 q 193 14 129 42 q 330 4 256 -14 q 468 75 404 22 q 574 212 532 127 q 614 406 616 297 q 600 557 618 480 q 547 698 582 635 q 462 801 511 761 q 354 841 412 841 q 254 815 298 841 q 174 747 209 789 q 115 650 140 704 q 75 539 91 595 q 51 428 58 483 q 43 331 43 373 m 111 324 q 117 401 111 357 q 137 492 123 445 q 170 587 151 540 q 218 670 190 633 q 280 729 245 707 q 358 751 315 751 q 439 723 403 751 q 499 647 475 694 q 536 538 524 600 q 547 411 549 476 q 509 254 543 324 q 429 138 476 184 q 328 75 382 92 q 227 76 274 57 q 148 155 180 95 q 111 324 115 214 m 445 1119 q 406 1147 416 1133 q 390 1170 395 1162 q 380 1173 385 1177 q 357 1143 374 1168 q 306 1067 340 1118 q 208 935 271 1017 l 260 907 q 307 963 285 937 q 352 1013 330 989 q 397 1063 374 1038 q 445 1119 420 1088 "},"ô":{"ha":671,"x_min":43,"x_max":618,"o":"m 43 331 q 86 119 43 197 q 193 14 129 42 q 330 4 256 -14 q 468 75 404 22 q 574 212 532 127 q 614 406 616 297 q 600 557 618 480 q 547 698 582 635 q 462 801 511 761 q 354 841 412 841 q 254 815 298 841 q 174 747 209 789 q 115 650 140 704 q 75 539 91 595 q 51 428 58 483 q 43 331 43 373 m 111 324 q 117 401 111 357 q 137 492 123 445 q 170 587 151 540 q 218 670 190 633 q 280 729 245 707 q 358 751 315 751 q 439 723 403 751 q 499 647 475 694 q 536 538 524 600 q 547 411 549 476 q 509 254 543 324 q 429 138 476 184 q 328 75 382 92 q 227 76 274 57 q 148 155 180 95 q 111 324 115 214 m 354 1223 q 397 1158 382 1181 q 424 1114 412 1134 q 448 1069 435 1093 q 486 1005 461 1046 q 511 1016 499 1013 q 533 1021 524 1019 q 548 1029 543 1024 q 553 1046 553 1034 q 505 1133 526 1089 q 461 1217 483 1176 q 415 1297 439 1259 q 358 1367 391 1335 l 117 1039 l 170 1010 q 216 1067 194 1042 q 261 1116 239 1092 q 307 1166 283 1141 q 354 1223 330 1192 "},"õ":{"ha":671,"x_min":43,"x_max":618,"o":"m 43 331 q 86 119 43 197 q 193 14 129 42 q 330 4 256 -14 q 468 75 404 22 q 574 212 532 127 q 614 406 616 297 q 600 557 618 480 q 547 698 582 635 q 462 801 511 761 q 354 841 412 841 q 254 815 298 841 q 174 747 209 789 q 115 650 140 704 q 75 539 91 595 q 51 428 58 483 q 43 331 43 373 m 111 324 q 117 401 111 357 q 137 492 123 445 q 170 587 151 540 q 218 670 190 633 q 280 729 245 707 q 358 751 315 751 q 439 723 403 751 q 499 647 475 694 q 536 538 524 600 q 547 411 549 476 q 509 254 543 324 q 429 138 476 184 q 328 75 382 92 q 227 76 274 57 q 148 155 180 95 q 111 324 115 214 m 245 994 q 290 957 267 979 q 335 915 312 935 q 383 884 358 895 q 434 884 408 873 q 488 930 460 894 q 545 1042 515 967 q 532 1069 545 1061 q 507 1078 518 1078 q 450 985 473 1015 q 409 947 427 955 q 375 951 391 940 q 341 982 359 963 q 300 1023 323 1001 q 243 1062 277 1046 q 153 1027 180 1062 q 126 907 126 993 q 147 872 138 875 q 163 884 156 869 q 178 924 171 899 q 193 968 184 948 q 214 999 202 989 q 245 994 227 1009 "},"ö":{"ha":671,"x_min":43,"x_max":618,"o":"m 43 331 q 86 119 43 197 q 193 14 129 42 q 330 4 256 -14 q 468 75 404 22 q 574 212 532 127 q 614 406 616 297 q 600 557 618 480 q 547 698 582 635 q 462 801 511 761 q 354 841 412 841 q 254 815 298 841 q 174 747 209 789 q 115 650 140 704 q 75 539 91 595 q 51 428 58 483 q 43 331 43 373 m 111 324 q 117 401 111 357 q 137 492 123 445 q 170 587 151 540 q 218 670 190 633 q 280 729 245 707 q 358 751 315 751 q 439 723 403 751 q 499 647 475 694 q 536 538 524 600 q 547 411 549 476 q 509 254 543 324 q 429 138 476 184 q 328 75 382 92 q 227 76 274 57 q 148 155 180 95 q 111 324 115 214 m 115 983 q 127 958 119 971 q 148 935 136 945 q 174 918 160 925 q 203 911 189 911 q 257 935 232 911 q 289 983 282 959 q 288 1025 296 1010 q 267 1048 281 1040 q 235 1057 252 1055 q 203 1058 217 1058 q 171 1057 189 1058 q 138 1048 153 1055 q 116 1025 123 1040 q 115 983 109 1010 m 382 983 q 415 935 389 959 q 471 911 441 911 q 498 918 484 911 q 524 935 513 925 q 545 958 536 945 q 556 983 553 971 q 555 1025 563 1010 q 534 1048 548 1040 q 502 1057 519 1055 q 471 1058 484 1058 q 438 1057 456 1058 q 406 1048 420 1055 q 383 1025 391 1040 q 382 983 376 1010 "},"ø":{"ha":671,"x_min":43,"x_max":618,"o":"m 43 331 q 86 119 43 197 q 193 14 129 42 q 330 4 256 -14 q 468 75 404 22 q 574 212 532 127 q 614 406 616 297 q 600 557 618 480 q 547 698 582 635 q 462 801 511 761 q 354 841 412 841 q 254 815 298 841 q 174 747 209 789 q 115 650 140 704 q 75 539 91 595 q 51 428 58 483 q 43 331 43 373 m 111 324 q 117 401 111 357 q 137 492 123 445 q 170 587 151 540 q 218 670 190 633 q 280 729 245 707 q 358 751 315 751 q 439 723 403 751 q 499 647 475 694 q 536 538 524 600 q 547 411 549 476 q 509 254 543 324 q 429 138 476 184 q 328 75 382 92 q 227 76 274 57 q 148 155 180 95 q 111 324 115 214 m 420 899 l 142 -38 l 197 -92 l 490 899 q 462 939 473 930 q 442 942 450 947 q 429 924 434 937 q 420 899 423 910 "},"ù":{"ha":829,"x_min":34,"x_max":793,"o":"m 35 701 q 75 382 47 513 q 138 169 102 251 q 218 49 175 87 q 308 6 262 11 q 401 26 354 1 q 492 94 449 50 q 570 195 534 137 q 632 316 606 254 l 716 4 l 793 4 q 787 68 793 16 q 770 193 780 119 q 749 351 761 266 q 726 514 736 435 q 708 655 716 593 q 699 746 700 718 l 590 732 q 604 589 610 670 q 574 426 598 507 q 511 273 549 345 q 427 162 472 202 q 334 123 381 122 q 247 185 288 123 q 175 380 206 247 q 132 736 144 513 q 109 742 125 743 q 75 735 92 741 q 46 720 58 730 q 35 701 34 711 m 366 1183 l 315 1118 q 358 1052 343 1076 q 385 1008 373 1028 q 409 964 396 987 q 446 901 422 941 q 472 910 460 907 q 494 916 484 913 q 509 923 503 918 q 514 940 514 928 q 473 1015 487 983 q 446 1072 458 1046 q 416 1124 433 1099 q 366 1183 399 1150 "},"ú":{"ha":829,"x_min":34,"x_max":793,"o":"m 35 701 q 75 382 47 513 q 138 169 102 251 q 218 49 175 87 q 308 6 262 11 q 401 26 354 1 q 492 94 449 50 q 570 195 534 137 q 632 316 606 254 l 716 4 l 793 4 q 787 68 793 16 q 770 193 780 119 q 749 351 761 266 q 726 514 736 435 q 708 655 716 593 q 699 746 700 718 l 590 732 q 604 589 610 670 q 574 426 598 507 q 511 273 549 345 q 427 162 472 202 q 334 123 381 122 q 247 185 288 123 q 175 380 206 247 q 132 736 144 513 q 109 742 125 743 q 75 735 92 741 q 46 720 58 730 q 35 701 34 711 m 524 1119 q 484 1147 495 1133 q 469 1170 473 1162 q 458 1173 464 1177 q 436 1143 453 1168 q 385 1067 419 1118 q 286 935 350 1017 l 339 907 q 386 963 363 937 q 431 1013 408 989 q 476 1063 453 1038 q 524 1119 499 1088 "},"û":{"ha":829,"x_min":34,"x_max":793,"o":"m 35 701 q 75 382 47 513 q 138 169 102 251 q 218 49 175 87 q 308 6 262 11 q 401 26 354 1 q 492 94 449 50 q 570 195 534 137 q 632 316 606 254 l 716 4 l 793 4 q 787 68 793 16 q 770 193 780 119 q 749 351 761 266 q 726 514 736 435 q 708 655 716 593 q 699 746 700 718 l 590 732 q 604 589 610 670 q 574 426 598 507 q 511 273 549 345 q 427 162 472 202 q 334 123 381 122 q 247 185 288 123 q 175 380 206 247 q 132 736 144 513 q 109 742 125 743 q 75 735 92 741 q 46 720 58 730 q 35 701 34 711 m 434 1223 q 477 1158 463 1181 q 504 1114 492 1134 q 528 1069 515 1093 q 566 1005 541 1046 q 591 1016 579 1013 q 613 1021 604 1019 q 628 1029 623 1024 q 633 1046 633 1034 q 585 1133 606 1089 q 541 1217 563 1176 q 495 1297 519 1259 q 438 1367 471 1335 l 197 1039 l 250 1010 q 296 1067 274 1042 q 341 1116 319 1092 q 387 1166 363 1141 q 434 1223 410 1192 "},"ü":{"ha":829,"x_min":34,"x_max":793,"o":"m 35 701 q 75 382 47 513 q 138 169 102 251 q 218 49 175 87 q 308 6 262 11 q 401 26 354 1 q 492 94 449 50 q 570 195 534 137 q 632 316 606 254 l 716 4 l 793 4 q 787 68 793 16 q 770 193 780 119 q 749 351 761 266 q 726 514 736 435 q 708 655 716 593 q 699 746 700 718 l 590 732 q 604 589 610 670 q 574 426 598 507 q 511 273 549 345 q 427 162 472 202 q 334 123 381 122 q 247 185 288 123 q 175 380 206 247 q 132 736 144 513 q 109 742 125 743 q 75 735 92 741 q 46 720 58 730 q 35 701 34 711 m 194 983 q 206 958 198 971 q 227 935 214 945 q 253 918 239 925 q 282 911 267 911 q 336 935 311 911 q 368 983 361 959 q 367 1025 374 1010 q 345 1048 359 1040 q 313 1057 331 1055 q 282 1058 296 1058 q 250 1057 267 1058 q 217 1048 232 1055 q 195 1025 202 1040 q 194 983 187 1010 m 461 983 q 494 935 468 959 q 549 911 519 911 q 577 918 563 911 q 603 935 591 925 q 623 958 614 945 q 635 983 632 971 q 634 1025 642 1010 q 612 1048 627 1040 q 581 1057 598 1055 q 549 1058 563 1058 q 517 1057 534 1058 q 484 1048 499 1055 q 462 1025 469 1040 q 461 983 454 1010 "},"ý":{"ha":694,"x_min":18,"x_max":663,"o":"m 388 -742 l 469 -747 l 663 806 l 574 850 l 491 179 q 452 250 480 199 q 385 365 423 300 q 302 503 346 430 q 220 640 259 575 q 151 754 182 705 q 109 822 121 803 q 82 820 106 825 q 18 780 58 815 l 469 16 q 466 -172 477 -76 q 437 -363 454 -267 q 404 -555 419 -460 q 388 -742 388 -651 m 457 1119 q 418 1147 429 1133 q 402 1170 407 1162 q 392 1173 397 1177 q 370 1143 387 1168 q 318 1067 353 1118 q 220 935 283 1017 l 273 907 q 319 963 297 937 q 364 1013 342 989 q 410 1063 387 1038 q 457 1119 433 1088 "},"ÿ":{"ha":694,"x_min":18,"x_max":663,"o":"m 388 -742 l 469 -747 l 663 806 l 574 850 l 491 179 q 452 250 480 199 q 385 365 423 300 q 302 503 346 430 q 220 640 259 575 q 151 754 182 705 q 109 822 121 803 q 82 820 106 825 q 18 780 58 815 l 469 16 q 466 -172 477 -76 q 437 -363 454 -267 q 404 -555 419 -460 q 388 -742 388 -651 m 126 983 q 138 958 130 971 q 159 935 146 945 q 185 918 171 925 q 214 911 199 911 q 268 935 243 911 q 300 983 293 959 q 299 1025 307 1010 q 277 1048 292 1040 q 245 1057 263 1055 q 214 1058 228 1058 q 182 1057 199 1058 q 149 1048 164 1055 q 127 1025 134 1040 q 126 983 119 1010 m 393 983 q 426 935 400 959 q 481 911 452 911 q 509 918 495 911 q 535 935 524 925 q 555 958 547 945 q 567 983 564 971 q 566 1025 574 1010 q 545 1048 559 1040 q 513 1057 530 1055 q 481 1058 495 1058 q 449 1057 467 1058 q 416 1048 431 1055 q 394 1025 401 1040 q 393 983 387 1010 "},"„":{"ha":391,"x_min":39,"x_max":347,"o":"m 240 114 q 242 58 240 83 q 252 9 244 33 q 273 -39 259 -15 q 312 -94 288 -64 q 322 -90 316 -94 q 334 -79 328 -85 q 343 -68 339 -73 q 347 -58 347 -62 q 342 -39 347 -54 q 330 -5 336 -23 q 318 27 324 12 q 312 46 312 42 q 309 81 311 56 q 307 136 308 107 q 304 191 305 165 q 302 228 302 217 q 266 216 278 228 q 248 186 254 203 q 241 149 241 168 q 240 114 240 129 m 39 172 q 45 111 39 148 q 64 40 52 75 q 96 -20 77 5 q 138 -45 114 -45 q 109 151 122 76 q 87 263 96 225 q 70 307 77 301 q 57 296 62 312 q 47 246 52 279 q 39 172 43 213 "},"‚":{"ha":222,"x_min":52,"x_max":160,"o":"m 52 122 q 57 73 52 111 q 72 -7 62 35 q 94 -83 81 -49 q 121 -121 106 -117 q 147 -104 138 -117 q 158 -77 156 -92 q 159 -45 160 -61 q 159 -18 159 -28 q 146 79 159 33 q 85 157 133 126 q 65 144 79 157 q 52 122 52 130 "},"˘":{"ha":435,"x_min":95,"x_max":302,"o":"m 292 819 l 235 812 q 245 788 244 803 q 250 755 247 773 q 231 711 243 732 q 202 684 218 690 q 168 690 186 677 q 132 751 149 704 q 130 784 127 770 q 138 807 132 798 l 102 807 q 96 777 98 792 q 95 751 95 762 q 100 712 95 732 q 118 675 106 692 q 151 647 130 658 q 203 636 172 636 q 248 648 229 636 q 277 676 266 659 q 294 712 289 693 q 300 746 300 731 q 301 785 300 765 q 292 819 302 804 "},"˙":{"ha":277,"x_min":77,"x_max":201,"o":"m 84 770 q 100 734 91 747 q 138 720 110 720 q 177 736 167 720 q 194 774 187 751 q 198 820 201 802 q 186 849 195 838 q 165 864 178 860 q 138 868 152 868 q 112 863 125 868 q 91 847 99 859 q 80 817 83 836 q 84 770 77 798 "},"•":{"ha":347,"x_min":102,"x_max":283,"o":"m 109 403 q 136 353 115 378 q 186 328 157 328 q 214 338 199 328 q 242 361 229 347 q 264 391 255 376 q 277 418 274 406 q 276 466 283 445 q 254 501 269 487 q 221 523 239 515 q 190 530 203 530 q 159 521 176 530 q 129 494 142 511 q 109 453 115 476 q 109 403 102 430 "},"Ľ":{"ha":886,"x_min":43,"x_max":842,"o":"m 378 1358 q 276 1427 323 1398 q 179 1495 229 1455 l 122 1478 l 382 1267 q 443 1312 416 1287 q 493 1362 469 1336 q 541 1417 517 1389 q 593 1472 564 1444 q 571 1489 593 1488 q 519 1499 549 1489 q 479 1458 492 1473 q 453 1430 465 1443 q 425 1400 441 1416 q 378 1358 410 1385 m 43 1215 l 113 1215 l 182 69 q 504 90 342 69 q 836 129 666 110 l 842 69 q 809 64 841 69 q 726 54 777 60 q 610 40 674 47 q 480 25 545 33 q 355 11 415 18 q 251 0 294 4 q 242 -1 250 0 q 226 -1 235 -1 q 208 -1 217 -1 q 194 -1 199 -1 q 129 41 155 -1 q 87 157 103 84 q 63 324 71 229 q 52 522 56 419 q 50 730 49 625 q 50 929 50 836 q 50 1098 50 1023 q 43 1215 49 1173 "},"Ś":{"ha":886,"x_min":24,"x_max":829,"o":"m 96 138 q 176 66 122 95 q 291 22 229 38 q 413 2 353 7 q 513 0 473 -3 q 650 39 590 7 q 749 120 709 71 q 808 233 788 170 q 829 365 829 296 q 827 411 829 381 q 819 475 825 441 q 802 546 812 510 q 777 611 792 582 q 739 659 761 640 q 686 678 716 678 l 199 678 q 155 691 171 678 q 132 723 140 704 q 124 763 125 742 q 123 802 123 784 q 146 889 123 846 q 203 966 168 932 q 283 1022 239 1001 q 372 1043 327 1043 q 463 1019 423 1043 q 539 968 503 996 q 611 916 575 940 q 692 892 647 892 q 661 994 692 952 q 584 1063 631 1036 q 482 1101 537 1089 q 377 1114 427 1114 q 252 1086 315 1114 q 139 1011 190 1058 q 56 904 88 964 q 24 779 24 844 q 54 685 26 726 q 152 621 81 644 q 343 593 222 597 q 651 609 464 589 q 701 577 681 609 q 734 504 722 545 q 753 422 747 463 q 758 365 758 382 q 738 256 758 309 q 681 161 718 202 q 593 94 644 119 q 479 68 541 68 q 423 72 456 68 q 356 83 391 76 q 287 97 321 90 q 226 113 252 104 q 182 127 199 121 q 165 138 165 134 q 124 165 142 171 q 96 138 106 159 m 553 1397 q 514 1426 525 1411 q 498 1448 503 1440 q 488 1451 494 1455 q 466 1421 483 1446 q 414 1345 449 1396 q 316 1213 380 1295 l 369 1185 q 416 1241 393 1215 q 460 1291 438 1267 q 506 1341 483 1316 q 553 1397 529 1366 "},"Ť":{"ha":694,"x_min":5,"x_max":746,"o":"m 5 982 l 308 1006 q 312 981 309 1015 q 319 884 315 947 q 328 739 323 822 q 338 566 332 656 q 349 385 343 476 q 361 217 355 294 q 372 82 366 140 q 382 0 377 24 q 407 -6 392 -4 q 435 -7 422 -8 q 458 1 449 -5 q 468 23 468 8 q 458 263 468 138 q 438 515 449 388 q 420 768 427 643 q 416 1006 412 892 l 746 1043 q 730 1115 746 1099 q 670 1131 713 1131 q 646 1131 665 1131 q 608 1131 628 1131 q 572 1131 589 1131 q 555 1130 556 1130 q 453 1120 509 1126 q 340 1109 397 1115 q 229 1099 283 1104 q 132 1088 175 1093 q 63 1081 90 1084 q 35 1077 37 1078 l 5 982 m 366 1366 q 315 1402 339 1386 q 266 1434 290 1419 q 218 1466 241 1450 q 168 1501 194 1482 l 111 1485 l 370 1274 q 432 1318 406 1294 q 481 1369 458 1343 q 528 1423 505 1396 q 582 1480 552 1451 q 576 1491 582 1488 q 559 1495 570 1493 q 536 1499 549 1497 q 507 1506 522 1501 q 467 1465 480 1480 q 441 1437 453 1450 q 413 1409 429 1424 q 366 1366 397 1393 "},"Ź":{"ha":1190,"x_min":26,"x_max":1138,"o":"m 269 50 q 277 26 269 35 q 299 10 286 16 q 328 1 312 4 q 355 -1 343 -1 q 551 18 454 -1 q 745 60 648 37 q 939 102 841 83 q 1138 121 1036 121 l 1138 191 q 960 177 1046 191 q 788 146 873 163 q 617 116 703 130 q 444 102 532 102 q 430 102 439 102 q 409 102 420 102 q 387 104 397 103 q 373 104 377 104 q 408 245 385 174 q 460 385 431 316 q 524 521 490 454 q 594 647 559 587 q 653 657 618 654 q 724 664 688 661 q 793 672 760 667 q 848 688 826 677 q 880 717 871 699 q 875 764 888 735 l 636 764 l 860 1251 q 859 1272 867 1264 q 838 1282 850 1279 q 812 1286 825 1286 q 795 1286 799 1286 q 774 1285 789 1286 q 755 1284 758 1284 q 632 1272 704 1279 q 484 1258 560 1265 q 331 1243 407 1251 q 195 1230 255 1236 q 98 1219 136 1223 q 61 1215 61 1215 l 26 1180 q 53 1148 37 1152 q 91 1145 69 1145 q 231 1150 161 1145 q 371 1163 301 1156 q 511 1176 441 1171 q 651 1181 581 1181 q 672 1181 656 1181 q 704 1181 688 1181 q 735 1180 720 1180 q 755 1180 750 1180 l 506 755 l 197 712 l 170 628 l 458 647 l 270 69 q 269 60 269 68 q 269 50 269 53 m 682 1552 q 643 1580 654 1565 q 627 1603 632 1595 q 617 1605 623 1610 q 595 1575 612 1600 q 543 1500 578 1550 q 445 1367 509 1450 l 498 1340 q 545 1396 522 1370 q 589 1446 567 1421 q 635 1495 612 1470 q 682 1552 658 1520 "},"Ż":{"ha":1190,"x_min":26,"x_max":1138,"o":"m 269 50 q 277 26 269 35 q 299 10 286 16 q 328 1 312 4 q 355 -1 343 -1 q 551 18 454 -1 q 745 60 648 37 q 939 102 841 83 q 1138 121 1036 121 l 1138 191 q 960 177 1046 191 q 788 146 873 163 q 617 116 703 130 q 444 102 532 102 q 430 102 439 102 q 409 102 420 102 q 387 104 397 103 q 373 104 377 104 q 408 245 385 174 q 460 385 431 316 q 524 521 490 454 q 594 647 559 587 q 653 657 618 654 q 724 664 688 661 q 793 672 760 667 q 848 688 826 677 q 880 717 871 699 q 875 764 888 735 l 636 764 l 860 1251 q 859 1272 867 1264 q 838 1282 850 1279 q 812 1286 825 1286 q 795 1286 799 1286 q 774 1285 789 1286 q 755 1284 758 1284 q 632 1272 704 1279 q 484 1258 560 1265 q 331 1243 407 1251 q 195 1230 255 1236 q 98 1219 136 1223 q 61 1215 61 1215 l 26 1180 q 53 1148 37 1152 q 91 1145 69 1145 q 231 1150 161 1145 q 371 1163 301 1156 q 511 1176 441 1171 q 651 1181 581 1181 q 672 1181 656 1181 q 704 1181 688 1181 q 735 1180 720 1180 q 755 1180 750 1180 l 506 755 l 197 712 l 170 628 l 458 647 l 270 69 q 269 60 269 68 q 269 50 269 53 m 414 1373 q 430 1336 420 1350 q 468 1322 439 1322 q 507 1338 496 1322 q 524 1377 517 1354 q 528 1422 530 1404 q 516 1451 525 1440 q 494 1466 507 1462 q 468 1470 481 1470 q 441 1466 454 1470 q 420 1449 429 1461 q 410 1419 412 1438 q 414 1373 407 1400 "},"ś":{"ha":712,"x_min":31,"x_max":669,"o":"m 130 146 q 156 85 130 111 q 217 40 182 58 q 289 12 252 22 q 347 0 326 1 q 456 14 400 -5 q 557 69 511 34 q 633 152 604 104 q 663 251 663 199 q 647 369 669 324 q 587 438 625 414 q 497 471 548 463 q 393 480 446 480 q 288 477 339 480 q 195 474 236 473 q 130 484 155 475 q 104 521 104 494 q 125 608 104 574 q 180 662 146 642 q 255 690 213 682 q 339 699 297 699 q 410 698 378 707 q 464 672 441 689 q 503 637 487 655 q 531 609 519 618 q 549 606 543 600 q 559 643 555 612 q 538 713 559 688 q 488 750 518 738 q 422 765 457 762 q 359 768 388 768 q 243 757 301 768 q 138 720 184 746 q 61 648 91 693 q 31 534 31 604 q 43 484 31 510 q 76 435 56 457 q 121 397 96 412 q 174 382 146 382 q 353 395 281 396 q 473 385 426 395 q 546 359 521 376 q 583 323 571 342 q 595 286 594 304 q 594 255 595 267 q 572 178 594 213 q 515 119 549 144 q 441 80 481 94 q 362 66 400 66 q 302 79 330 66 q 246 106 274 91 q 191 134 218 122 q 130 146 163 146 m 465 1119 q 426 1147 437 1133 q 410 1170 415 1162 q 400 1173 406 1177 q 378 1143 395 1168 q 326 1067 361 1118 q 228 935 292 1017 l 281 907 q 328 963 305 937 q 372 1013 350 989 q 418 1063 395 1038 q 465 1119 441 1088 "},"ź":{"ha":868,"x_min":26,"x_max":817,"o":"m 199 382 l 298 382 l 170 4 q 271 0 209 0 q 403 3 332 0 q 545 9 473 5 q 675 17 616 14 q 772 22 734 20 q 817 23 811 24 l 817 84 q 555 80 684 83 q 293 84 426 77 l 397 382 l 651 400 l 647 486 l 476 472 l 636 869 q 537 862 597 868 q 410 848 477 856 q 275 832 343 841 q 153 816 208 823 q 62 804 98 808 q 26 799 27 799 l 34 732 l 513 764 l 363 472 l 193 463 l 199 382 m 544 1119 q 505 1147 515 1133 q 489 1170 494 1162 q 479 1173 484 1177 q 456 1143 473 1168 q 405 1067 439 1118 q 307 935 370 1017 l 359 907 q 406 963 384 937 q 451 1013 429 989 q 496 1063 473 1038 q 544 1119 519 1088 "},"ż":{"ha":868,"x_min":26,"x_max":817,"o":"m 199 382 l 298 382 l 170 4 q 271 0 209 0 q 403 3 332 0 q 545 9 473 5 q 675 17 616 14 q 772 22 734 20 q 817 23 811 24 l 817 84 q 555 80 684 83 q 293 84 426 77 l 397 382 l 651 400 l 647 486 l 476 472 l 636 869 q 537 862 597 868 q 410 848 477 856 q 275 832 343 841 q 153 816 208 823 q 62 804 98 808 q 26 799 27 799 l 34 732 l 513 764 l 363 472 l 193 463 l 199 382 m 339 939 q 355 902 346 916 q 393 888 365 888 q 432 904 422 888 q 449 943 442 920 q 453 988 456 970 q 441 1017 450 1006 q 420 1032 433 1028 q 393 1036 407 1036 q 367 1031 380 1036 q 346 1015 354 1027 q 335 985 338 1004 q 339 939 332 966 "},"Ŕ":{"ha":937,"x_min":-30,"x_max":838,"o":"m 769 -3 l 838 -3 q 810 115 819 57 q 790 228 800 172 q 763 337 780 283 q 713 444 746 391 q 628 551 681 498 q 491 656 575 604 q 566 739 528 694 q 635 831 604 783 q 686 934 666 880 q 705 1043 705 987 q 686 1141 705 1105 q 632 1194 666 1177 q 553 1215 598 1211 q 457 1219 509 1219 q 374 1208 423 1219 q 271 1178 326 1198 q 163 1130 217 1158 q 66 1066 110 1101 q -3 989 23 1031 q -30 901 -30 947 q -22 880 -30 892 q -3 857 -14 868 q 20 838 8 846 q 41 830 33 830 q 47 870 42 848 q 63 913 53 892 q 89 950 73 935 q 127 970 104 966 l 127 66 q 138 51 127 58 q 163 37 149 43 q 192 28 178 31 q 214 24 206 24 l 214 483 q 241 517 214 503 q 304 540 267 532 q 378 552 340 548 q 439 556 416 556 q 544 524 499 556 q 623 439 589 491 q 681 324 656 388 q 722 198 705 260 q 750 82 739 136 q 769 -3 761 28 m 465 1147 q 530 1143 499 1147 q 585 1126 562 1139 q 621 1088 608 1112 q 635 1023 635 1063 q 615 935 635 983 q 563 838 595 887 q 487 742 530 788 q 397 659 444 696 q 304 601 351 623 q 214 579 256 579 l 214 1039 q 229 1081 214 1063 q 269 1111 244 1099 q 321 1131 293 1123 q 378 1141 350 1138 q 430 1146 407 1145 q 465 1147 453 1147 m 465 1462 q 426 1491 437 1476 q 410 1513 415 1506 q 400 1516 406 1520 q 378 1486 395 1511 q 326 1411 361 1461 q 228 1278 292 1360 l 281 1251 q 328 1306 305 1280 q 372 1356 350 1332 q 418 1406 395 1381 q 465 1462 441 1431 "},"Ă":{"ha":720,"x_min":38,"x_max":677,"o":"m 326 1127 q 217 1048 260 1101 q 145 920 174 994 q 101 753 117 845 q 76 559 85 661 q 60 351 66 458 q 43 138 54 243 q 42 118 43 133 q 40 87 41 103 q 39 56 39 71 q 38 35 38 41 l 130 35 l 130 416 q 182 404 146 406 q 263 406 218 403 q 357 416 308 410 q 450 425 407 422 q 524 427 492 429 q 564 416 555 426 l 633 35 l 677 35 q 676 139 677 72 q 671 290 675 206 q 659 468 667 373 q 633 656 650 563 q 592 834 617 749 q 530 985 567 920 q 442 1088 492 1050 q 326 1127 392 1127 m 355 1044 q 450 958 414 1004 q 505 862 486 913 q 530 756 524 811 q 536 643 536 701 q 535 618 536 636 q 533 581 534 601 q 531 545 532 562 q 529 521 530 528 q 354 493 446 506 q 174 480 262 480 q 174 562 174 509 q 179 678 175 616 q 194 806 183 741 q 224 924 205 871 q 276 1010 244 977 q 355 1044 308 1044 m 425 1362 l 368 1355 q 378 1331 377 1345 q 382 1298 380 1316 q 363 1254 376 1275 q 335 1226 351 1233 q 300 1233 319 1219 q 264 1294 282 1246 q 262 1326 260 1313 q 271 1350 264 1340 l 235 1350 q 229 1320 231 1335 q 228 1294 228 1305 q 233 1255 228 1275 q 251 1217 239 1234 q 284 1190 263 1200 q 336 1179 305 1179 q 380 1190 362 1179 q 410 1219 399 1202 q 427 1255 422 1236 q 433 1289 433 1274 q 434 1327 433 1308 q 425 1362 435 1347 "},"Ĺ":{"ha":886,"x_min":43,"x_max":842,"o":"m 113 1215 l 43 1215 q 50 1098 49 1173 q 50 929 50 1023 q 50 730 50 836 q 52 522 49 625 q 63 324 56 419 q 87 157 71 229 q 129 41 103 84 q 194 -1 155 -1 q 208 -1 199 -1 q 226 -1 217 -1 q 242 -1 235 -1 q 251 0 250 0 q 355 11 294 4 q 480 25 415 18 q 610 40 545 33 q 726 54 674 47 q 809 64 777 60 q 842 69 841 69 l 836 129 q 504 90 666 110 q 182 69 342 69 l 113 1215 m 502 1481 q 463 1510 473 1495 q 447 1532 452 1525 q 437 1535 442 1539 q 414 1505 431 1530 q 363 1430 397 1480 q 264 1297 328 1379 l 317 1270 q 364 1325 342 1299 q 409 1375 387 1351 q 454 1425 431 1400 q 502 1481 477 1450 "},"Ć":{"ha":789,"x_min":24,"x_max":755,"o":"m 24 469 q 39 304 24 388 q 91 152 53 220 q 193 41 129 84 q 357 -1 256 -1 q 366 -1 359 -1 q 373 0 372 0 q 439 23 400 9 q 519 52 477 37 q 604 81 562 66 q 679 109 646 96 q 733 129 712 121 q 755 138 754 137 l 755 209 q 668 165 720 190 q 558 120 616 141 q 443 84 500 99 q 339 69 385 69 q 219 112 264 75 q 150 204 174 149 q 120 325 126 259 q 121 452 114 391 q 126 555 121 494 q 146 681 132 616 q 182 811 160 746 q 239 928 205 876 q 319 1011 273 979 q 426 1043 365 1043 q 493 1019 471 1043 q 532 965 515 994 q 570 911 549 936 q 629 887 590 887 q 619 968 629 928 q 587 1042 609 1009 q 530 1094 566 1074 q 445 1114 495 1114 q 316 1082 374 1114 q 211 996 258 1050 q 129 875 164 943 q 71 736 94 807 q 36 595 47 665 q 24 469 24 525 m 505 1397 q 465 1426 476 1411 q 450 1448 454 1440 q 439 1451 445 1455 q 417 1421 434 1446 q 366 1345 400 1396 q 267 1213 331 1295 l 320 1185 q 367 1241 345 1215 q 412 1291 389 1267 q 457 1341 434 1316 q 505 1397 480 1366 "},"Č":{"ha":789,"x_min":24,"x_max":755,"o":"m 24 469 q 39 304 24 388 q 91 152 53 220 q 193 41 129 84 q 357 -1 256 -1 q 366 -1 359 -1 q 373 0 372 0 q 439 23 400 9 q 519 52 477 37 q 604 81 562 66 q 679 109 646 96 q 733 129 712 121 q 755 138 754 137 l 755 209 q 668 165 720 190 q 558 120 616 141 q 443 84 500 99 q 339 69 385 69 q 219 112 264 75 q 150 204 174 149 q 120 325 126 259 q 121 452 114 391 q 126 555 121 494 q 146 681 132 616 q 182 811 160 746 q 239 928 205 876 q 319 1011 273 979 q 426 1043 365 1043 q 493 1019 471 1043 q 532 965 515 994 q 570 911 549 936 q 629 887 590 887 q 619 968 629 928 q 587 1042 609 1009 q 530 1094 566 1074 q 445 1114 495 1114 q 316 1082 374 1114 q 211 996 258 1050 q 129 875 164 943 q 71 736 94 807 q 36 595 47 665 q 24 469 24 525 m 414 1366 q 362 1402 387 1386 q 313 1434 338 1419 q 265 1466 289 1450 q 216 1501 241 1482 l 159 1485 l 418 1274 q 479 1318 453 1294 q 529 1369 506 1343 q 576 1423 552 1396 q 629 1480 600 1451 q 623 1491 629 1488 q 607 1495 617 1493 q 583 1499 597 1497 q 555 1506 570 1501 q 514 1465 528 1480 q 488 1437 500 1450 q 460 1409 476 1424 q 414 1366 445 1393 "},"Ě":{"ha":911,"x_min":26,"x_max":878,"o":"m 26 972 q 98 488 83 734 q 114 -1 114 241 q 130 0 125 -1 q 229 10 170 4 q 356 24 289 16 q 492 39 423 31 q 616 53 560 46 q 711 64 673 60 q 755 69 749 68 q 789 75 768 71 q 829 86 810 79 q 863 107 849 94 q 878 144 878 121 q 707 138 792 144 q 538 126 623 133 q 369 114 453 119 q 199 109 285 109 l 199 486 q 220 503 199 494 q 273 522 240 513 q 345 538 305 530 q 424 553 385 547 q 496 564 463 560 q 547 567 529 567 l 547 633 q 462 627 503 633 q 380 611 420 620 q 300 595 340 602 q 218 589 260 589 q 192 589 212 589 q 165 590 172 589 q 157 646 163 608 q 144 730 151 684 q 134 823 138 776 q 129 907 129 871 q 132 946 129 929 q 165 972 136 963 q 221 985 183 977 q 307 1004 259 994 q 408 1026 355 1015 q 509 1048 461 1038 q 595 1066 556 1058 q 651 1077 633 1074 q 691 1076 665 1080 q 742 1074 718 1072 q 782 1092 766 1077 q 791 1146 798 1107 q 773 1147 785 1146 q 747 1148 761 1147 q 720 1149 732 1149 q 704 1150 708 1150 q 595 1149 656 1150 q 469 1141 534 1147 q 336 1124 403 1135 q 210 1094 269 1114 q 102 1044 151 1074 q 26 972 54 1015 m 475 1366 q 423 1402 448 1386 q 374 1434 399 1419 q 326 1466 350 1450 q 277 1501 302 1482 l 220 1485 l 479 1274 q 541 1318 514 1294 q 590 1369 567 1343 q 637 1423 613 1396 q 690 1480 661 1451 q 684 1491 690 1488 q 668 1495 678 1493 q 644 1499 658 1497 q 616 1506 631 1501 q 575 1465 589 1480 q 549 1437 562 1450 q 522 1409 537 1424 q 475 1366 506 1393 "},"Ď":{"ha":972,"x_min":35,"x_max":939,"o":"m 69 903 l 138 69 l 141 3 q 169 1 142 3 q 228 -1 195 0 q 292 -4 260 -3 q 335 -5 323 -5 q 459 3 392 -5 q 593 32 526 12 q 722 83 659 52 q 833 159 785 114 q 909 264 880 203 q 939 400 939 324 q 901 561 939 488 q 802 694 863 633 q 663 802 741 754 q 503 888 585 850 q 345 956 422 926 q 209 1006 267 985 q 195 1007 205 1006 q 174 1008 186 1008 q 153 1010 163 1009 q 138 1010 142 1010 q 117 1011 134 1010 q 82 1010 100 1012 q 50 999 64 1008 q 35 972 35 990 q 39 958 35 968 q 49 937 43 948 q 60 916 54 925 q 69 903 65 906 m 172 911 q 308 895 235 911 q 455 848 381 879 q 597 773 529 817 q 720 675 666 730 q 805 556 773 620 q 837 422 837 492 q 797 258 837 326 q 692 147 757 190 q 547 84 628 104 q 382 64 465 64 q 347 64 372 64 q 295 66 323 65 q 243 68 267 66 q 209 69 218 69 q 205 158 208 98 q 199 294 202 218 q 191 452 195 369 q 184 610 187 534 q 178 745 180 685 q 174 833 175 804 q 174 848 174 837 q 173 873 174 860 q 172 897 172 886 q 172 911 172 907 m 506 1366 q 454 1402 479 1386 q 406 1434 430 1419 q 357 1466 381 1450 q 308 1501 334 1482 l 251 1485 l 510 1274 q 572 1318 545 1294 q 621 1369 598 1343 q 668 1423 644 1396 q 722 1480 692 1451 q 715 1491 722 1488 q 699 1495 709 1493 q 675 1499 689 1497 q 647 1506 662 1501 q 606 1465 620 1480 q 581 1437 593 1450 q 553 1409 568 1424 q 506 1366 537 1393 "},"Ń":{"ha":964,"x_min":22,"x_max":930,"o":"m 130 1077 l 130 1077 l 825 0 l 878 4 q 878 434 876 250 q 886 753 880 618 q 897 977 891 887 q 910 1124 903 1067 q 922 1210 917 1181 q 929 1251 926 1238 q 930 1259 929 1252 q 930 1270 930 1267 q 929 1284 930 1278 q 920 1293 928 1291 q 899 1294 913 1295 q 860 1284 884 1293 q 821 1127 834 1214 q 802 943 807 1040 q 799 744 798 846 q 804 541 800 642 q 811 344 807 439 q 817 165 815 248 l 165 1215 q 128 1242 156 1232 q 77 1252 100 1252 q 40 1237 56 1252 q 24 1200 24 1222 q 24 1107 22 1168 q 30 968 26 1047 q 40 798 34 890 q 54 610 46 705 q 68 423 61 515 q 82 251 76 331 q 93 109 88 171 q 99 14 98 47 l 165 9 q 160 248 165 129 q 147 486 155 368 q 134 722 140 604 q 129 956 129 840 q 129 980 129 963 q 129 1016 129 997 q 130 1053 129 1035 q 130 1077 130 1070 m 591 1561 q 552 1590 563 1575 q 536 1612 541 1605 q 526 1615 532 1619 q 504 1585 521 1610 q 452 1510 487 1560 q 354 1377 418 1459 l 407 1350 q 454 1405 431 1379 q 498 1455 476 1431 q 544 1505 521 1480 q 591 1561 567 1530 "},"Ň":{"ha":964,"x_min":22,"x_max":930,"o":"m 130 1077 l 130 1077 l 825 0 l 878 4 q 878 434 876 250 q 886 753 880 618 q 897 977 891 887 q 910 1124 903 1067 q 922 1210 917 1181 q 929 1251 926 1238 q 930 1259 929 1252 q 930 1270 930 1267 q 929 1284 930 1278 q 920 1293 928 1291 q 899 1294 913 1295 q 860 1284 884 1293 q 821 1127 834 1214 q 802 943 807 1040 q 799 744 798 846 q 804 541 800 642 q 811 344 807 439 q 817 165 815 248 l 165 1215 q 128 1242 156 1232 q 77 1252 100 1252 q 40 1237 56 1252 q 24 1200 24 1222 q 24 1107 22 1168 q 30 968 26 1047 q 40 798 34 890 q 54 610 46 705 q 68 423 61 515 q 82 251 76 331 q 93 109 88 171 q 99 14 98 47 l 165 9 q 160 248 165 129 q 147 486 155 368 q 134 722 140 604 q 129 956 129 840 q 129 980 129 963 q 129 1016 129 997 q 130 1053 129 1035 q 130 1077 130 1070 m 502 1366 q 450 1402 475 1386 q 401 1434 426 1419 q 353 1466 377 1450 q 304 1501 330 1482 l 247 1485 l 506 1274 q 568 1318 541 1294 q 617 1369 594 1343 q 664 1423 640 1396 q 718 1480 688 1451 q 711 1491 718 1488 q 695 1495 705 1493 q 671 1499 685 1497 q 643 1506 658 1501 q 602 1465 616 1480 q 576 1437 589 1450 q 549 1409 564 1424 q 502 1366 533 1393 "},"Ř":{"ha":937,"x_min":-30,"x_max":838,"o":"m 769 -3 l 838 -3 q 810 115 819 57 q 790 228 800 172 q 763 337 780 283 q 713 444 746 391 q 628 551 681 498 q 491 656 575 604 q 566 739 528 694 q 635 831 604 783 q 686 934 666 880 q 705 1043 705 987 q 686 1141 705 1105 q 632 1194 666 1177 q 553 1215 598 1211 q 457 1219 509 1219 q 374 1208 423 1219 q 271 1178 326 1198 q 163 1130 217 1158 q 66 1066 110 1101 q -3 989 23 1031 q -30 901 -30 947 q -22 880 -30 892 q -3 857 -14 868 q 20 838 8 846 q 41 830 33 830 q 47 870 42 848 q 63 913 53 892 q 89 950 73 935 q 127 970 104 966 l 127 66 q 138 51 127 58 q 163 37 149 43 q 192 28 178 31 q 214 24 206 24 l 214 483 q 241 517 214 503 q 304 540 267 532 q 378 552 340 548 q 439 556 416 556 q 544 524 499 556 q 623 439 589 491 q 681 324 656 388 q 722 198 705 260 q 750 82 739 136 q 769 -3 761 28 m 465 1147 q 530 1143 499 1147 q 585 1126 562 1139 q 621 1088 608 1112 q 635 1023 635 1063 q 615 935 635 983 q 563 838 595 887 q 487 742 530 788 q 397 659 444 696 q 304 601 351 623 q 214 579 256 579 l 214 1039 q 229 1081 214 1063 q 269 1111 244 1099 q 321 1131 293 1123 q 378 1141 350 1138 q 430 1146 407 1145 q 465 1147 453 1147 m 488 1366 q 437 1402 461 1386 q 388 1434 412 1419 q 340 1466 363 1450 q 290 1501 316 1482 l 233 1485 l 492 1274 q 554 1318 528 1294 q 604 1369 581 1343 q 650 1423 627 1396 q 704 1480 674 1451 q 698 1491 704 1488 q 682 1495 692 1493 q 658 1499 671 1497 q 629 1506 644 1501 q 589 1465 602 1480 q 563 1437 575 1450 q 535 1409 551 1424 q 488 1366 519 1393 "},"Ů":{"ha":937,"x_min":39,"x_max":899,"o":"m 720 452 l 720 452 l 825 35 l 899 35 q 897 63 899 46 q 886 122 894 80 q 865 239 878 164 q 830 441 852 315 q 779 753 808 567 q 708 1203 749 940 l 618 1138 q 641 1023 631 1073 q 659 926 651 972 q 671 831 667 879 q 675 722 675 783 q 668 610 675 674 q 644 478 661 547 q 602 342 628 410 q 538 222 575 275 q 454 137 502 170 q 345 104 406 104 q 257 174 302 114 q 178 347 212 233 q 128 632 144 461 q 132 1035 113 803 l 61 1042 q 41 777 39 911 q 62 519 42 642 q 119 293 83 396 q 204 122 155 190 q 313 29 254 54 q 439 37 373 4 q 577 170 506 71 q 720 452 648 270 m 312 1294 q 317 1255 312 1275 q 335 1217 323 1234 q 368 1190 347 1200 q 420 1179 389 1179 q 465 1190 446 1179 q 494 1219 483 1202 q 511 1255 506 1236 q 517 1289 517 1274 q 484 1375 517 1337 q 385 1412 452 1412 q 347 1398 361 1412 q 324 1367 332 1385 q 314 1328 316 1348 q 312 1294 312 1308 m 349 1294 q 356 1351 340 1332 q 394 1371 372 1370 q 439 1354 416 1373 q 467 1298 461 1336 q 448 1254 460 1275 q 419 1226 435 1233 q 385 1233 403 1219 q 349 1294 366 1246 "},"ŕ":{"ha":553,"x_min":23,"x_max":528,"o":"m 23 705 q 23 682 23 699 q 24 647 23 666 q 25 612 24 628 q 26 590 26 595 q 32 491 28 548 q 39 373 35 434 q 46 252 42 312 q 54 143 50 191 q 59 65 57 95 q 61 35 61 35 l 130 35 q 115 315 109 202 q 149 498 122 429 q 217 598 175 567 q 308 635 259 629 q 408 624 357 640 q 506 581 460 608 q 513 650 528 621 q 464 697 499 680 q 378 720 429 715 q 277 715 328 724 q 182 682 227 707 q 114 618 138 658 q 106 656 111 637 q 90 690 100 675 q 62 709 79 704 q 23 705 46 715 m 387 1119 q 347 1147 358 1133 q 332 1170 336 1162 q 321 1173 327 1177 q 299 1143 316 1168 q 248 1067 282 1118 q 149 935 213 1017 l 202 907 q 249 963 227 937 q 294 1013 271 989 q 339 1063 316 1038 q 387 1119 362 1088 "},"ă":{"ha":625,"x_min":34,"x_max":593,"o":"m 34 156 q 52 90 34 119 q 97 39 69 60 q 159 8 125 19 q 225 -3 193 -3 q 288 -1 250 -3 q 367 4 326 0 q 450 16 408 8 q 523 35 491 23 q 574 64 555 47 q 590 104 593 81 q 571 404 583 282 q 543 606 559 526 q 507 730 528 685 q 463 796 487 774 q 410 825 438 818 q 349 837 381 831 q 273 831 317 837 q 190 810 229 826 q 123 764 151 793 q 95 689 95 735 q 164 701 132 689 q 229 728 197 713 q 295 754 262 742 q 365 766 328 766 q 444 693 419 742 q 477 590 469 644 q 485 484 486 536 q 487 400 484 433 q 487 376 487 393 q 487 338 487 358 q 486 302 487 319 q 486 278 486 285 q 427 320 454 305 q 370 342 399 335 q 309 351 340 350 q 240 353 277 353 q 91 306 148 353 q 34 156 34 259 m 270 282 q 338 279 308 282 q 394 261 369 275 q 441 218 419 247 q 486 138 463 190 q 363 70 427 87 q 245 61 300 53 q 154 95 191 69 q 112 154 117 121 q 143 222 107 187 q 270 282 179 258 m 404 1104 l 347 1097 q 358 1073 357 1088 q 362 1040 359 1058 q 343 996 355 1017 q 315 968 331 975 q 280 975 298 962 q 244 1036 262 989 q 242 1069 240 1055 q 251 1092 244 1082 l 214 1092 q 209 1062 210 1077 q 208 1036 208 1047 q 213 997 208 1017 q 231 960 218 977 q 264 932 243 943 q 316 921 285 921 q 360 932 342 921 q 390 961 378 944 q 407 997 401 978 q 412 1031 412 1016 q 414 1069 412 1050 q 404 1104 415 1089 "},"ĺ":{"ha":262,"x_min":22,"x_max":259,"o":"m 80 1405 q 79 1376 80 1397 q 77 1332 79 1355 q 75 1288 76 1309 q 75 1259 75 1267 q 80 1043 76 1168 q 88 783 84 918 q 96 514 92 647 q 104 275 100 381 q 111 104 109 170 q 115 37 114 38 l 146 -1 q 173 12 164 0 q 185 38 182 23 q 189 68 189 53 q 190 95 189 84 q 191 112 190 100 q 193 136 193 123 q 195 157 194 148 q 195 170 195 167 q 192 264 194 203 q 187 405 190 326 q 182 576 184 484 q 176 763 179 669 q 169 949 172 857 q 163 1121 165 1042 q 157 1261 160 1200 q 153 1356 155 1322 q 124 1392 142 1382 q 80 1405 106 1402 m 259 1666 q 220 1694 231 1679 q 204 1716 209 1709 q 194 1719 199 1724 q 172 1689 189 1714 q 120 1614 155 1664 q 22 1481 85 1564 l 75 1454 q 121 1510 99 1484 q 166 1560 144 1535 q 212 1609 189 1584 q 259 1666 235 1634 "},"ć":{"ha":678,"x_min":34,"x_max":633,"o":"m 34 309 q 55 190 34 247 q 114 90 76 133 q 203 22 152 47 q 316 -4 255 -4 q 410 7 355 -4 q 515 40 465 18 q 599 97 564 62 q 633 179 633 132 q 551 161 590 179 q 474 123 513 144 q 396 85 435 103 q 313 68 357 68 q 216 83 255 57 q 152 153 176 110 q 117 250 127 197 q 103 349 106 304 q 123 449 103 389 q 176 565 142 509 q 253 661 209 621 q 347 700 297 700 q 401 666 381 700 q 431 589 420 632 q 446 505 442 545 q 452 452 450 464 l 498 452 q 494 507 494 473 q 494 580 495 541 q 489 656 494 618 q 471 722 484 693 q 432 764 457 750 q 365 772 407 779 q 223 725 285 772 q 119 608 161 678 q 56 458 77 538 q 34 309 34 377 m 449 1119 q 410 1147 420 1133 q 394 1170 399 1162 q 384 1173 389 1177 q 361 1143 378 1168 q 310 1067 345 1118 q 212 935 275 1017 l 264 907 q 311 963 289 937 q 356 1013 334 989 q 401 1063 378 1038 q 449 1119 425 1088 "},"č":{"ha":678,"x_min":34,"x_max":633,"o":"m 34 309 q 55 190 34 247 q 114 90 76 133 q 203 22 152 47 q 316 -4 255 -4 q 410 7 355 -4 q 515 40 465 18 q 599 97 564 62 q 633 179 633 132 q 551 161 590 179 q 474 123 513 144 q 396 85 435 103 q 313 68 357 68 q 216 83 255 57 q 152 153 176 110 q 117 250 127 197 q 103 349 106 304 q 123 449 103 389 q 176 565 142 509 q 253 661 209 621 q 347 700 297 700 q 401 666 381 700 q 431 589 420 632 q 446 505 442 545 q 452 452 450 464 l 498 452 q 494 507 494 473 q 494 580 495 541 q 489 656 494 618 q 471 722 484 693 q 432 764 457 750 q 365 772 407 779 q 223 725 285 772 q 119 608 161 678 q 56 458 77 538 q 34 309 34 377 m 358 1088 q 307 1124 331 1108 q 258 1156 282 1141 q 210 1188 233 1172 q 160 1223 186 1204 l 103 1207 l 362 996 q 424 1040 397 1016 q 473 1091 450 1065 q 520 1145 496 1118 q 574 1202 544 1173 q 568 1213 574 1210 q 551 1217 562 1215 q 528 1221 541 1219 q 499 1227 514 1223 q 458 1187 472 1202 q 433 1159 445 1172 q 405 1131 420 1146 q 358 1088 389 1115 "},"ě":{"ha":609,"x_min":42,"x_max":553,"o":"m 47 426 q 43 320 42 374 q 52 215 43 266 q 79 120 61 164 q 127 45 98 76 q 197 2 156 15 q 296 0 239 -11 q 334 4 305 0 q 397 14 363 8 q 460 25 430 19 q 505 35 491 31 q 514 43 507 37 q 528 57 521 49 q 541 74 536 65 q 547 91 547 83 q 477 87 519 91 q 389 84 435 84 q 294 90 342 84 q 208 111 245 95 q 145 159 170 127 q 121 241 121 190 q 121 272 121 251 q 123 319 122 293 q 127 374 125 346 q 134 425 130 401 q 144 465 138 449 q 156 481 149 480 l 537 552 q 553 600 553 572 q 539 655 552 627 q 504 710 526 684 q 454 758 481 736 q 395 791 426 779 q 335 803 365 803 q 227 764 279 803 q 135 669 175 726 q 71 546 95 612 q 47 426 47 480 m 309 734 q 421 708 388 726 q 455 669 454 690 q 429 627 456 648 q 360 591 401 606 q 268 568 319 575 q 170 567 217 560 q 180 617 165 587 q 218 673 195 647 q 267 718 241 700 q 309 734 293 735 m 324 1088 q 273 1124 297 1108 q 224 1156 248 1141 q 176 1188 199 1172 q 126 1223 152 1204 l 69 1207 l 328 996 q 390 1040 363 1016 q 439 1091 416 1065 q 486 1145 463 1118 q 540 1202 510 1173 q 534 1213 540 1210 q 517 1217 528 1215 q 494 1221 507 1219 q 465 1227 480 1223 q 425 1187 438 1202 q 399 1159 411 1172 q 371 1131 387 1146 q 324 1088 355 1115 "},"ň":{"ha":732,"x_min":26,"x_max":689,"o":"m 62 9 q 74 5 64 7 q 96 3 84 4 q 117 2 107 3 q 130 0 127 1 q 145 259 132 126 q 189 507 159 392 q 269 706 220 621 q 393 822 319 791 q 510 775 465 822 q 580 656 555 728 q 614 494 605 583 q 623 322 623 406 q 619 171 624 239 q 613 71 614 103 q 611 10 606 26 q 627 -6 616 -5 q 654 1 637 -7 q 685 14 670 9 q 687 206 685 106 q 685 404 689 307 q 667 588 681 500 q 623 742 654 675 q 541 848 593 808 q 411 891 490 888 q 321 877 361 895 q 252 826 282 859 q 200 751 221 793 q 165 666 179 709 q 143 581 151 623 q 133 509 136 540 q 133 551 133 521 q 130 616 133 581 q 121 689 127 652 q 103 750 115 726 q 72 782 91 774 q 26 766 53 789 q 26 757 26 764 q 26 741 26 750 q 28 725 27 732 q 30 716 28 718 q 37 632 34 688 q 41 508 39 576 q 45 363 43 439 q 50 218 47 288 q 56 94 53 149 q 62 9 58 38 m 387 1088 q 335 1124 359 1108 q 286 1156 311 1141 q 238 1188 262 1172 q 189 1223 214 1204 l 132 1207 l 391 996 q 452 1040 426 1016 q 502 1091 479 1065 q 549 1145 525 1118 q 602 1202 572 1173 q 596 1213 602 1210 q 580 1217 590 1215 q 556 1221 570 1219 q 528 1227 543 1223 q 487 1187 500 1202 q 461 1159 473 1172 q 433 1131 449 1146 q 387 1088 418 1115 "},"ń":{"ha":732,"x_min":26,"x_max":689,"o":"m 62 9 q 74 5 64 7 q 96 3 84 4 q 117 2 107 3 q 130 0 127 1 q 145 259 132 126 q 189 507 159 392 q 269 706 220 621 q 393 822 319 791 q 510 775 465 822 q 580 656 555 728 q 614 494 605 583 q 623 322 623 406 q 619 171 624 239 q 613 71 614 103 q 611 10 606 26 q 627 -6 616 -5 q 654 1 637 -7 q 685 14 670 9 q 687 206 685 106 q 685 404 689 307 q 667 588 681 500 q 623 742 654 675 q 541 848 593 808 q 411 891 490 888 q 321 877 361 895 q 252 826 282 859 q 200 751 221 793 q 165 666 179 709 q 143 581 151 623 q 133 509 136 540 q 133 551 133 521 q 130 616 133 581 q 121 689 127 652 q 103 750 115 726 q 72 782 91 774 q 26 766 53 789 q 26 757 26 764 q 26 741 26 750 q 28 725 27 732 q 30 716 28 718 q 37 632 34 688 q 41 508 39 576 q 45 363 43 439 q 50 218 47 288 q 56 94 53 149 q 62 9 58 38 m 475 1119 q 435 1147 446 1133 q 420 1170 425 1162 q 410 1173 415 1177 q 387 1143 404 1168 q 336 1067 370 1118 q 237 935 301 1017 l 290 907 q 337 963 315 937 q 382 1013 359 989 q 427 1063 404 1038 q 475 1119 450 1088 "},"ř":{"ha":553,"x_min":23,"x_max":528,"o":"m 23 705 q 23 682 23 699 q 24 647 23 666 q 25 612 24 628 q 26 590 26 595 q 32 491 28 548 q 39 373 35 434 q 46 252 42 312 q 54 143 50 191 q 59 65 57 95 q 61 35 61 35 l 130 35 q 115 315 109 202 q 149 498 122 429 q 217 598 175 567 q 308 635 259 629 q 408 624 357 640 q 506 581 460 608 q 513 650 528 621 q 464 697 499 680 q 378 720 429 715 q 277 715 328 724 q 182 682 227 707 q 114 618 138 658 q 106 656 111 637 q 90 690 100 675 q 62 709 79 704 q 23 705 46 715 m 296 1088 q 244 1124 269 1108 q 195 1156 220 1141 q 147 1188 171 1172 q 98 1223 123 1204 l 41 1207 l 300 996 q 361 1040 335 1016 q 411 1091 388 1065 q 458 1145 434 1118 q 511 1202 481 1173 q 505 1213 511 1210 q 489 1217 499 1215 q 465 1221 479 1219 q 437 1227 452 1223 q 396 1187 410 1202 q 370 1159 382 1172 q 342 1131 358 1146 q 296 1088 327 1115 "},"ů":{"ha":829,"x_min":34,"x_max":793,"o":"m 35 701 q 75 382 47 513 q 138 169 102 251 q 218 49 175 87 q 308 6 262 11 q 401 26 354 1 q 492 94 449 50 q 570 195 534 137 q 632 316 606 254 l 716 4 l 793 4 q 787 68 793 16 q 770 193 780 119 q 749 351 761 266 q 726 514 736 435 q 708 655 716 593 q 699 746 700 718 l 590 732 q 604 589 610 670 q 574 426 598 507 q 511 273 549 345 q 427 162 472 202 q 334 123 381 122 q 247 185 288 123 q 175 380 206 247 q 132 736 144 513 q 109 742 125 743 q 75 735 92 741 q 46 720 58 730 q 35 701 34 711 m 285 990 q 290 951 285 971 q 308 913 296 930 q 341 886 320 897 q 393 875 362 875 q 437 886 419 875 q 467 915 456 898 q 484 951 479 932 q 490 985 490 970 q 457 1071 490 1034 q 358 1108 425 1108 q 319 1095 334 1108 q 297 1063 305 1081 q 287 1024 289 1044 q 285 990 285 1004 m 321 990 q 329 1047 313 1028 q 367 1067 345 1066 q 412 1050 389 1069 q 439 994 434 1032 q 420 950 433 971 q 392 922 408 929 q 357 929 376 916 q 321 990 339 943 "},"‹":{"ha":651,"x_min":58,"x_max":617,"o":"m 58 296 q 92 260 58 286 q 178 201 126 235 q 291 133 229 168 q 409 68 353 98 q 509 18 465 38 q 566 -1 552 -1 q 595 6 585 -1 q 617 35 606 14 q 605 51 614 41 q 585 73 595 61 q 563 93 574 84 q 547 104 552 102 q 503 125 533 111 q 436 157 473 140 q 357 193 399 175 q 278 229 316 212 q 210 259 240 245 q 165 278 180 273 l 165 347 q 210 396 180 365 q 276 466 240 427 q 349 550 312 505 q 416 643 387 595 q 466 739 446 690 q 486 833 486 788 l 444 833 l 61 312 q 59 304 60 311 q 58 296 58 298 "},"«":{"ha":861,"x_min":58,"x_max":837,"o":"m 58 296 q 92 260 58 286 q 178 201 126 235 q 291 133 229 168 q 409 68 353 98 q 509 18 465 38 q 566 -1 552 -1 q 595 6 585 -1 q 617 35 606 14 q 605 51 614 41 q 585 73 595 61 q 563 93 574 84 q 547 104 552 102 q 503 125 533 111 q 436 157 473 140 q 357 193 399 175 q 278 229 316 212 q 210 259 240 245 q 165 278 180 273 l 165 347 q 210 396 180 365 q 276 466 240 427 q 349 550 312 505 q 416 643 387 595 q 466 739 446 690 q 486 833 486 788 l 444 833 l 61 312 q 59 304 60 311 q 58 296 58 298 m 279 351 q 313 316 279 342 q 399 257 347 290 q 512 189 450 224 q 630 123 574 153 q 730 74 686 94 q 787 54 773 54 q 816 62 806 54 q 837 91 826 69 q 825 106 834 96 q 806 128 817 117 q 784 149 795 140 q 768 160 773 157 q 724 181 754 167 q 657 213 694 195 q 578 249 620 231 q 499 284 537 267 q 431 315 461 301 q 387 334 401 328 l 387 403 q 431 452 401 420 q 497 522 461 483 q 570 606 533 560 q 637 699 608 651 q 687 795 667 746 q 707 888 707 844 l 663 888 l 282 368 q 280 360 281 366 q 279 351 279 354 m 279 351 q 313 316 279 342 q 399 257 347 290 q 512 189 450 224 q 630 123 574 153 q 730 74 686 94 q 787 54 773 54 q 816 62 806 54 q 837 91 826 69 q 825 106 834 96 q 806 128 817 117 q 784 149 795 140 q 768 160 773 157 q 724 181 754 167 q 657 213 694 195 q 578 249 620 231 q 499 284 537 267 q 431 315 461 301 q 387 334 401 328 l 387 403 q 431 452 401 420 q 497 522 461 483 q 570 606 533 560 q 637 699 608 651 q 687 795 667 746 q 707 888 707 844 l 663 888 l 282 368 q 280 360 281 366 q 279 351 279 354 "},"›":{"ha":590,"x_min":53,"x_max":576,"o":"m 469 486 l 191 69 l 191 -8 q 232 3 217 -8 q 262 35 247 15 q 297 87 273 52 q 353 166 321 122 q 418 260 384 210 q 483 353 452 309 q 538 433 514 397 q 574 486 562 469 q 576 495 575 488 q 576 505 576 502 q 560 549 576 532 q 522 580 544 567 q 475 603 499 593 q 435 625 452 613 q 391 661 420 636 q 323 715 361 685 q 243 780 285 746 q 164 845 202 814 q 96 901 126 876 q 53 937 66 925 l 53 833 l 469 486 "},"»":{"ha":872,"x_min":53,"x_max":822,"o":"m 469 486 l 191 69 l 191 -8 q 232 3 217 -8 q 262 35 247 15 q 297 87 273 52 q 353 166 321 122 q 418 260 384 210 q 483 353 452 309 q 538 433 514 397 q 574 486 562 469 q 576 495 575 488 q 576 505 576 502 q 560 549 576 532 q 522 580 544 567 q 475 603 499 593 q 435 625 452 613 q 391 661 420 636 q 323 715 361 685 q 243 780 285 746 q 164 845 202 814 q 96 901 126 876 q 53 937 66 925 l 53 833 l 469 486 m 715 519 l 438 103 l 438 24 q 477 37 463 24 q 507 68 492 49 q 544 119 519 84 q 599 199 568 155 q 663 293 629 244 q 728 387 697 342 q 783 467 760 431 q 819 519 807 503 q 821 528 821 522 q 822 537 822 534 q 806 583 822 566 q 767 613 789 601 q 721 635 745 625 q 681 658 697 646 q 636 693 666 669 q 568 749 606 718 q 489 814 530 780 q 410 878 448 848 q 342 934 372 909 q 298 971 312 959 l 298 867 l 715 519 "},"¾":{"ha":1935,"x_min":42,"x_max":1904,"o":"m 88 109 l 88 109 l 88 69 q 123 28 88 42 q 205 6 159 14 q 296 -3 251 -1 q 361 -4 340 -4 q 502 24 437 -4 q 614 102 567 53 q 687 220 661 152 q 713 365 713 288 q 688 469 713 422 q 622 554 662 517 q 532 618 582 591 q 435 659 483 644 q 471 707 453 680 q 505 764 490 734 q 530 826 519 795 q 540 886 540 857 q 528 938 540 910 q 496 989 515 966 q 452 1029 476 1013 q 404 1044 429 1044 q 288 1027 351 1044 q 170 976 225 1009 q 79 895 115 943 q 42 789 42 848 q 101 822 64 798 q 182 875 138 846 q 271 927 225 903 q 357 957 317 951 q 427 945 397 963 q 469 868 457 926 q 461 850 469 864 q 441 821 453 837 q 418 788 430 804 q 400 764 407 772 q 360 722 389 751 q 298 659 331 692 q 234 596 264 625 q 191 556 203 567 q 195 546 191 552 q 205 534 199 540 q 217 525 212 529 q 227 521 222 521 q 246 526 231 521 q 279 538 262 532 q 312 550 297 544 q 331 556 327 556 q 341 557 332 556 q 361 558 350 557 q 383 559 372 559 q 401 559 395 559 q 487 544 444 559 q 566 501 530 529 q 623 435 601 473 q 644 349 644 396 q 618 230 644 282 q 550 142 593 178 q 450 87 507 106 q 332 68 393 68 q 269 74 300 68 q 209 88 239 80 q 149 102 179 96 q 88 109 119 109 m 1034 972 l 755 35 l 810 -19 l 1103 972 q 1075 1012 1086 1004 q 1055 1015 1063 1020 q 1042 997 1047 1010 q 1034 972 1036 983 m 1564 694 l 1564 694 l 1564 35 l 1634 35 l 1629 712 q 1657 711 1630 712 q 1721 711 1683 711 q 1803 715 1759 712 q 1884 728 1847 719 q 1890 749 1887 734 q 1896 779 1893 764 q 1904 817 1900 796 l 1634 817 l 1634 1146 q 1624 1162 1634 1154 q 1598 1175 1613 1169 q 1568 1185 1583 1181 q 1546 1188 1553 1188 l 1546 799 q 1526 777 1546 784 q 1476 766 1506 769 q 1411 763 1446 762 q 1344 766 1375 764 q 1291 770 1313 768 q 1268 772 1270 772 l 1268 1180 q 1261 1195 1268 1187 q 1245 1209 1255 1203 q 1225 1219 1236 1215 q 1207 1223 1214 1223 q 1200 1080 1207 1152 q 1185 938 1194 1009 q 1169 796 1176 867 q 1162 654 1162 726 q 1253 661 1208 654 q 1342 675 1298 667 q 1431 689 1386 682 q 1520 696 1476 696 q 1542 695 1526 696 q 1564 694 1558 694 "},"¼":{"ha":1139,"x_min":42,"x_max":1107,"o":"m 48 552 q 59 528 56 539 q 74 517 63 517 q 163 521 119 517 q 252 529 208 524 q 341 537 296 533 q 432 540 386 540 l 434 578 q 396 580 418 581 q 352 578 374 579 q 311 579 330 577 q 280 588 291 580 l 280 1048 q 241 1039 264 1045 q 192 1025 218 1033 q 139 1008 166 1017 q 92 993 113 1000 q 58 980 71 985 q 43 975 44 975 l 48 941 q 95 949 73 941 q 138 967 117 957 q 181 985 160 977 q 227 993 203 993 q 232 993 228 993 q 237 992 236 992 q 230 927 232 963 q 227 852 228 891 q 224 774 225 814 q 219 698 222 735 q 210 628 215 661 q 194 571 204 596 q 151 564 166 566 q 126 561 135 562 q 112 560 117 560 q 99 559 107 560 q 81 557 92 559 q 48 552 69 556 m 573 982 l 377 41 l 416 -14 l 622 982 q 602 1021 610 1013 q 588 1025 594 1029 q 579 1006 583 1020 q 573 982 575 993 m 868 375 l 868 375 l 868 14 l 918 14 l 914 385 q 934 384 915 385 q 979 384 952 384 q 1037 387 1006 385 q 1094 394 1068 388 q 1098 405 1095 397 q 1102 421 1100 413 q 1108 442 1105 431 l 918 442 l 918 623 q 910 631 918 627 q 892 639 903 635 q 871 644 882 642 q 856 646 861 646 l 856 432 q 841 420 856 424 q 806 414 827 416 q 760 413 785 412 q 713 414 735 413 q 676 416 691 415 q 660 417 661 417 l 660 641 q 655 649 660 645 q 644 657 650 654 q 629 663 637 660 q 617 665 622 665 q 612 586 617 626 q 601 508 607 547 q 590 431 595 469 q 585 353 585 392 q 649 356 618 353 q 712 364 681 360 q 775 372 743 368 q 838 376 806 376 q 853 375 841 376 q 868 375 864 375 "}}}
